<svg id="Layer_1" data-name="Layer 1" xmlns="http://www.w3.org/2000/svg" viewBox="0 0 50 50"><defs><style>.cls-1{fill:#f0f;}.cls-2{fill:#22b573;}.cls-3{fill:#ff0;}</style></defs><path class="cls-1" d="M6.54,28.4a9.42,9.42,0,0,0,4.22,1.06c1.75,0,2.68-.73,2.68-1.83s-.8-1.65-2.82-2.36c-2.81-1-4.65-2.53-4.65-5,0-2.87,2.41-5.05,6.37-5.05a10.13,10.13,0,0,1,4.31.84l-.85,3.06a8,8,0,0,0-3.51-.8c-1.66,0-2.45.77-2.45,1.63,0,1.07.93,1.54,3.12,2.37,3,1.11,4.36,2.66,4.36,5,0,2.81-2.15,5.23-6.79,5.23a10.86,10.86,0,0,1-4.76-1.05Z"/><path class="cls-2" d="M20,28.4a9.38,9.38,0,0,0,4.22,1.06c1.75,0,2.67-.73,2.67-1.83s-.8-1.65-2.82-2.36c-2.81-1-4.64-2.53-4.64-5,0-2.87,2.41-5.05,6.37-5.05a10.08,10.08,0,0,1,4.3.84l-.84,3.06a8.07,8.07,0,0,0-3.52-.8c-1.66,0-2.45.77-2.45,1.63,0,1.07.93,1.54,3.12,2.37,3,1.11,4.36,2.66,4.36,5,0,2.81-2.15,5.23-6.79,5.23a10.86,10.86,0,0,1-4.76-1.05Z"/><path class="cls-3" d="M33.53,28.4a9.42,9.42,0,0,0,4.22,1.06c1.75,0,2.68-.73,2.68-1.83s-.81-1.65-2.82-2.36c-2.81-1-4.65-2.53-4.65-5,0-2.87,2.41-5.05,6.37-5.05a10.08,10.08,0,0,1,4.3.84l-.84,3.06a8.06,8.06,0,0,0-3.51-.8c-1.66,0-2.45.77-2.45,1.63,0,1.07.93,1.54,3.11,2.37,3,1.11,4.37,2.66,4.37,5,0,2.81-2.16,5.23-6.79,5.23a10.86,10.86,0,0,1-4.76-1.05Z"/></svg>