<?xml version="1.0" encoding="utf-8"?>
<!-- Generator: Adobe Illustrator 28.0.0, SVG Export Plug-In . SVG Version: 6.00 Build 0)  -->
<svg version="1.1"
	 id="Layer_1" xmlns:rdf="http://www.w3.org/1999/02/22-rdf-syntax-ns#" xmlns:cc="http://creativecommons.org/ns#" xmlns:dc="http://purl.org/dc/elements/1.1/" xmlns:svg="http://www.w3.org/2000/svg"
	 xmlns="http://www.w3.org/2000/svg" xmlns:xlink="http://www.w3.org/1999/xlink" x="0px" y="0px" viewBox="0 0 128 128"
	 style="enable-background:new 0 0 128 128;" xml:space="preserve">
<style type="text/css">
	.st0{fill:#FFD78F;stroke:#000000;stroke-width:4;stroke-miterlimit:10;}
</style>
<path class="st0" d="M17.2,16c-3.4,0-6.1,2.7-6.1,6.1v10.8v9.2v33.3c0,3.4,2.7,6.1,6.1,6.1h80.3c3.4,0,6.1-2.7,6.1-6.1V32.9
	c0-3.4-2.7-6-6.1-6.1H48.7v-4.7c0-3.4-2.7-6.1-6.1-6.1H17.2z"/>
<path class="st0" d="M44.9,55.7c-2,0-3.6,1.6-3.6,3.7v6.5v5.5v20c0,2,1.6,3.6,3.6,3.6h48.2c2,0,3.7-1.6,3.7-3.6V65.9
	c0-2-1.6-3.6-3.7-3.6H63.8v-2.8c0-2-1.6-3.7-3.6-3.7H44.9z"/>
<path class="st0" d="M77,86c-1.2,0-2.2,1-2.2,2.2v3.9v3.3v12c0,1.2,1,2.2,2.2,2.2H106c1.2,0,2.2-1,2.2-2.2V92.1c0-1.2-1-2.2-2.2-2.2
	H88.4v-1.7c0-1.2-1-2.2-2.2-2.2H77z"/>
<path class="st0" d="M96.4,104.3c-0.7,0-1.3,0.6-1.3,1.3v2.3v2v7.2c0,0.7,0.6,1.3,1.3,1.3h17.3c0.7,0,1.3-0.6,1.3-1.3v-9.2
	c0-0.7-0.6-1.3-1.3-1.3h-10.6v-1c0-0.7-0.6-1.3-1.3-1.3H96.4z"/>
</svg>
