<?xml version="1.0" encoding="utf-8"?>
<!-- Generator: Adobe Illustrator 28.0.0, SVG Export Plug-In . SVG Version: 6.00 Build 0)  -->
<svg version="1.1" id="Layer_1" xmlns="http://www.w3.org/2000/svg" xmlns:xlink="http://www.w3.org/1999/xlink" x="0px" y="0px"
	 viewBox="0 0 120 120" style="enable-background:new 0 0 120 120;" xml:space="preserve">
<style type="text/css">
	.st0{fill:#FFFFFF;}
</style>
<g>
	<path class="st0" d="M35.1,36.2V52c0,3.4-1.1,6.1-3.3,8.1c2.2,2,3.3,4.7,3.3,8.1v15.9h12.4c1.1,0,2.1,0.4,2.9,1.2
		c0.8,0.8,1.2,1.7,1.2,2.9c0,1.1-0.4,2-1.2,2.9c-0.8,0.8-1.8,1.2-2.9,1.2H35.1c-2.2,0-4.1-0.8-5.7-2.5c-1.6-1.6-2.4-3.5-2.4-5.7
		V68.5c0-1.1-0.4-2.1-1.3-3c-0.8-0.9-1.8-1.3-2.9-1.3h-8.1c-1.1,0-2.1-0.4-2.9-1.2c-0.8-0.8-1.2-1.7-1.2-2.9c0-1.1,0.4-2.1,1.2-2.9
		c0.8-0.8,1.7-1.2,2.9-1.2h8.1c1.1,0,2.1-0.4,2.9-1.3c0.8-0.9,1.3-1.9,1.3-3V36.1c0-2.1,0.8-4,2.4-5.6c1.6-1.6,3.5-2.4,5.7-2.4h12.4
		c1.1,0,2.1,0.4,2.9,1.2c0.8,0.8,1.2,1.7,1.2,2.9c0,1.1-0.4,2.1-1.2,2.9c-0.8,0.8-1.7,1.2-2.9,1.2H35.1z"/>
	<path class="st0" d="M86.3,84.1V68.2c0-3.3,1.1-6,3.2-8.1c-2.2-2-3.2-4.6-3.2-8v-16H73.9c-1.1,0-2.1-0.4-2.9-1.2
		c-0.8-0.8-1.2-1.7-1.2-2.9c0-1.1,0.4-2,1.2-2.9c0.8-0.8,1.7-1.2,2.9-1.2h12.4c2.2,0,4.1,0.8,5.7,2.5s2.4,3.5,2.4,5.7v15.6
		c0,1.1,0.4,2.1,1.2,3c0.8,0.9,1.8,1.3,2.9,1.3h8.1c1.1,0,2.1,0.4,2.9,1.2c0.8,0.8,1.2,1.7,1.2,2.9c0,1.2-0.4,2.1-1.2,2.9
		c-0.8,0.8-1.7,1.2-2.9,1.2h-8.1c-1.2,0-2.1,0.4-2.9,1.3c-0.8,0.9-1.2,1.8-1.2,3v15.7c0,2.1-0.8,3.9-2.4,5.6
		c-1.6,1.6-3.5,2.5-5.7,2.5H73.9c-1.1,0-2.1-0.4-2.9-1.2c-0.8-0.8-1.2-1.7-1.2-2.9c0-1.1,0.4-2.1,1.2-2.9c0.8-0.8,1.7-1.2,2.9-1.2
		H86.3z"/>
</g>
</svg>
