<?xml version="1.0" encoding="utf-8"?>
<!-- Generator: Adobe Illustrator 28.0.0, SVG Export Plug-In . SVG Version: 6.00 Build 0)  -->
<svg version="1.1" id="Layer_1" xmlns="http://www.w3.org/2000/svg" xmlns:xlink="http://www.w3.org/1999/xlink" x="0px" y="0px"
	 viewBox="0 0 800 800" style="enable-background:new 0 0 800 800;" xml:space="preserve">
<style type="text/css">
	.st0{fill-rule:evenodd;clip-rule:evenodd;fill:#FEFDFC;}
	.st1{fill-rule:evenodd;clip-rule:evenodd;fill:#3E4749;}
</style>
<g id="Page-1">
	<g id="Artboard" transform="translate(-857.000000, -750.000000)">
		<g id="_x30_13-Skull" transform="translate(857.000000, 750.000000)">
			<path id="Fill-1408" class="st0" d="M269.4,34.1C-50.4,101.3-20.8,460,131.5,586.3c118.8,98.6,277.4,74.5,277.4,74.5
				S392.2,789.7,436,797.3S523.9,648,523.9,648s-1.5,134.6,52.6,122.2c54-12.5,16.5-155.9,16.5-155.9s48.2,143.7,92.1,117.5
				c43.9-26.2,0.7-174.2,0.7-174.2s54.1,119,91.8,83s-58-182.6-58-182.6S831.9-84,269.4,34.1"/>
			<g>
				<path id="Fill-1409_00000104684084538428316140000017854212428932747394_" class="st1" d="M528.1,398.8
					c-20.2,16.7-21,143.3,9.5,141.2s35.5-56.7,35.5-56.7s35.3,23.6,52.1,7.6C642,475,548.3,382,528.1,398.8"/>
				<path id="Fill-1410_00000136405843096773649200000014495683188054607506_" class="st1" d="M381.9,249.1
					C319,212.6,242,281.9,243.5,332.9c2.4,79.4,79.6,167.2,147.6,143.1C459,452,458.1,293.2,381.9,249.1"/>
				<path id="Fill-1411_00000004548338438305622130000010104598060695772309_" class="st1" d="M614.6,201.8
					c-42.8-24.8-95.1,22.3-94.1,57c1.6,54,54.2,113.7,100.4,97.3C667,339.8,666.4,231.8,614.6,201.8"/>
			</g>
		</g>
	</g>
</g>
</svg>
