<svg id="Layer_1" data-name="Layer 1" xmlns="http://www.w3.org/2000/svg" viewBox="0 0 50 50"><defs><style>.cls-1{fill:#fff;}</style></defs><title>GetDictKey</title><path class="cls-1" d="M1.7,22.79c2.64,0,3-1.46,3-2.76a22.24,22.24,0,0,0-.3-3.14,21.55,21.55,0,0,1-.3-3.09c0-3.43,2.24-4.89,5.41-4.89h.78V11H9.64c-2.2,0-2.94,1.2-2.94,3.21A15.24,15.24,0,0,0,7,16.82a17.22,17.22,0,0,1,.25,2.83c0,2.39-1,3.58-2.68,4v.08c1.68.41,2.72,1.67,2.68,4.06A17.05,17.05,0,0,1,7,30.66a15.58,15.58,0,0,0-.26,2.68c0,2.09.85,3.25,2.94,3.25h.67v2H9.53c-3.1,0-5.41-1.34-5.41-5.11a21.14,21.14,0,0,1,.3-3.06,20.73,20.73,0,0,0,.3-3c0-1.16-.38-2.76-3-2.76Z"/><path class="cls-1" d="M14.31,38.64V8.91h6.83V11H16.85V36.59h4.29v2Z"/><path class="cls-1" d="M35.39,8.87V38.64H28.56v-2h4.29V10.92H28.56V8.87Z"/><path class="cls-1" d="M48,24.69c-2.65,0-3,1.6-3,2.76a20.73,20.73,0,0,0,.3,3,21.14,21.14,0,0,1,.3,3.06c0,3.77-2.35,5.11-5.41,5.11h-.79v-2H40c2.09,0,3-1.16,3-3.25a22.9,22.9,0,0,0-.26-2.68,16.93,16.93,0,0,1-.3-2.84c0-2.39,1.05-3.65,2.69-4.06v-.08c-1.64-.45-2.69-1.64-2.69-4a17.15,17.15,0,0,1,.3-2.83A22.4,22.4,0,0,0,43,14.17c0-2-.78-3.17-3-3.21h-.67V8.91h.75c3.17,0,5.45,1.46,5.45,4.89a21.55,21.55,0,0,1-.3,3.09A22.24,22.24,0,0,0,45,20c0,1.3.37,2.76,3,2.76Z"/></svg>