<svg id="Layer_1" data-name="Layer 1" xmlns="http://www.w3.org/2000/svg" viewBox="0 0 50 50"><defs><style>.cls-1{fill:#f15a24;}.cls-2{fill:#f2f2f2;}.cls-3{fill:aqua;}</style></defs><path class="cls-1" d="M8.8,16.7a1.89,1.89,0,0,1-2.05,1.9,1.9,1.9,0,1,1,0-3.8A1.87,1.87,0,0,1,8.8,16.7ZM4.88,32.33V20.1H8.69V32.33Z"/><path class="cls-2" d="M17.5,24.5V27H11V24.5Z"/><path class="cls-2" d="M31.71,26.84l-12,5.49V29.69l9.29-4v-.05l-9.29-4V19l12,5.49Z"/><path class="cls-3" d="M34.93,28.4a9.42,9.42,0,0,0,4.22,1.06c1.75,0,2.68-.73,2.68-1.83S41,26,39,25.27c-2.81-1-4.65-2.53-4.65-5,0-2.87,2.41-5.05,6.37-5.05a10.08,10.08,0,0,1,4.3.84l-.84,3.06a8.06,8.06,0,0,0-3.51-.8c-1.66,0-2.45.77-2.45,1.63,0,1.07.93,1.54,3.11,2.37,3,1.11,4.37,2.66,4.37,5,0,2.81-2.16,5.23-6.79,5.23a10.86,10.86,0,0,1-4.76-1.05Z"/></svg>