<svg viewBox="0 0 75.15 73.15" fill="#fff" fill-rule="evenodd" stroke="#000" stroke-linecap="round" stroke-linejoin="round"><symbol id="A" overflow="visible"><path d="M75 1.193c-.904 5.753-2.259 10.143-3.635 12.713-2.259.6-8.456.6-11.484.6-.763 10.736-.763 22.834-.607 33.874 0 10.284 2.569 13.919 6.049 13.919 1.962 0 4.383-.614 6.352-1.517l1.659 3.028c-3.169 4.828-8.626 8.456-13.757 8.456-5.738 0-11.039-4.08-11.039-18.895 0-14.061.607-26.307 1.207-39.161l-21.013-.155v3.021c0 36.45-6.501 50.503-8.019 52.473-4.08 1.814-7.112 2.57-9.684 2.718l-1.196-2.718c9.067-13.454 11.932-39.775 11.932-55.642-9.067-.148-14.66 1.659-19.347 5.442L0 15.719C3.476 11.484 10.284 3.924 26.459 4.221l36.739.311c4.242 0 5.597-.607 7.567-4.531L75 1.193z" stroke="none" fill="#007198" fill-rule="nonzero"/></symbol></svg>