<svg id="Layer_1" data-name="Layer 1" xmlns="http://www.w3.org/2000/svg" viewBox="0 0 50 50"><defs><style>.cls-1{fill:#f15a24;}.cls-2{fill:#f2f2f2;}.cls-3{fill:aqua;}</style></defs><path class="cls-1" d="M10.4,16.46,7.72,19.65v.05l4-.8v2.52l-4-.67v.06l2.71,3.08L8.19,25.18,6.75,21.32l0,0L5.26,25.18,3.12,23.9,5.8,20.77l0-.05-3.92.7V18.9l3.88.8,0-.06L3.12,16.48l2.22-1.26,1.39,3.83h.06l1.43-3.84Z"/><path class="cls-2" d="M19.74,24.5V27H13.21V24.5Z"/><path class="cls-2" d="M34,26.84l-12,5.49V29.69l9.29-4v-.05l-9.29-4V19l12,5.49Z"/><path class="cls-3" d="M37.18,28.4a9.42,9.42,0,0,0,4.22,1.06c1.75,0,2.68-.73,2.68-1.83s-.81-1.65-2.82-2.36c-2.81-1-4.65-2.53-4.65-5,0-2.87,2.41-5.05,6.37-5.05a10.08,10.08,0,0,1,4.3.84l-.84,3.06a8.07,8.07,0,0,0-3.52-.8c-1.65,0-2.45.77-2.45,1.63,0,1.07.94,1.54,3.12,2.37,3,1.11,4.37,2.66,4.37,5,0,2.81-2.16,5.23-6.8,5.23a10.85,10.85,0,0,1-4.75-1.05Z"/></svg>