<?xml version="1.0" encoding="utf-8"?>
<!-- Generator: Adobe Illustrator 28.0.0, SVG Export Plug-In . SVG Version: 6.00 Build 0)  -->
<svg version="1.1" id="Layer_1" xmlns="http://www.w3.org/2000/svg" xmlns:xlink="http://www.w3.org/1999/xlink" x="0px" y="0px"
	 viewBox="0 0 120 120" style="enable-background:new 0 0 120 120;" xml:space="preserve">
<style type="text/css">
	.st0{fill:#FFFFFF;}
</style>
<g>
	<path class="st0" d="M24,25.6h8.4c0.5,0,1.1,0.1,2,0.3l0-3c0-0.6-0.2-1.1-0.6-1.5c-0.4-0.4-0.9-0.6-1.5-0.6H24
		c-0.6,0-1.1-0.2-1.5-0.6c-0.4-0.4-0.6-0.9-0.6-1.5c0-0.6,0.2-1.1,0.6-1.5c0.4-0.4,0.9-0.6,1.5-0.6h8.1c1.8,0,3.3,0.6,4.5,1.9
		c1.2,1.2,1.9,2.8,1.9,4.5l0.5,16c0,0.6-0.2,1.1-0.6,1.5C38.1,40.8,37.6,41,37,41c-0.6,0-1.1-0.2-1.5-0.6c-0.4-0.4-0.6-0.9-0.6-1.5
		L31.2,41H24c-1.8,0-3.3-0.6-4.6-1.9c-1.3-1.3-1.9-2.8-1.9-4.6v-2.5c0-1.8,0.6-3.3,1.9-4.6C20.7,26.3,22.2,25.6,24,25.6z M34.6,33.9
		l-0.1-1.8c0-0.6-0.2-1.1-0.6-1.5C33.5,30.2,33,30,32.4,30H24c-0.6,0-1.1,0.2-1.5,0.6c-0.4,0.4-0.6,0.9-0.6,1.5v2.4
		c0,0.6,0.2,1.1,0.6,1.5c0.4,0.4,0.9,0.6,1.5,0.6h6L34.6,33.9z"/>
	<path class="st0" d="M54.3,9.4v10l1.9-1.5c1.2-1,2.4-1.5,3.7-1.5h3.9c1.4,0,2.7,0.5,3.8,1.5l2,1.8c0.6,0.5,1,1.2,1.4,2.1
		s0.5,1.8,0.5,2.7v8.6c0,0.8-0.2,1.6-0.5,2.5s-0.7,1.5-1.2,1.9l-1.9,1.8c-0.5,0.5-1.2,0.9-2,1.2c-0.9,0.4-1.6,0.5-2.2,0.5h-3.7
		c-1.8,0-3.7-1-5.8-3v0.8c0,0.6-0.2,1.1-0.6,1.5c-0.4,0.4-0.9,0.6-1.5,0.6c-0.6,0-1.1-0.2-1.5-0.6c-0.4-0.4-0.6-0.9-0.6-1.5V9.4
		c0-0.6,0.2-1.1,0.6-1.5c0.4-0.4,0.9-0.6,1.5-0.6c0.6,0,1.1,0.2,1.5,0.6C54.1,8.3,54.3,8.8,54.3,9.4z M63.5,20.8h-2.9
		c-0.7,0-1.3,0.2-1.6,0.5l-3.8,3.3c-0.5,0.4-0.7,1.1-0.7,2v4.8c0,0.7,0.3,1.3,0.8,1.8l3.4,2.9c0.5,0.5,1,0.7,1.5,0.7h3.5
		c0.5,0,0.9-0.2,1.3-0.5l1.7-1.5c0.5-0.3,0.7-0.8,0.7-1.4v-9c0-0.7-0.2-1.3-0.7-1.6L65,21.4C64.6,21,64,20.8,63.5,20.8z"/>
	<path class="st0" d="M101.7,41h-9.1c-1.6,0-3-0.5-4.1-1.4L84.3,36c-1.3-1.1-2-2.6-2-4.5v-5.6c-0.1-1.8,0.7-3.4,2.2-4.7l3.7-3.2
		c1.2-1,2.5-1.5,3.9-1.5h9.6c0.6,0,1.1,0.2,1.5,0.6c0.4,0.4,0.6,0.9,0.6,1.5c0,0.6-0.2,1.1-0.6,1.5s-0.9,0.6-1.5,0.6h-9.2
		c-0.6,0-1.1,0.2-1.7,0.7l-3.4,2.9c-0.6,0.5-0.8,1.1-0.8,1.9v5.2c0,0.6,0.2,1,0.7,1.4l3.8,3.2c0.5,0.4,1.1,0.6,1.9,0.6h8.7
		c0.6,0,1.1,0.2,1.5,0.6c0.4,0.4,0.6,0.9,0.6,1.5c0,0.6-0.2,1.1-0.6,1.5C102.8,40.8,102.3,41,101.7,41z"/>
	<path class="st0" d="M24,61.6h8.4c0.5,0,1.1,0.1,2,0.3l0-3c0-0.6-0.2-1.1-0.6-1.5c-0.4-0.4-0.9-0.6-1.5-0.6H24
		c-0.6,0-1.1-0.2-1.5-0.6c-0.4-0.4-0.6-0.9-0.6-1.5c0-0.6,0.2-1.1,0.6-1.5c0.4-0.4,0.9-0.6,1.5-0.6h8.1c1.8,0,3.3,0.6,4.5,1.9
		c1.2,1.2,1.9,2.8,1.9,4.5l0.5,16c0,0.6-0.2,1.1-0.6,1.5C38.1,76.8,37.6,77,37,77c-0.6,0-1.1-0.2-1.5-0.6c-0.4-0.4-0.6-0.9-0.6-1.5
		L31.2,77H24c-1.8,0-3.3-0.6-4.6-1.9s-1.9-2.8-1.9-4.6v-2.5c0-1.8,0.6-3.3,1.9-4.6C20.7,62.3,22.2,61.6,24,61.6z M34.6,69.9
		l-0.1-1.8c0-0.6-0.2-1.1-0.6-1.5C33.5,66.2,33,66,32.4,66H24c-0.6,0-1.1,0.2-1.5,0.6s-0.6,0.9-0.6,1.5v2.4c0,0.6,0.2,1.1,0.6,1.5
		s0.9,0.6,1.5,0.6h6L34.6,69.9z"/>
	<path class="st0" d="M54.3,45.4v10l1.9-1.5c1.2-1,2.4-1.5,3.7-1.5h3.9c1.4,0,2.7,0.5,3.8,1.5l2,1.8c0.6,0.5,1,1.2,1.4,2.1
		s0.5,1.8,0.5,2.7v8.6c0,0.8-0.2,1.6-0.5,2.5s-0.7,1.5-1.2,1.9l-1.9,1.8c-0.5,0.5-1.2,0.9-2,1.2S64.4,77,63.8,77h-3.7
		c-1.8,0-3.7-1-5.8-3v0.8c0,0.6-0.2,1.1-0.6,1.5c-0.4,0.4-0.9,0.6-1.5,0.6c-0.6,0-1.1-0.2-1.5-0.6c-0.4-0.4-0.6-0.9-0.6-1.5V45.4
		c0-0.6,0.2-1.1,0.6-1.5c0.4-0.4,0.9-0.6,1.5-0.6c0.6,0,1.1,0.2,1.5,0.6C54.1,44.3,54.3,44.8,54.3,45.4z M63.5,56.8h-2.9
		c-0.7,0-1.3,0.2-1.6,0.5l-3.8,3.3c-0.5,0.4-0.7,1.1-0.7,2v4.8c0,0.7,0.3,1.3,0.8,1.8l3.4,2.9c0.5,0.5,1,0.7,1.5,0.7h3.5
		c0.5,0,0.9-0.2,1.3-0.5l1.7-1.5c0.5-0.3,0.7-0.8,0.7-1.4v-9c0-0.7-0.2-1.3-0.7-1.6L65,57.4C64.6,57,64,56.8,63.5,56.8z"/>
	<path class="st0" d="M101.7,77h-9.1c-1.6,0-3-0.5-4.1-1.4L84.3,72c-1.3-1.1-2-2.6-2-4.5v-5.6c-0.1-1.8,0.7-3.4,2.2-4.7l3.7-3.2
		c1.2-1,2.5-1.5,3.9-1.5h9.6c0.6,0,1.1,0.2,1.5,0.6c0.4,0.4,0.6,0.9,0.6,1.5c0,0.6-0.2,1.1-0.6,1.5s-0.9,0.6-1.5,0.6h-9.2
		c-0.6,0-1.1,0.2-1.7,0.7l-3.4,2.9c-0.6,0.5-0.8,1.1-0.8,1.9v5.2c0,0.6,0.2,1,0.7,1.4l3.8,3.2c0.5,0.4,1.1,0.6,1.9,0.6h8.7
		c0.6,0,1.1,0.2,1.5,0.6s0.6,0.9,0.6,1.5s-0.2,1.1-0.6,1.5S102.3,77,101.7,77z"/>
	<path class="st0" d="M24,97.6h8.4c0.5,0,1.1,0.1,2,0.3l0-3c0-0.6-0.2-1.1-0.6-1.5c-0.4-0.4-0.9-0.6-1.5-0.6H24
		c-0.6,0-1.1-0.2-1.5-0.6c-0.4-0.4-0.6-0.9-0.6-1.5c0-0.6,0.2-1.1,0.6-1.5c0.4-0.4,0.9-0.6,1.5-0.6h8.1c1.8,0,3.3,0.6,4.5,1.9
		c1.2,1.2,1.9,2.8,1.9,4.5l0.5,16c0,0.6-0.2,1.1-0.6,1.5c-0.4,0.4-0.9,0.6-1.5,0.6c-0.6,0-1.1-0.2-1.5-0.6c-0.4-0.4-0.6-0.9-0.6-1.5
		l-3.6,2.1H24c-1.8,0-3.3-0.6-4.6-1.9s-1.9-2.8-1.9-4.6v-2.5c0-1.8,0.6-3.3,1.9-4.6C20.7,98.3,22.2,97.6,24,97.6z M34.6,105.9
		l-0.1-1.8c0-0.6-0.2-1.1-0.6-1.5c-0.4-0.4-0.9-0.6-1.5-0.6H24c-0.6,0-1.1,0.2-1.5,0.6s-0.6,0.9-0.6,1.5v2.4c0,0.6,0.2,1.1,0.6,1.5
		s0.9,0.6,1.5,0.6h6L34.6,105.9z"/>
	<path class="st0" d="M54.3,81.4v10l1.9-1.5c1.2-1,2.4-1.5,3.7-1.5h3.9c1.4,0,2.7,0.5,3.8,1.5l2,1.8c0.6,0.5,1,1.2,1.4,2.1
		s0.5,1.8,0.5,2.7v8.6c0,0.8-0.2,1.6-0.5,2.5s-0.7,1.5-1.2,1.9l-1.9,1.8c-0.5,0.5-1.2,0.9-2,1.2s-1.6,0.5-2.2,0.5h-3.7
		c-1.8,0-3.7-1-5.8-3v0.8c0,0.6-0.2,1.1-0.6,1.5c-0.4,0.4-0.9,0.6-1.5,0.6c-0.6,0-1.1-0.2-1.5-0.6c-0.4-0.4-0.6-0.9-0.6-1.5V81.4
		c0-0.6,0.2-1.1,0.6-1.5c0.4-0.4,0.9-0.6,1.5-0.6c0.6,0,1.1,0.2,1.5,0.6C54.1,80.3,54.3,80.8,54.3,81.4z M63.5,92.8h-2.9
		c-0.7,0-1.3,0.2-1.6,0.5l-3.8,3.3c-0.5,0.4-0.7,1.1-0.7,2v4.8c0,0.7,0.3,1.3,0.8,1.8l3.4,2.9c0.5,0.5,1,0.7,1.5,0.7h3.5
		c0.5,0,0.9-0.2,1.3-0.5l1.7-1.5c0.5-0.3,0.7-0.8,0.7-1.4v-9c0-0.7-0.2-1.3-0.7-1.6L65,93.4C64.6,93,64,92.8,63.5,92.8z"/>
	<path class="st0" d="M101.7,113h-9.1c-1.6,0-3-0.5-4.1-1.4l-4.1-3.6c-1.3-1.1-2-2.6-2-4.5v-5.6c-0.1-1.8,0.7-3.4,2.2-4.7l3.7-3.2
		c1.2-1,2.5-1.5,3.9-1.5h9.6c0.6,0,1.1,0.2,1.5,0.6s0.6,0.9,0.6,1.5c0,0.6-0.2,1.1-0.6,1.5s-0.9,0.6-1.5,0.6h-9.2
		c-0.6,0-1.1,0.2-1.7,0.7l-3.4,2.9c-0.6,0.5-0.8,1.1-0.8,1.9v5.2c0,0.6,0.2,1,0.7,1.4l3.8,3.2c0.5,0.4,1.1,0.6,1.9,0.6h8.7
		c0.6,0,1.1,0.2,1.5,0.6s0.6,0.9,0.6,1.5s-0.2,1.1-0.6,1.5S102.3,113,101.7,113z"/>
</g>
</svg>
