<?xml version="1.0" encoding="utf-8"?>
<!-- Generator: Adobe Illustrator 28.0.0, SVG Export Plug-In . SVG Version: 6.00 Build 0)  -->
<svg version="1.1" id="Layer_1" xmlns="http://www.w3.org/2000/svg" xmlns:xlink="http://www.w3.org/1999/xlink" x="0px" y="0px"
	 viewBox="0 0 800 800" style="enable-background:new 0 0 800 800;" xml:space="preserve">
<style type="text/css">
	.st0{fill:#FFFFFF;}
</style>
<g id="Layer_4">
	<path class="st0" d="M700,33.3H100c-55.2,0-100,44.8-100,100s44.8,100,100,100h600c55.2,0,100-44.8,100-100S755.2,33.3,700,33.3z
		 M700,166.7H100c-18.4,0-33.3-14.9-33.3-33.3S81.6,100,100,100h600c18.4,0,33.3,14.9,33.3,33.3S718.4,166.7,700,166.7z"/>
	<path class="st0" d="M700,566.7H100c-55.2,0-100,44.8-100,100c0,55.2,44.8,100,100,100h600c55.2,0,100-44.8,100-100
		C800,611.4,755.2,566.7,700,566.7z M700,700H100c-18.4,0-33.3-14.9-33.3-33.3s14.9-33.3,33.3-33.3h600c18.4,0,33.3,14.9,33.3,33.3
		S718.4,700,700,700z"/>
	<path class="st0" d="M700,300H100C44.8,300,0,344.8,0,400s44.8,100,100,100h600c55.2,0,100-44.8,100-100S755.2,300,700,300z
		 M700,433.3H100c-18.4,0-33.3-14.9-33.3-33.3c0-18.4,14.9-33.3,33.3-33.3h600c18.4,0,33.3,14.9,33.3,33.3
		C733.3,418.4,718.4,433.3,700,433.3z"/>
</g>
</svg>
