<?xml version="1.0" encoding="utf-8"?>
<!-- Generator: Adobe Illustrator 28.0.0, SVG Export Plug-In . SVG Version: 6.00 Build 0)  -->
<svg version="1.1" id="Layer_1" xmlns="http://www.w3.org/2000/svg" xmlns:xlink="http://www.w3.org/1999/xlink" x="0px" y="0px"
	 viewBox="0 0 800 800" style="enable-background:new 0 0 800 800;" xml:space="preserve">
<style type="text/css">
	.st0{fill:#669923;}
	.st1{fill:#FFFFFF;}
</style>
<polygon class="st0" points="58.8,203 58.8,597 400,794 741.2,597 741.2,203 400,6 "/>
<g>
	<path class="st1" d="M138.6,398.5c0,20.1,1.7,38.6,5.2,55.7c3.4,17.1,8,32.7,13.7,47c5.7,14.2,12.3,27.1,19.9,38.5
		c7.6,11.5,15.4,21.6,23.5,30.4l-19.1,18c-4.2-3.6-9.1-8.4-14.6-14.5c-5.5-6.1-11.2-13.3-17-21.8c-5.8-8.5-11.5-18.1-17.3-28.8
		c-5.8-10.7-10.9-22.5-15.4-35.3c-4.5-12.8-8.2-26.7-11-41.7c-2.8-15-4.2-30.9-4.2-47.6c0-16.9,1.4-32.8,4.2-47.7
		c2.8-14.9,6.5-28.8,11-41.6c4.5-12.8,9.7-24.6,15.4-35.3c5.7-10.7,11.5-20.3,17.3-28.8c5.8-8.5,11.4-15.7,17-21.8
		c5.5-6.1,10.4-10.9,14.6-14.5l19.1,18c-8.1,8.8-15.9,19-23.5,30.4c-7.6,11.5-14.2,24.3-19.9,38.5c-5.7,14.2-10.3,29.9-13.7,47
		C140.3,359.8,138.6,378.4,138.6,398.5z"/>
	<path class="st1" d="M254.8,515.1v-43.8h42.7v43.8H254.8z"/>
	<path class="st1" d="M461.3,324.3h-1.1l-18.4,44.7l-25.2,34.6l-26.3-19.1l25.2-34.6l34.6-33l-0.4-1.1l-46.3-4.7L364,298.3l10.1-31
		l39.3,12.8l40,23.4l0.9-0.9l-9.9-45.4v-42.7H477v42.7l-9.9,45.4l0.9,0.9l40-23.4l39.3-12.8l10.1,31l-39.3,12.8l-46.3,4.7l-0.4,1.1
		l34.6,33l25.2,34.6l-26.3,19.1l-25.2-34.6L461.3,324.3z"/>
	<path class="st1" d="M662.8,398.5c0-20.1-1.7-38.6-5.2-55.7c-3.4-17.1-8-32.7-13.7-47c-5.7-14.2-12.3-27.1-19.9-38.5
		c-7.6-11.5-15.4-21.6-23.5-30.4l19.1-18c4.2,3.6,9.1,8.4,14.6,14.5c5.5,6.1,11.2,13.3,17,21.8c5.8,8.5,11.5,18.1,17.3,28.8
		c5.7,10.7,10.9,22.5,15.4,35.3c4.5,12.8,8.2,26.7,11,41.6c2.8,14.9,4.2,30.8,4.2,47.7c0,16.8-1.4,32.7-4.2,47.6
		c-2.8,15-6.5,28.9-11,41.7c-4.5,12.8-9.7,24.6-15.4,35.3c-5.8,10.7-11.5,20.3-17.3,28.8c-5.8,8.5-11.4,15.7-17,21.8
		c-5.5,6.1-10.4,10.9-14.6,14.5l-19.1-18c8.1-8.8,15.9-19,23.5-30.4c7.6-11.5,14.2-24.3,19.9-38.5c5.7-14.2,10.3-29.9,13.7-47
		C661.1,437.1,662.8,418.6,662.8,398.5z"/>
</g>
</svg>
