<?xml version="1.0" encoding="utf-8"?>
<!-- Generator: Adobe Illustrator 28.0.0, SVG Export Plug-In . SVG Version: 6.00 Build 0)  -->
<svg version="1.1" id="Layer_1" xmlns="http://www.w3.org/2000/svg" xmlns:xlink="http://www.w3.org/1999/xlink" x="0px" y="0px"
	 viewBox="0 0 120 120" style="enable-background:new 0 0 120 120;" xml:space="preserve">
<style type="text/css">
	.st0{fill:none;}
	.st1{enable-background:new    ;}
	.st2{fill:#FFFFFF;}
</style>
<g>
	<rect x="0.2" y="0.2" class="st0" width="120.3" height="119.8"/>
</g>
<g class="st1">
	<path class="st2" d="M15.8,62.1h10.9c0.6,0,1.5,0.1,2.6,0.4l-0.1-4c0-0.8-0.3-1.4-0.8-2c-0.5-0.5-1.2-0.8-2-0.8H15.9
		c-0.8,0-1.4-0.3-2-0.8c-0.6-0.6-0.8-1.2-0.8-2c0-0.8,0.3-1.4,0.8-2c0.5-0.5,1.2-0.8,2-0.8h10.6c2.3,0,4.3,0.8,5.9,2.4
		c1.6,1.6,2.5,3.6,2.5,5.9l0.7,20.9c0,0.8-0.3,1.4-0.8,2c-0.6,0.5-1.2,0.8-2,0.8c-0.8,0-1.5-0.3-2-0.8c-0.6-0.5-0.8-1.2-0.8-2
		l-4.7,2.8h-9.4c-2.4,0-4.3-0.8-6-2.5c-1.6-1.6-2.5-3.6-2.5-6v-3.3c0-2.3,0.8-4.3,2.5-6C11.5,62.9,13.5,62.1,15.8,62.1z M29.8,73
		l-0.2-2.4c0-0.8-0.3-1.5-0.8-2s-1.2-0.8-2-0.8h-11c-0.8,0-1.4,0.3-2,0.8c-0.5,0.5-0.8,1.2-0.8,2v3.1c0,0.8,0.3,1.4,0.8,2
		c0.6,0.6,1.2,0.8,2,0.8h7.9L29.8,73z"/>
	<path class="st2" d="M53.3,40.9V54l2.5-2c1.5-1.3,3.2-1.9,4.8-1.9h5.1c1.9,0,3.6,0.6,5,1.9l2.7,2.3c0.7,0.6,1.3,1.6,1.8,2.8
		c0.5,1.2,0.7,2.4,0.7,3.5v11.3c0,1-0.2,2.1-0.7,3.2c-0.4,1.1-1,2-1.5,2.5l-2.4,2.3c-0.6,0.6-1.5,1.1-2.7,1.6
		c-1.2,0.5-2.1,0.7-2.9,0.7h-4.8c-2.3,0-4.9-1.3-7.6-3.9v1.1c0,0.8-0.3,1.4-0.8,2c-0.5,0.5-1.2,0.8-2,0.8c-0.8,0-1.4-0.3-2-0.8
		c-0.5-0.5-0.8-1.2-0.8-2V40.9c0-0.8,0.3-1.4,0.8-2c0.6-0.5,1.2-0.8,2-0.8c0.8,0,1.4,0.3,2,0.8C53.1,39.4,53.3,40.1,53.3,40.9z
		 M65.3,55.8h-3.9c-0.9,0-1.6,0.2-2.1,0.6l-5,4.3c-0.6,0.6-1,1.4-1,2.6v6.3c0,0.9,0.4,1.7,1.1,2.3l4.5,3.8c0.6,0.6,1.3,0.9,2,0.9
		h4.5c0.6,0,1.2-0.2,1.7-0.6l2.2-2c0.6-0.4,0.9-1.1,0.9-1.9V60.3c0-0.9-0.3-1.6-0.9-2.1l-2-1.7C66.7,56,66,55.8,65.3,55.8z"/>
	<path class="st2" d="M113.1,82.2h-11.9c-2.1,0-3.9-0.6-5.4-1.9l-5.4-4.7c-1.7-1.4-2.6-3.4-2.6-5.8v-7.3c-0.1-2.4,0.9-4.4,2.9-6.2
		l4.9-4.2c1.6-1.3,3.3-1.9,5-1.9h12.5c0.8,0,1.4,0.3,2,0.8c0.5,0.5,0.8,1.2,0.8,2c0,0.8-0.3,1.5-0.8,2c-0.5,0.5-1.2,0.8-2,0.8h-12
		c-0.8,0-1.5,0.3-2.2,0.9l-4.5,3.8c-0.7,0.6-1.1,1.5-1.1,2.5v6.8c0,0.7,0.3,1.4,0.9,1.9l4.9,4.2c0.6,0.6,1.4,0.8,2.5,0.8h11.4
		c0.8,0,1.4,0.3,2,0.8c0.6,0.5,0.8,1.2,0.8,2c0,0.8-0.3,1.4-0.8,2C114.5,81.9,113.9,82.2,113.1,82.2z"/>
</g>
</svg>
