<?xml version="1.0" encoding="utf-8"?><!-- Uploaded to: SVG Repo, www.svgrepo.com, Generator: SVG Repo Mixer Tools -->
<svg width="800px" height="800px" viewBox="0 0 100 100" xmlns="http://www.w3.org/2000/svg" xmlns:xlink="http://www.w3.org/1999/xlink" aria-hidden="true" role="img" class="iconify iconify--gis" preserveAspectRatio="xMidYMid meet"><path d="M60.713 37.459a3.67 3.67 0 0 0-1.012.125l8.096 30.213L37.584 59.7c-.717 2.676 1.72 5.637 5.467 6.64l26.23 6.993l2.365 8.83a7.132 7.132 0 0 0-.494.004a2 2 0 0 0-1.107-.023a2 2 0 0 0-.95.574c-1.498.77-2.672 2.037-3.23 3.613c-.681 1.927-.732 4.173-.125 6.438c.607 2.264 1.775 4.183 3.328 5.511c1.554 1.328 3.644 2.09 5.713 1.535c2.07-.554 3.497-2.258 4.178-4.185c.681-1.927.734-4.173.127-6.438c-.29-1.08-.71-2.08-1.236-2.976l-3.041-11.408l11.408 3.04c.896.527 1.895.947 2.976 1.237c2.265.607 4.511.554 6.438-.127c1.927-.681 3.63-2.108 4.185-4.178c.555-2.07-.207-4.16-1.535-5.713c-1.328-1.553-3.247-2.72-5.511-3.328c-2.265-.607-4.511-.556-6.438.125c-1.576.558-2.843 1.732-3.613 3.23a2 2 0 0 0-.574.95a2 2 0 0 0 .023 1.107c-.008.166-.007.33-.004.494l-8.83-2.365l-6.992-26.23c-.878-3.278-3.256-5.554-5.63-5.592zm28.793 31.87a8.006 8.006 0 0 1 2.228.275c1.548.414 2.795 1.232 3.506 2.064c.711.832.86 1.53.713 2.078c-.147.55-.622 1.077-1.654 1.442c-1.032.364-2.522.45-4.07.035c-1.548-.415-2.795-1.235-3.506-2.067c-.711-.832-.862-1.527-.715-2.076c.147-.549.624-1.076 1.656-1.441a5.974 5.974 0 0 1 1.842-.31zM71.52 85.956c.466.013 1.012.232 1.636.766c.832.71 1.652 1.958 2.067 3.506c.414 1.548.33 3.038-.035 4.07c-.365 1.032-.893 1.507-1.442 1.654c-.549.147-1.246-.002-2.078-.713c-.832-.71-1.65-1.958-2.064-3.506c-.415-1.548-.33-3.038.035-4.07c.365-1.032.892-1.51 1.441-1.656c.137-.037.284-.055.44-.051z" fill="#ff0d0d"></path><path d="M64.207 0a3.5 3.5 0 0 0-3.426 3.252l-1.103 15.48L48.5 27.03a12.349 12.349 0 0 0-7.467-2.521c-6.89 0-12.55 5.66-12.55 12.55c0 1.494.28 2.924.767 4.256L12.283 53.906a3.5 3.5 0 0 0-1.242 1.727L.171 88.994a3.5 3.5 0 0 0 2.245 4.412a3.5 3.5 0 0 0 4.412-2.244l10.524-32.299l16.03-11.896c2.125 1.647 4.778 2.64 7.651 2.64c6.651 0 12.106-5.287 12.479-11.851a3.5 3.5 0 0 0 .07-.697a3.5 3.5 0 0 0-.072-.707a12.488 12.488 0 0 0-.805-3.727l12.436-9.229a3.5 3.5 0 0 0 1.406-2.562l1.217-17.086A3.5 3.5 0 0 0 64.52.01a3.5 3.5 0 0 0-.314-.01zM41.033 31.508c3.107 0 5.549 2.444 5.549 5.55c0 3.107-2.442 5.55-5.549 5.55c-3.106 0-5.55-2.443-5.55-5.55c0-3.106 2.444-5.55 5.55-5.55z" fill="#000000"></path><path d="M14.906 3.389l-3.742 3.314l6.629 7.486l3.744-3.314l-6.63-7.486zm9.946 11.23l-3.745 3.315l6.631 7.486l3.742-3.315l-6.628-7.486zm29.834 33.688l-3.745 3.316l6.631 7.486l3.742-3.316l-6.628-7.486z" fill="#000000" fill-rule="evenodd"></path></svg>