<?xml version="1.0" encoding="utf-8"?>
<!-- Generator: Adobe Illustrator 28.0.0, SVG Export Plug-In . SVG Version: 6.00 Build 0)  -->
<svg version="1.1" id="Capa_1" xmlns="http://www.w3.org/2000/svg" xmlns:xlink="http://www.w3.org/1999/xlink" x="0px" y="0px"
	 viewBox="0 0 457.4 457.4" style="enable-background:new 0 0 457.4 457.4;" xml:space="preserve">
<style type="text/css">
	.st0{fill:#40C1B4;}
	.st1{fill:#9AE2DD;}
</style>
<g>
	<g id="XMLID_39_">
		<g>
			<polygon class="st0" points="441.3,97.2 441.3,448.4 194.9,448.4 194.9,437.6 430.5,437.6 430.5,97.2 			"/>
			<polygon class="st0" points="421.5,77.3 421.5,428.6 175.1,428.6 175.1,417.8 410.7,417.8 410.7,77.3 			"/>
			<polygon class="st1" points="401.7,57.5 401.7,408.8 155.3,408.8 155.3,369.2 367.3,369.2 367.3,360.2 271.5,360.2 271.5,339.9 
				367.3,339.9 367.3,330.9 271.5,330.9 271.5,310.5 367.3,310.5 367.3,301.5 271.5,301.5 271.5,281.1 367.3,281.1 367.3,272.1 
				271.5,272.1 271.5,251.7 367.3,251.7 367.3,242.7 271.5,242.7 271.5,222.3 367.3,222.3 367.3,213.3 271.5,213.3 271.5,166.1 
				367.3,166.1 367.3,157.1 271.5,157.1 271.5,57.5 			"/>
			<polygon class="st0" points="82.4,15.4 82.4,75.4 22.4,75.4 			"/>
			<path class="st1" d="M262.5,9v351.2H16V84.4h75.4V9H262.5z M228.1,316.9v-9H50.5v9H228.1z M228.1,287.5v-9H50.5v9H228.1z
				 M228.1,258.1v-9H50.5v9H228.1z M228.1,228.7v-9H50.5v9H228.1z M228.1,199.3v-9H50.5v9H228.1z M228.1,170v-9H50.5v9H228.1z
				 M228.1,113.8v-9H50.5v9H228.1z"/>
			<path d="M450.3,88.2v369.2H185.9v-19.8h-19.8v-19.8h-19.8v-48.5H7V78L85,0h186.5v48.5h139.2v19.8h19.8v19.8
				C430.5,88.1,450.3,88.1,450.3,88.2z M441.3,448.4V97.2h-10.8v340.4H194.9v10.8H441.3z M421.5,428.6V77.3h-10.8v340.4H175.1v10.8
				H421.5z M401.7,408.8V57.5H271.5v99.6h95.8v9h-95.8v47.2h95.8v9h-95.8v20.4h95.8v9h-95.8v20.4h95.8v9h-95.8v20.4h95.8v9h-95.8
				v20.4h95.8v9h-95.8v20.4h95.8v9h-212v39.5L401.7,408.8L401.7,408.8z M262.5,360.2V9H91.4v75.4H16v275.9L262.5,360.2L262.5,360.2z
				 M82.4,75.4v-60l-60,60H82.4z"/>
			<rect x="50.5" y="307.9" width="177.6" height="9"/>
			<rect x="50.5" y="278.5" width="177.6" height="9"/>
			<rect x="50.5" y="249.1" width="177.6" height="9"/>
			<rect x="50.5" y="219.7" width="177.6" height="9"/>
			<rect x="50.5" y="190.3" width="177.6" height="9"/>
			<rect x="50.5" y="161" width="177.6" height="9"/>
			<rect x="50.5" y="104.8" width="177.6" height="9"/>
		</g>
	</g>
</g>
</svg>
