<?xml version="1.0" encoding="utf-8"?>
<!-- Generator: Adobe Illustrator 28.0.0, SVG Export Plug-In . SVG Version: 6.00 Build 0)  -->
<svg version="1.1" id="Layer_1" xmlns="http://www.w3.org/2000/svg" xmlns:xlink="http://www.w3.org/1999/xlink" x="0px" y="0px"
	 viewBox="0 0 50 50" style="enable-background:new 0 0 50 50;" xml:space="preserve">
<style type="text/css">
	.st0{fill:#ED1C24;}
	.st1{fill:#FFFFFF;}
</style>
<path class="st0" d="M7.5,5h35C43.9,5,45,6.1,45,7.5v35c0,1.4-1.1,2.5-2.5,2.5h-35C6.1,45,5,43.9,5,42.5v-35C5,6.1,6.1,5,7.5,5z"/>
<g>
	<path class="st1" d="M29.8,40.3l-1.4-1.6c1-0.8,1.9-1.7,2.8-2.7c0.8-1,1.3-1.9,1.6-2.9c-0.8-0.5-1.4-0.9-1.8-1.2
		c-0.5-0.3-0.8-0.7-1-1c-0.2-0.4-0.3-0.8-0.3-1.4c0-0.3,0.1-0.7,0.3-1.1c0.2-0.4,0.5-0.7,0.9-1c0.4-0.3,0.9-0.4,1.4-0.4
		c1.3,0,2.2,0.4,2.8,1.3c0.6,0.8,0.8,1.9,0.8,3.3c0,1-0.2,1.9-0.6,2.8s-1,1.7-1.6,2.4c-0.7,0.7-1.3,1.4-2,2
		C30.9,39.5,30.3,40,29.8,40.3z"/>
</g>
</svg>
