<?xml version="1.0" encoding="utf-8"?>
<!-- Generator: Adobe Illustrator 28.0.0, SVG Export Plug-In . SVG Version: 6.00 Build 0)  -->
<svg version="1.1" id="Layer_1" xmlns="http://www.w3.org/2000/svg" xmlns:xlink="http://www.w3.org/1999/xlink" x="0px" y="0px"
	 viewBox="0 0 800 800" style="enable-background:new 0 0 800 800;" xml:space="preserve">
<style type="text/css">
	.st0{fill:#FFFFFF;}
</style>
<path class="st0" d="M760.4,39.6c-18.1-18.1-47.4-18.1-65.5,0L594.3,140.2C538.6,98.4,471.1,75.8,400,75.8
	c-86.8,0-168.2,33.7-229.4,94.8C55.3,286,45.2,467.3,140.2,594.3L39.6,694.9c-18.1,18.1-18.1,47.4,0,65.5
	c9.1,9.1,20.9,13.6,32.8,13.6s23.7-4.5,32.8-13.6l100.6-100.6c55.7,41.8,123.2,64.4,194.3,64.4c86.8,0,168.2-33.7,229.4-94.8
	C744.7,514,754.8,332.7,659.8,205.7l100.6-100.6C778.5,87,778.5,57.7,760.4,39.6z M236.2,236.2c43.7-43.6,101.8-67.7,163.8-67.7
	c46.2,0,90.3,13.4,127.8,38.2L206.7,527.8C147.2,437.9,157,315.3,236.2,236.2z M563.8,563.8C520.2,607.5,462,631.5,400,631.5
	c-46.2,0-90.3-13.4-127.8-38.2l321.1-321.1C652.8,362.1,643,484.7,563.8,563.8z"/>
</svg>
