<?xml version="1.0" encoding="utf-8"?>
<!-- Generator: Adobe Illustrator 28.0.0, SVG Export Plug-In . SVG Version: 6.00 Build 0)  -->
<svg version="1.1" id="Layer_1" xmlns="http://www.w3.org/2000/svg" xmlns:xlink="http://www.w3.org/1999/xlink" x="0px" y="0px"
	 viewBox="0 0 800 800" style="enable-background:new 0 0 800 800;" xml:space="preserve">
<style type="text/css">
	.st0{fill-rule:evenodd;clip-rule:evenodd;fill:#FF000D;}
</style>
<g>
	<g>
		<polygon id="Fill-1" class="st0" points="233.3,66.7 66.7,233.3 66.7,566.7 233.3,733.3 400,733.3 316.7,638 275,638 162,525 
			162,275 275,162 316.7,162 400,66.7 		"/>
		<polygon id="Fill-2" class="st0" points="483.3,66.7 400,162 525,162 638,275 638,525 525,638 400,638 483.3,733.3 566.7,733.3 
			733.3,566.7 733.3,233.3 566.7,66.7 		"/>
		<polygon id="Fill-3" class="st0" points="400,566.7 316.7,483.3 400,400 316.7,316.7 400,233.3 316.7,233.3 233.3,316.7 
			233.3,483.3 316.7,566.7 		"/>
		<polygon id="Fill-4" class="st0" points="483.3,233.3 400,316.7 483.3,400 400,483.3 483.3,566.7 566.7,483.3 566.7,316.7 		"/>
	</g>
</g>
</svg>
