<?xml version="1.0" encoding="utf-8"?>
<!-- Generator: Adobe Illustrator 28.0.0, SVG Export Plug-In . SVG Version: 6.00 Build 0)  -->
<svg version="1.1" id="Layer_1" xmlns="http://www.w3.org/2000/svg" xmlns:xlink="http://www.w3.org/1999/xlink" x="0px" y="0px"
	 viewBox="0 0 800 800" style="enable-background:new 0 0 800 800;" xml:space="preserve">
<style type="text/css">
	.st0{fill-rule:evenodd;clip-rule:evenodd;fill:#FFE600;}
</style>
<path class="st0" d="M279.6,41.7c0.8,0,1.7,0,2.6,0h1c8,0,13.6,0,19,0.5c23.3,2,45.6,10.5,64,24.7c4.3,3.3,8.3,7,13.9,12.2
	l13.6,12.7c20,18.6,26.7,24.5,34.4,28.5c4.6,2.4,9.6,4.3,14.7,5.7c8.7,2.3,18.3,2.5,46.5,2.5h10.2c29.4,0,53.7,0,73,2.3
	c20.1,2.3,38.3,7.5,53.6,20.2c2.5,2.1,4.9,4.3,7.2,6.7c14.1,14.5,19.9,32.2,22.5,51.6c2.5,18.3,2.5,41.1,2.5,68.1v51.3
	c0,39.2,0,71.4-3.7,96.8c-3.9,26.7-12.2,49.6-31.6,67.6c-19.1,17.8-43,25.2-70.8,28.7c-27,3.4-61.3,3.4-103.8,3.4H425v53.5
	c30.5,8.6,54.6,32.7,63.2,63.2h245.1c13.8,0,25,11.2,25,25c0,13.8-11.2,25-25,25H488.2c-10.9,38.5-46.3,66.7-88.2,66.7
	s-77.3-28.2-88.2-66.7H66.7c-13.8,0-25-11.2-25-25c0-13.8,11.2-25,25-25h245.1c8.6-30.5,32.7-54.6,63.2-63.2V525h-23.4
	c-42.6,0-76.8,0-103.8-3.4c-27.9-3.5-51.7-10.9-70.8-28.7c-19.4-18-27.8-40.9-31.7-67.6c-3.7-25.4-3.7-57.5-3.7-96.8V173.9
	c0-0.9,0-1.8,0-2.7c0-16.5,0-28.4,2.1-38.9c9.4-46,47.7-80.5,94.6-88.7C249.1,41.7,261.5,41.7,279.6,41.7z M446.7,475
	c44.7,0,75.8,0,99.3-3c23-2.9,34.8-8.1,43-15.7c7.9-7.4,13.2-17.6,16.2-38.1c3.1-21.4,3.2-49.9,3.2-91.5V279c0-29.2-0.1-48.6-2-63.1
	c-1.9-13.7-5-19.6-8.9-23.6c-1-1.1-2.1-2.1-3.3-3.1c-4.7-3.9-11.8-7.1-27.4-8.9c-16.1-1.9-37.4-1.9-68.7-1.9h-8.7
	c-1.1,0-2.1,0-3.2,0c-23.9,0-40.4,0-56.2-4.2c-8.6-2.3-17-5.5-24.9-9.6c-14.5-7.5-26.4-18.5-43.2-34.2c-0.8-0.7-1.5-1.4-2.3-2.1
	l-12.8-11.9c-6.7-6.2-8.9-8.3-11.2-10c-10.6-8.1-23.7-13.2-37.8-14.5c-3-0.3-6.3-0.3-15.7-0.3c-21.7,0-29.3,0.1-35.2,1.1
	c-28.6,5-49.3,25.4-54.2,49.4c-1,4.9-1.1,11.3-1.1,31.7v152.8c0,41.6,0.1,70.1,3.2,91.5c3,20.5,8.3,30.7,16.2,38.1
	c8.2,7.6,20,12.9,43,15.7c23.5,2.9,54.7,3,99.3,3H446.7z M425,250c0-13.8,11.2-25,25-25h100c13.8,0,25,11.2,25,25
	c0,13.8-11.2,25-25,25H450C436.2,275,425,263.8,425,250z M400,625c-23,0-41.7,18.7-41.7,41.7c0,23,18.7,41.7,41.7,41.7
	c23,0,41.7-18.7,41.7-41.7C441.7,643.7,423,625,400,625z"/>
</svg>
