<?xml version="1.0" encoding="utf-8"?>
<!-- Generator: Adobe Illustrator 28.0.0, SVG Export Plug-In . SVG Version: 6.00 Build 0)  -->
<svg version="1.1" id="Layer_1" xmlns="http://www.w3.org/2000/svg" xmlns:xlink="http://www.w3.org/1999/xlink" x="0px" y="0px"
	 viewBox="0 0 120 120" style="enable-background:new 0 0 120 120;" xml:space="preserve">
<style type="text/css">
	.st0{fill:#FFFFFF;}
</style>
<g>
	<path class="st0" d="M51.3,82.5v19.1c0,2.2-0.8,4-2.3,5.6c-1.5,1.6-3.3,2.4-5.5,2.4c-2.2,0-4-0.8-5.5-2.4c-1.5-1.6-2.3-3.4-2.3-5.6
		V82.5h-7.9c-2.2,0-4-0.8-5.5-2.3c-1.5-1.5-2.3-3.3-2.3-5.5c0-2.1,0.8-3.9,2.3-5.4c1.5-1.5,3.3-2.3,5.5-2.3h7.7V49.3h-7.7
		c-2.2,0-4-0.8-5.5-2.3c-1.5-1.5-2.3-3.3-2.3-5.5c0-2.2,0.8-4.1,2.3-5.5c1.5-1.5,3.3-2.2,5.5-2.2h7.9V14.7c0-2.2,0.8-4,2.3-5.5
		C39.6,7.8,41.4,7,43.6,7c2.1,0,3.9,0.8,5.4,2.3c1.5,1.5,2.3,3.4,2.3,5.4v19.1h15.5V14.7c0-2.2,0.8-4,2.3-5.5
		C70.6,7.8,72.4,7,74.5,7c2.2,0,4,0.8,5.6,2.3c1.6,1.5,2.4,3.4,2.4,5.4v19.1h7.9c2.1,0,3.9,0.8,5.4,2.3c1.5,1.5,2.3,3.3,2.3,5.5
		c0,2.2-0.8,4.1-2.5,5.6c-1.7,1.5-3.4,2.3-5.3,2.3h-7.7V67h7.7c2,0,3.8,0.8,5.4,2.3c1.6,1.5,2.4,3.4,2.4,5.4c0,2-0.7,3.8-2.2,5.4
		c-1.4,1.6-3.3,2.4-5.6,2.4h-7.9v19.1c0,2.2-0.8,4-2.4,5.6c-1.6,1.6-3.4,2.4-5.6,2.4c-2.1,0-3.9-0.8-5.4-2.4
		c-1.5-1.6-2.3-3.4-2.3-5.6V82.5H51.3z M51.3,49.5V67h15.5V49.5H51.3z"/>
</g>
</svg>
