<?xml version="1.0" encoding="utf-8"?>
<!-- Generator: Adobe Illustrator 28.0.0, SVG Export Plug-In . SVG Version: 6.00 Build 0)  -->
<svg version="1.1" id="Capa_1" xmlns="http://www.w3.org/2000/svg" xmlns:xlink="http://www.w3.org/1999/xlink" x="0px" y="0px"
	 viewBox="0 0 800 800" style="enable-background:new 0 0 800 800;" xml:space="preserve">
<style type="text/css">
	.st0{fill:#FFFFFF;}
</style>
<g>
	<rect x="45" y="181" width="703" height="534"/>
	<path class="st0" d="M742.9,57.1H57.2C25.5,57.1,0,82.7,0,114.4v571.4c0,31.5,25.5,57.1,57.2,57.1h685.7
		c31.4,0,57.1-25.6,57.1-57.1V114.4C800,82.7,774.3,57.1,742.9,57.1z M273.2,100c15.8,0,28.5,12.8,28.5,28.6
		c0,15.8-12.8,28.5-28.5,28.5c-15.8,0-28.6-12.8-28.6-28.5C244.6,112.8,257.4,100,273.2,100z M185.7,100c15.8,0,28.6,12.8,28.6,28.6
		c0,15.8-12.8,28.5-28.6,28.5c-15.8,0-28.6-12.8-28.6-28.5C157.1,112.8,169.9,100,185.7,100z M99.9,100c15.9,0,28.6,12.8,28.6,28.6
		c0,15.8-12.7,28.5-28.6,28.5c-15.7,0-28.5-12.8-28.5-28.5C71.5,112.8,84.2,100,99.9,100z M742.9,685.8H57.2V200.6h685.7
		C742.9,200.6,742.9,685.8,742.9,685.8z"/>
	<path class="st0" d="M434.1,456.7L171.4,591.4v-39.1l223-110.9v-1.1l-223-111v-39.1l262.7,134.1V456.7z"/>
	<path class="st0" d="M628.5,420.5v36.1H488.7v-36.1H628.5z"/>
</g>
</svg>
