<?xml version="1.0" encoding="utf-8"?>
<!-- Generator: Adobe Illustrator 28.0.0, SVG Export Plug-In . SVG Version: 6.00 Build 0)  -->
<svg version="1.1" id="Layer_1" xmlns="http://www.w3.org/2000/svg" xmlns:xlink="http://www.w3.org/1999/xlink" x="0px" y="0px"
	 viewBox="0 0 800 800" style="enable-background:new 0 0 800 800;" xml:space="preserve">
<style type="text/css">
	.st0{fill:#FFD632;}
	.st1{fill:#333336;}
	.st2{fill:#ECEFE8;}
	.st3{fill:#878787;}
	.st4{fill:#D5D9CF;}
	.st5{fill:#6395AD;}
</style>
<path class="st0" d="M162.8,181.8h473.5v213.7H162.8V181.8z"/>
<path class="st1" d="M641.8,401H157.3V176.2h484.6L641.8,401L641.8,401z M168.3,389.9h462.4V187.3H168.3L168.3,389.9L168.3,389.9z"
	/>
<path class="st2" d="M250.4,71.5h298.5v273.4H250.4V71.5z"/>
<path class="st1" d="M554.3,350.6H244.8V66h309.5v284.6H554.3z M255.9,339.5h287.4V77.1H255.9L255.9,339.5L255.9,339.5z"/>
<path class="st3" d="M732.4,664.4H66.7c-19.2,0-34.8-15.6-34.8-34.8V341.4c0-19.2,15.6-34.8,34.8-34.8h665.8
	c19.2,0,34.8,15.6,34.8,34.8v288.2C767.3,648.8,751.7,664.4,732.4,664.4L732.4,664.4z"/>
<path class="st1" d="M732.4,669.9H66.7c-22.2,0-40.4-18.1-40.4-40.4V341.4c0-22.2,18.1-40.4,40.4-40.4h665.8
	c22.2,0,40.4,18.1,40.4,40.4v288.2C772.8,651.8,754.7,669.9,732.4,669.9L732.4,669.9z M66.7,312.1c-16.1,0-29.3,13.2-29.3,29.3
	v288.2c0,16.1,13.2,29.3,29.3,29.3h665.8c16.1,0,29.3-13.2,29.3-29.3V341.4c0-16.1-13.2-29.3-29.3-29.3H66.7z"/>
<path class="st4" d="M711.6,714.1H87.5l-11.4-49.7H723L711.6,714.1z"/>
<path class="st1" d="M716,719.7H83.1l-13.8-60.8h660.6L716,719.7z M91.9,708.6h615.3l8.8-38.7H83.1L91.9,708.6L91.9,708.6z"/>
<path class="st4" d="M647.7,664.4H151.4V549c0-19.8,16.1-35.9,35.9-35.9h424.4c19.8,0,35.9,16.1,35.9,35.9L647.7,664.4L647.7,664.4z
	"/>
<path class="st1" d="M653.2,669.9H145.9V549c0-22.8,18.6-41.5,41.5-41.5h424.4c22.8,0,41.5,18.6,41.5,41.5L653.2,669.9L653.2,669.9z
	 M157,658.9h485.2V549c0-16.7-13.6-30.4-30.4-30.4H187.4c-16.7,0-30.4,13.6-30.4,30.4V658.9z"/>
<path class="st5" d="M151.4,620.3h496.2v44.1H151.4V620.3z"/>
<path class="st1" d="M653.2,669.9H145.9v-55.2h507.3V669.9z M157,658.9h485.2v-33H157V658.9z"/>
<path class="st0" d="M463.2,465.6V362.7c0-12.9,10.5-23.5,23.5-23.5h221.4c12.9,0,23.5,10.5,23.5,23.5v102.8"/>
<path class="st1" d="M737,465.6h-11.1V362.7c0-9.9-8.1-17.9-17.9-17.9H486.5c-9.9,0-17.9,8.1-17.9,17.9v102.8h-11.1V362.7
	c0-16,13-29,29-29H708c16,0,29,13,29,29V465.6z"/>
<path class="st1" d="M30.2,460.1h735.4v11.1H30.2V460.1z"/>
<path class="st2" d="M650.7,404c0,12.8,10.4,23.2,23.2,23.2S697,416.8,697,404s-10.4-23.2-23.2-23.2S650.7,391.2,650.7,404z"/>
<path class="st1" d="M673.8,431.2c-15,0-27.2-12.2-27.2-27.2c0-15,12.2-27.2,27.2-27.2S701,389,701,404S688.8,431.2,673.8,431.2z
	 M673.8,384.9c-10.6,0-19.1,8.6-19.1,19.1c0,10.6,8.6,19.1,19.1,19.1S693,414.6,693,404C693,393.4,684.4,384.9,673.8,384.9z"/>
<path class="st2" d="M516,426.9l-16.7-16.7c-3.6-3.6-3.6-9.5,0-13.1l16.7-16.7c5.8-5.8,15.8-1.7,15.8,6.5v33.4
	C531.8,428.6,521.9,432.7,516,426.9z"/>
<path class="st1" d="M522.5,433.6c-3.4,0-6.7-1.3-9.4-3.9L496.4,413c-2.5-2.5-3.9-5.8-3.9-9.4c0-3.5,1.4-6.9,3.9-9.4l16.7-16.7
	c3.9-3.9,9.5-5,14.5-2.9c5,2.1,8.3,6.8,8.3,12.3v33.4c0,5.4-3.1,10.2-8.3,12.3C526,433.3,524.2,433.6,522.5,433.6L522.5,433.6z
	 M522.5,381.6c-1.1,0-2.4,0.3-3.6,1.5l-16.7,16.8c-1,1-1.5,2.3-1.5,3.7c0,1.4,0.5,2.7,1.5,3.7l16.7,16.7c2.3,2.3,4.9,1.4,5.7,1.1
	c0.8-0.3,3.2-1.6,3.2-4.8v-33.4c0-3.2-2.5-4.5-3.2-4.8C524.2,381.9,523.5,381.6,522.5,381.6L522.5,381.6z"/>
<path class="st2" d="M587.8,426.9l16.7-16.7c3.6-3.6,3.6-9.5,0-13.1l-16.7-16.8c-5.8-5.8-15.8-1.7-15.8,6.5v33.4
	C571.9,428.6,581.8,432.7,587.8,426.9z"/>
<path class="st1" d="M581.2,433.6c-1.7,0-3.5-0.3-5.1-1c-5-2.1-8.3-6.8-8.3-12.3v-33.4c0-5.4,3.1-10.2,8.3-12.3
	c5-2.1,10.7-1,14.5,2.9l16.7,16.7c5.2,5.2,5.2,13.6,0,18.8l-16.7,16.7C588,432.3,584.7,433.6,581.2,433.6L581.2,433.6z M581.2,381.6
	c-1,0-1.7,0.3-2.1,0.4c-0.8,0.3-3.2,1.6-3.2,4.8v33.4c0,3.2,2.5,4.5,3.2,4.8c0.8,0.3,3.4,1.2,5.7-1.1l16.7-16.7c2-2,2-5.3,0-7.4
	l-16.7-16.7C583.7,382,582.3,381.6,581.2,381.6L581.2,381.6z"/>
</svg>
