<svg id="Layer_1" data-name="Layer 1" xmlns="http://www.w3.org/2000/svg" viewBox="0 0 50 50"><defs><style>.cls-1{fill:#fff;}</style></defs><path class="cls-1" d="M11.76,11.33A26,26,0,0,0,8.34,25a26.29,26.29,0,0,0,3.42,13.64H8.17A23.8,23.8,0,0,1,4.31,25,24.08,24.08,0,0,1,8.17,11.33Z"/><path class="cls-1" d="M14.6,32a3,3,0,1,1,6.07,0,2.94,2.94,0,0,1-3,3.12A3,3,0,0,1,14.6,32Z"/><path class="cls-1" d="M34.3,13.23l-3.64,4.32v.07l5.4-1.08V20L30.63,19v.08l3.67,4.19L31.3,25l-1.95-5.23-.07,0L27.34,25,24.43,23.3l3.63-4.23L28,19,22.72,20V16.54L28,17.61l0-.07-3.57-4.29,3-1.7,1.88,5.19h.08l1.93-5.2Z"/><path class="cls-1" d="M38.24,38.67A26.4,26.4,0,0,0,41.66,25a26.12,26.12,0,0,0-3.42-13.64h3.59A23.55,23.55,0,0,1,45.69,25a24.15,24.15,0,0,1-3.86,13.68Z"/></svg>