<?xml version="1.0" encoding="utf-8"?>
<!-- Generator: Adobe Illustrator 28.0.0, SVG Export Plug-In . SVG Version: 6.00 Build 0)  -->
<svg version="1.1" id="Layer_1" xmlns="http://www.w3.org/2000/svg" xmlns:xlink="http://www.w3.org/1999/xlink" x="0px" y="0px"
	 viewBox="0 0 512 512" style="enable-background:new 0 0 512 512;" xml:space="preserve">
<style type="text/css">
	.st0{fill:#A8A8A8;}
	.st1{fill:#FFFFFF;}
	.st2{fill:#FBB03B;}
</style>
<g>
	<polygon class="st0" points="189.8,253.6 428.1,15.3 446.8,34 283.6,197.1 264.8,253.4 227.2,291 	"/>
	<path class="st0" d="M233.5,284.7l25.1-25.1l25.1-62.6L465.2,15.4l0,0c31.1,31.1,31.1,81.6,0,112.7L264.8,328.6"/>
</g>
<polygon class="st1" points="264.8,253.4 282.6,196.1 465.2,15.4 477.7,40.4 "/>
<g>
	<path class="st2" d="M264.7,366c-10.4-10.4-10.5-27.3-0.1-37.7l18.8-18.8c10.7-10.7,10.5-28.2-1-38.5c-10.7-9.6-27.3-8-37.5,2.1
		L152,366.1c-31.7,31.7-31.1,83.3,1.6,114.3c30.2,28.6,79.2,28.6,109.5,0C295.8,449.4,296.3,397.7,264.7,366z M177.1,453.8
		c-17.3-17.3-17.3-45.3,0-62.6s45.3-17.3,62.6,0c17.3,17.3,17.3,45.3,0,62.6C222.4,471.1,194.4,471.1,177.1,453.8z"/>
	<path class="st2" d="M37.7,255c-28.6,30.2-28.6,79.3,0,109.5c31,32.7,82.7,33.3,114.3,1.6l92.9-92.9c10.2-10.2,11.8-26.8,2.1-37.5
		c-10.3-11.4-27.8-11.7-38.5-1l-18.8,18.8c-10.4,10.4-27.3,10.3-37.7-0.1C120.5,221.8,68.7,222.3,37.7,255z M64.3,278.4
		c17.3-17.3,45.3-17.3,62.6,0s17.3,45.3,0,62.6s-45.3,17.3-62.6,0S47,295.7,64.3,278.4z"/>
</g>
<path d="M171,459.9c-20.6-20.6-20.6-54.2,0-74.8c20.6-20.6,54.2-20.6,74.8,0c20.6,20.6,20.6,54.2,0,74.8S191.6,480.5,171,459.9z
	 M233.6,397.3c-13.9-13.9-36.5-13.9-50.4,0c-13.9,13.9-13.9,36.5,0,50.4c13.9,13.9,36.5,13.9,50.4,0
	C247.5,433.8,247.5,411.2,233.6,397.3z"/>
<rect x="249.9" y="287.9" transform="matrix(0.7071 -0.7071 0.7071 0.7071 -134.3414 269.8036)" class="st1" width="17.3" height="18.4"/>
<path d="M58.2,347.2c-20.6-20.6-20.6-54.2,0-74.8c20.6-20.6,54.2-20.6,74.8,0c20.6,20.6,20.6,54.2,0,74.8
	C112.4,367.8,78.9,367.8,58.2,347.2z M120.9,284.5c-13.9-13.9-36.5-13.9-50.4,0c-13.9,13.9-13.9,36.5,0,50.4
	c13.9,13.9,36.5,13.9,50.4,0C134.8,321.1,134.8,298.5,120.9,284.5z"/>
<g>
	
		<rect x="212.5" y="250.5" transform="matrix(0.7071 -0.7071 0.7071 0.7071 -118.8459 232.3942)" class="st1" width="17.3" height="18.4"/>
	
		<rect x="319" y="218.7" transform="matrix(0.7071 -0.7071 0.7071 0.7071 -65.215 298.4367)" class="st1" width="17.3" height="18.4"/>
</g>
<path d="M296.7,423.7c0.3-24.1-8.9-46.7-25.9-63.7c-7-7-7-18.4,0-25.4l200.4-200.4c34.4-34.4,34.4-90.5,0-124.9l-6.1-6.1l-189,189
	L258.3,237c-1.3-2.5-2.9-4.9-4.9-7.1c-4.8-5.4-11-9-17.8-10.7L433.8,21L421.6,8.8L183.3,247l0.2,0.2l0,0c-7,7-18.4,7-25.4,0
	c-17-17-39.6-26.2-63.7-25.9c-24.1,0.3-46.4,10.2-63,27.7c-31.7,33.5-31.7,87.9,0,121.4c0.6,0.6,1.2,1.2,1.8,1.8
	c16.4,16.4,38,25.5,61.2,25.8c10.6,0.1,20.9-1.6,30.6-5c-3.4,9.7-5.1,20-5,30.6c0.3,23.2,9.5,44.9,25.8,61.2
	c0.6,0.6,1.2,1.2,1.8,1.8c33.5,31.7,87.9,31.7,121.4,0C286.6,470.2,296.4,447.8,296.7,423.7z M227.4,278.6L145.9,360
	c-13.7,13.7-31.9,21.1-51.3,20.8c-19.4-0.3-37.4-8.2-50.7-22.3c-25.5-26.9-25.5-70.7,0-97.6c13.3-14.1,31.3-22,50.7-22.3
	c19.4-0.3,37.6,7.1,51.3,20.8c13.7,13.7,36.1,13.7,49.8,0l18.8-18.8c3.5-3.5,8.2-5.4,13.2-5.2c4.6,0.1,8.9,2,12.2,5.2
	c0.2,0.2,0.5,0.5,0.7,0.7c6.3,7,5.5,18.5-1.7,25.7L227.4,278.6L227.4,278.6z M320.7,184.4l-38.1,38.1l8.2-20.6L464.8,28
	c1.9,2.4,3.5,4.8,5,7.3L333.7,171.4l12.2,12.2L477.2,52.4c6.8,24,0.7,50.8-18.1,69.7L298.9,282.2c-1.7-6.7-5.3-12.7-10.6-17.5
	c-4.5-4.1-9.9-6.7-15.6-7.9l60.2-60.2L320.7,184.4L320.7,184.4z M257.2,474.2c-26.9,25.5-70.7,25.5-97.6,0
	c-14.1-13.3-22-31.3-22.3-50.7c-0.3-19.4,7.1-37.6,20.8-51.3l81.4-81.4l11.5-11.5c7.2-7.2,18.8-8,25.7-1.7c0.2,0.2,0.5,0.4,0.7,0.7
	c3.3,3.3,5.1,7.6,5.2,12.2c0.1,5-1.7,9.6-5.2,13.2l-18.8,18.8c-13.7,13.7-13.7,36.1,0,49.8c13.7,13.7,21.1,31.9,20.8,51.3
	C279.2,442.8,271.3,460.8,257.2,474.2z"/>
</svg>
