<?xml version="1.0" encoding="utf-8"?>
<!-- Generator: Adobe Illustrator 28.0.0, SVG Export Plug-In . SVG Version: 6.00 Build 0)  -->
<svg version="1.1" id="Layer_1" xmlns="http://www.w3.org/2000/svg" xmlns:xlink="http://www.w3.org/1999/xlink" x="0px" y="0px"
	 viewBox="0 0 120 120" style="enable-background:new 0 0 120 120;" xml:space="preserve">
<style type="text/css">
	.st0{fill:#FFFFFF;}
</style>
<g>
	<path class="st0" d="M30.1,52.4V68c0,2.1,0.6,3.9,1.9,5.5l9.6,12.4c0.5,0.5,0.7,1.3,0.7,2.3c0,1.3-0.4,2.3-1.3,3.1
		c-0.8,0.7-1.8,1.1-2.9,1.1c-1.2,0-2.1-0.4-2.8-1.3l-9.8-12.5c-2.5-3-3.7-6.3-3.7-9.9V51.5c0-3.4,1.2-6.7,3.7-9.8l9.8-12.5
		c0.7-0.8,1.6-1.3,2.7-1.3s2.1,0.4,3,1.1c0.9,0.7,1.3,1.8,1.3,3.1c0,1-0.3,1.7-0.8,2.3L32,46.7C30.7,48.4,30.1,50.3,30.1,52.4z"/>
	<path class="st0" d="M90,68V52.3c0-2-0.7-3.9-2-5.6l-9.7-12.3c-0.5-0.6-0.7-1.4-0.7-2.3c0-1.3,0.4-2.3,1.3-3.1
		c0.9-0.8,1.8-1.2,2.9-1.2c1.1,0,2,0.4,2.7,1.3l9.9,12.5c2.4,3,3.6,6.3,3.6,9.8v17.4c0,3.6-1.2,6.9-3.6,9.9l-9.9,12.5
		c-0.7,0.8-1.6,1.3-2.8,1.3c-1.1,0-2.1-0.4-2.9-1.2c-0.8-0.8-1.3-1.8-1.3-3.1c0-1,0.2-1.7,0.7-2.3L88,73.6C89.3,72,90,70.1,90,68z"
		/>
</g>
</svg>
