<svg id="Layer_1" data-name="Layer 1" xmlns="http://www.w3.org/2000/svg" viewBox="0 0 50 50"><defs><style>.cls-1{fill:#f15a24;}.cls-2{fill:#f2f2f2;}.cls-3{fill:aqua;}</style></defs><path class="cls-1" d="M2.28,15.49H6.09V29.14h6.7v3.19H2.28Z"/><path class="cls-2" d="M20.23,24.5V27H13.69V24.5Z"/><path class="cls-2" d="M34.45,26.84l-12,5.49V29.69l9.29-4v-.05l-9.29-4V19l12,5.49Z"/><path class="cls-3" d="M37.66,28.4a9.46,9.46,0,0,0,4.23,1.06c1.75,0,2.67-.73,2.67-1.83s-.8-1.65-2.82-2.36c-2.81-1-4.64-2.53-4.64-5,0-2.87,2.41-5.05,6.37-5.05a10.08,10.08,0,0,1,4.3.84l-.84,3.06a8.07,8.07,0,0,0-3.52-.8C41.75,18.33,41,19.1,41,20c0,1.07.94,1.54,3.12,2.37,3,1.11,4.36,2.66,4.36,5,0,2.81-2.15,5.23-6.79,5.23a10.86,10.86,0,0,1-4.76-1.05Z"/></svg>