<svg id="Layer_1" data-name="Layer 1" xmlns="http://www.w3.org/2000/svg" viewBox="0 0 50 50"><defs><style>.cls-1{fill:#ccc;}.cls-2{fill:aqua;}</style></defs><title>SetEnvVariable</title><path class="cls-1" d="M48.5,44H1.5V11.08A7.09,7.09,0,0,1,8.58,4H41.42a7.09,7.09,0,0,1,7.08,7.08ZM4.5,14.08V41h41V14.08"/><path class="cls-2" d="M20.37,36.64a1.05,1.05,0,0,1-.34.28.81.81,0,0,1-.37.09,1.33,1.33,0,0,1-.57-.14,2.68,2.68,0,0,1-.6-.44,6.71,6.71,0,0,1-.84-1,9.12,9.12,0,0,1-.72-1.27,14.39,14.39,0,0,1-.57-1.44q-.24-.76-.42-1.56c-.11-.53-.2-1.07-.26-1.61a14.39,14.39,0,0,1-.09-1.59,17.27,17.27,0,0,1,1-5.84,16.93,16.93,0,0,1,1.29-2.68A16.24,16.24,0,0,1,19.72,17l.42.33a13.89,13.89,0,0,0-1.49,2.22A14.63,14.63,0,0,0,17.58,22a17,17,0,0,0-.66,2.64,16.78,16.78,0,0,0-.22,2.74A15.81,15.81,0,0,0,16.79,29a13.94,13.94,0,0,0,.26,1.68,14.17,14.17,0,0,0,.47,1.66,9.91,9.91,0,0,0,.7,1.56,9.55,9.55,0,0,0,.93,1.41,7.94,7.94,0,0,0,1.2,1.19Z"/><path class="cls-2" d="M21,25l.77-.25.66-.19.52-.12a1.77,1.77,0,0,1,.35,0,1.27,1.27,0,0,1,.34,0,.85.85,0,0,1,.31.21,1.62,1.62,0,0,1,.29.42,3.7,3.7,0,0,1,.29.7l.35,1c.12.31.24.62.35.92.25-.49.49-1,.74-1.36a8.51,8.51,0,0,1,.75-1,3.55,3.55,0,0,1,.77-.67,1.5,1.5,0,0,1,.8-.23,1.27,1.27,0,0,1,.46.07,1.23,1.23,0,0,1,.34.21,1,1,0,0,1,.21.3,1.13,1.13,0,0,1,.06.36,1.08,1.08,0,0,1-.49.9h0a1.45,1.45,0,0,0-.22-.21,1.27,1.27,0,0,0-.23-.12l-.23-.06H28a1.26,1.26,0,0,0-.67.19,2.82,2.82,0,0,0-.62.55,6.18,6.18,0,0,0-.58.82c-.19.32-.38.67-.57,1,.19.5.35.95.51,1.33s.3.72.44,1a5,5,0,0,0,.4.71,2.53,2.53,0,0,0,.39.45,1.33,1.33,0,0,0,.41.24,1.85,1.85,0,0,0,.48.07h.32l.3,0a2.26,2.26,0,0,0,.3-.08l.35-.11.12.33a5.15,5.15,0,0,1-.61.36,5.24,5.24,0,0,1-.65.27,3.83,3.83,0,0,1-.64.18,3.09,3.09,0,0,1-.58.06,1.26,1.26,0,0,1-.69-.19,1.86,1.86,0,0,1-.57-.58,7.3,7.3,0,0,1-.55-1c-.18-.41-.38-.92-.61-1.5-.27.49-.55.94-.82,1.35A7.36,7.36,0,0,1,23,32.29a3.38,3.38,0,0,1-.82.69,1.7,1.7,0,0,1-.84.25,1.52,1.52,0,0,1-.45-.07,1,1,0,0,1-.32-.19.86.86,0,0,1-.2-.27,1,1,0,0,1,0-.73,1.41,1.41,0,0,1,.27-.4,3.41,3.41,0,0,0,.56.17,2.6,2.6,0,0,0,.46,0,1.54,1.54,0,0,0,.72-.18,3.18,3.18,0,0,0,.67-.53,5.85,5.85,0,0,0,.65-.83,12.08,12.08,0,0,0,.65-1.09l-.21-.58-.23-.63-.26-.7-.29-.8a3.63,3.63,0,0,0-.26-.58,1.15,1.15,0,0,0-.29-.35.68.68,0,0,0-.32-.18,1.46,1.46,0,0,0-.38,0,2.58,2.58,0,0,0-.44,0l-.56.1Z"/><path class="cls-2" d="M29.63,17.36a1.05,1.05,0,0,1,.34-.28.81.81,0,0,1,.37-.09,1.33,1.33,0,0,1,.57.14,2.68,2.68,0,0,1,.6.44,6.71,6.71,0,0,1,.84,1,9.08,9.08,0,0,1,.71,1.27,14.39,14.39,0,0,1,.57,1.44,13.79,13.79,0,0,1,.42,1.56c.12.53.2,1.07.27,1.61s.09,1.07.09,1.59a17.27,17.27,0,0,1-1,5.84,16.93,16.93,0,0,1-1.29,2.68A16.24,16.24,0,0,1,30.28,37l-.42-.33a13.89,13.89,0,0,0,1.49-2.22A14.63,14.63,0,0,0,32.42,32a17,17,0,0,0,.66-2.64,16.78,16.78,0,0,0,.22-2.74A15.81,15.81,0,0,0,33.21,25,13.94,13.94,0,0,0,33,23.28a13.49,13.49,0,0,0-.47-1.65,12.16,12.16,0,0,0-.7-1.56,9.55,9.55,0,0,0-.93-1.41,8.51,8.51,0,0,0-1.2-1.2Z"/></svg>