<?xml version="1.0" encoding="iso-8859-1"?>
<!-- Uploaded to: SVG Repo, www.svgrepo.com, Generator: SVG Repo Mixer Tools -->
<svg height="800px" width="800px" version="1.1" id="Layer_1" xmlns="http://www.w3.org/2000/svg" xmlns:xlink="http://www.w3.org/1999/xlink" 
	 viewBox="0 0 512 512" xml:space="preserve">
<polygon style="fill:#20AAB0;" points="130.45,365.714 210.989,438.857 256,438.857 278.506,365.714 256,292.571 210.989,292.571 
	"/>
<polygon style="fill:#41BBBE;" points="4.899,292.571 4.899,438.857 49.91,438.857 130.45,365.714 49.91,292.571 "/>
<polygon style="fill:#20AAB0;" points="130.45,365.714 4.899,438.857 130.45,512 152.955,438.857 "/>
<polygon style="fill:#A0DDDF;" points="256,292.571 175.461,219.429 130.45,219.429 4.899,292.571 130.45,365.714 "/>
<polygon style="fill:#14858A;" points="130.45,365.714 130.45,512 256,438.857 "/>
<polygon style="fill:#A0DDDF;" points="130.45,73.143 130.45,219.429 175.461,219.429 256,146.286 175.461,73.143 "/>
<g>
	<polygon style="fill:#71CCCE;" points="130.45,219.429 256,292.571 278.506,219.429 256,146.286 	"/>
	<polygon style="fill:#71CCCE;" points="301.011,292.571 256,292.571 256,438.857 301.011,438.857 381.55,365.714 	"/>
</g>
<polygon style="fill:#41BBBE;" points="507.101,292.571 507.101,438.857 462.09,438.857 381.55,365.714 462.09,292.571 "/>
<polygon style="fill:#20AAB0;" points="381.55,365.714 507.101,438.857 381.55,512 359.045,438.857 "/>
<polygon style="fill:#A0DDDF;" points="256,292.571 336.539,219.429 381.55,219.429 507.101,292.571 381.55,365.714 "/>
<polygon style="fill:#41BBBE;" points="381.55,365.714 381.55,512 256,438.857 "/>
<polygon style="fill:#71CCCE;" points="381.55,219.429 381.55,73.143 336.539,73.143 256,146.286 336.539,219.429 "/>
<polygon style="fill:#D0EEEF;" points="381.55,73.143 256,0 130.45,73.143 256,146.286 "/>
<polygon style="fill:#41BBBE;" points="256,146.286 256,292.571 381.55,219.429 "/>
</svg>