<?xml version="1.0" encoding="utf-8"?>
<!-- Generator: Adobe Illustrator 28.0.0, SVG Export Plug-In . SVG Version: 6.00 Build 0)  -->
<svg version="1.1" id="Layer_1" xmlns="http://www.w3.org/2000/svg" xmlns:xlink="http://www.w3.org/1999/xlink" x="0px" y="0px"
	 viewBox="0 0 800 800" style="enable-background:new 0 0 800 800;" xml:space="preserve">
<style type="text/css">
	.st0{fill-rule:evenodd;clip-rule:evenodd;fill:#FF5A27;}
</style>
<path class="st0" d="M234.7,45.4l4.6-1.9h471.4l4.7,1.9l39.3,39.3l1.9,4.6v471.4l-1.9,4.7l-39.3,39.3l-4.6,1.9h-244V600
	c0-17.1-6.5-33.5-18.3-45.8h255.8V95.8H245.8v242.7c-17.1-4.2-34.7-6.1-52.4-5.5V89.3l1.9-4.7L234.7,45.4L234.7,45.4z M552.4,360.4
	l-93.6,93.3c-3.1-5.7-7-11-11.6-15.6l-14-14l74.5-74.5L387.5,226.6l27.1-27.8l137.8,137.8V360.4z M320.7,494l44-44l35.3,35.3
	l-57.3,57.3l7.3,7.3v50h50v48.3h-50v3.3c-2.5,16.6-7.1,32.9-13.7,48.3l63.7,64.7L364.7,800l-55-55c-26.5,33.8-66.7,54-109.7,55
	c-42.9-1-83.2-21.2-109.7-55l-55,55L0,764.7L63.7,700c-6.5-15.1-11.1-31-13.7-47.3V650H0v-50h50v-50l7.3-7.3L0,485.3L35.3,450l44,44
	c16.6-66.6,84-107.2,150.6-90.7C274.7,414.4,309.6,449.3,320.7,494z M253,472c-29.3-29.3-76.8-29.3-106.1,0
	c-14.1,14.1-22,33.1-22,53h150C275,505.1,267.1,486,253,472L253,472z M268,718c18.2-18.2,29.6-42.3,32-68v-75H100v75
	c5,53,47,95,100,100C225.7,747.6,249.7,736.2,268,718L268,718z"/>
</svg>
