<?xml version="1.0" encoding="iso-8859-1"?>
<!-- Uploaded to: SVG Repo, www.svgrepo.com, Generator: SVG Repo Mixer Tools -->
<svg height="800px" width="800px" version="1.1" id="Layer_1" xmlns="http://www.w3.org/2000/svg" xmlns:xlink="http://www.w3.org/1999/xlink" 
	 viewBox="0 0 476.8 476.8" xml:space="preserve">
<polygon style="fill:#EA1F0A;" points="30.4,130.4 230.4,245.6 230.4,476.8 30.4,361.6 "/>
<polyline style="fill:#D81107;" points="31.2,132.8 230.4,245.6 230.4,470.4 "/>
<polygon style="fill:#EF683F;" points="238.4,229.6 40,115.2 238.4,0 436.8,115.2 "/>
<polyline style="fill:#E24F2D;" points="238.4,0 436.8,115.2 238.4,229.6 "/>
<ellipse style="fill:#FFFFFF;" cx="238.4" cy="115.2" rx="44" ry="30.4"/>
<path style="fill:#E5E5E5;" d="M238.4,84.8c24,0,44,13.6,44,30.4s-20,29.6-44,29.6"/>
<polygon style="fill:#AA2011;" points="246.4,245.6 446.4,130.4 446.4,361.6 246.4,476.8 "/>
<polyline style="fill:#99170D;" points="246.4,470.4 246.4,245.6 445.6,131.2 "/>
<ellipse style="fill:#FFFFFF;" cx="400.8" cy="223.2" rx="20" ry="28.8"/>
<path style="fill:#E5E5E5;" d="M381.6,223.2c0-16,8.8-28.8,20-28.8s20,12.8,20,28.8"/>
<ellipse style="fill:#FFFFFF;" cx="352.8" cy="300.8" rx="20" ry="28.8"/>
<path style="fill:#E5E5E5;" d="M332.8,300.8c0-16,8.8-28.8,20-28.8s20,12.8,20,28.8"/>
<ellipse style="fill:#FFFFFF;" cx="304" cy="378.4" rx="20" ry="28.8"/>
<path style="fill:#E5E5E5;" d="M284.8,378.4c0-16,8.8-28.8,20-28.8s20,12.8,20,28.8"/>
<ellipse style="fill:#FFFFFF;" cx="94.4" cy="249.6" rx="20.8" ry="30.4"/>
<path style="fill:#E5E5E5;" d="M73.6,249.6c0-16.8,8.8-30.4,20.8-30.4s20.8,13.6,20.8,30.4"/>
<ellipse style="fill:#FFFFFF;" cx="156.8" cy="352" rx="20.8" ry="30.4"/>
<path style="fill:#E5E5E5;" d="M136,352c0-16.8,8.8-30.4,20.8-30.4s20.8,13.6,20.8,30.4"/>
</svg>