<?xml version="1.0" encoding="utf-8"?>
<!-- Generator: Adobe Illustrator 28.0.0, SVG Export Plug-In . SVG Version: 6.00 Build 0)  -->
<svg version="1.1" id="bring-front-2" xmlns="http://www.w3.org/2000/svg" xmlns:xlink="http://www.w3.org/1999/xlink" x="0px"
	 y="0px" viewBox="0 0 800 800" style="enable-background:new 0 0 800 800;" xml:space="preserve">
<style type="text/css">
	.st0{fill:#2CA9BC;}
	.st1{fill:#FFFFFF;}
</style>
<path id="secondary" class="st0" d="M466.7,400c-36.8,0-66.7-29.8-66.7-66.7v-200c0-36.8,29.8-66.7,66.7-66.7h200
	c36.8,0,66.7,29.8,66.7,66.7v200c0,36.8-29.8,66.7-66.7,66.7H466.7z M400,666.7v-200c0-36.8-29.8-66.7-66.7-66.7h-200
	c-36.8,0-66.7,29.8-66.7,66.7v200c0,36.8,29.8,66.7,66.7,66.7h200C370.2,733.3,400,703.5,400,666.7z"/>
<path id="primary" class="st1" d="M266.7,200h266.7c36.8,0,66.7,29.8,66.7,66.7v266.7c0,36.8-29.8,66.7-66.7,66.7H266.7
	c-36.8,0-66.7-29.8-66.7-66.7V266.7C200,229.8,229.8,200,266.7,200z"/>
</svg>
