<?xml version="1.0" encoding="utf-8"?>
<!-- Generator: Adobe Illustrator 28.0.0, SVG Export Plug-In . SVG Version: 6.00 Build 0)  -->
<svg version="1.1" id="Layer_1" xmlns="http://www.w3.org/2000/svg" xmlns:xlink="http://www.w3.org/1999/xlink" x="0px" y="0px"
	 viewBox="0 0 300 300" style="enable-background:new 0 0 300 300;" xml:space="preserve">
<style type="text/css">
	.st0{fill:#97FCDA;}
	.st1{fill:#26D399;}
	.st2{fill:none;stroke:#26D399;stroke-width:8;stroke-miterlimit:10;}
	.st3{fill-rule:evenodd;clip-rule:evenodd;fill:#00BF86;}
	.st4{fill:#00BF86;fill-opacity:0.2;stroke:#26D399;stroke-width:8;stroke-miterlimit:10;}
</style>
<g>
	<path class="st0" d="M53,266.2c-18.4,0-34.6-13.1-38.4-31.2c-4.5-21.2,9.1-42.2,30.3-46.7c2.7-0.6,5.5-0.9,8.2-0.9
		c18.4,0,34.6,13.1,38.4,31.2c4.5,21.2-9.1,42.2-30.3,46.7C58.5,266,55.7,266.2,53,266.2z"/>
	<g>
		<path class="st1" d="M53.1,183.5l0,8h0c16.6,0,31.1,11.8,34.5,28c4,19.1-8.2,37.9-27.2,41.9c-2.4,0.5-4.9,0.8-7.4,0.8
			c-16.6,0-31.1-11.8-34.5-28c-4-19.1,8.2-37.9,27.2-41.9c2.4-0.5,4.9-0.8,7.4-0.8L53.1,183.5 M53.1,183.5c-3,0-6,0.3-9,1
			c-23.4,5-38.4,28-33.4,51.4c4.3,20.4,22.3,34.4,42.4,34.4c3,0,6-0.3,9-1c23.4-5,38.4-28,33.4-51.4
			C91.1,197.5,73.1,183.5,53.1,183.5L53.1,183.5z"/>
	</g>
</g>
<g>
	<path class="st0" d="M117.8,91.2c-18.4,0-34.6-13.1-38.4-31.2c-2.2-10.3-0.2-20.8,5.5-29.6c5.7-8.8,14.5-14.9,24.8-17
		c2.7-0.6,5.5-0.9,8.2-0.9c18.4,0,34.6,13.1,38.4,31.2c4.5,21.2-9.1,42.2-30.3,46.7C123.3,91,120.6,91.2,117.8,91.2z"/>
	<g>
		<path class="st1" d="M117.9,8.5l0,8h0c16.6,0,31.1,11.8,34.5,28c4,19.1-8.2,37.9-27.2,41.9c-2.4,0.5-4.9,0.8-7.4,0.8
			c-16.6,0-31.1-11.8-34.5-28c-4-19.1,8.2-37.9,27.2-41.9c2.4-0.5,4.9-0.8,7.4-0.8L117.9,8.5 M117.9,8.5c-3,0-6,0.3-9,1
			c-23.4,5-38.4,28-33.4,51.4c4.3,20.4,22.3,34.4,42.4,34.4c3,0,6-0.3,9-1c23.4-5,38.4-28,33.4-51.4C156,22.5,138,8.5,117.9,8.5
			L117.9,8.5z"/>
	</g>
</g>
<g>
	<path class="st0" d="M261.9,221.3c-8.5,0-16-6.1-17.7-14.4c-1-4.7-0.1-9.6,2.5-13.7c2.6-4.1,6.7-6.9,11.5-7.9
		c1.3-0.3,2.5-0.4,3.8-0.4c8.5,0,16,6.1,17.8,14.4c1,4.7,0.1,9.6-2.5,13.7c-2.6,4.1-6.7,6.9-11.5,7.9
		C264.5,221.2,263.2,221.3,261.9,221.3z"/>
	<g>
		<path class="st1" d="M262,181v8c6.6,0,12.5,4.7,13.8,11.2c1.6,7.6-3.3,15.2-10.9,16.8c-1,0.2-2,0.3-3,0.3
			c-6.6,0-12.5-4.7-13.8-11.2c-0.8-3.7-0.1-7.5,2-10.7c2.1-3.2,5.2-5.4,8.9-6.1c1-0.2,2-0.3,3-0.3L262,181 M262,181
			c-1.5,0-3.1,0.2-4.6,0.5c-12,2.5-19.6,14.3-17.1,26.3c2.2,10.4,11.4,17.6,21.7,17.6c1.5,0,3.1-0.2,4.6-0.5
			c12-2.5,19.6-14.3,17.1-26.3C281.4,188.1,272.2,181,262,181L262,181z"/>
	</g>
</g>
<g>
	<path class="st0" d="M169.1,192.2c-10.9,0-20.5-7.8-22.7-18.4c-2.7-12.5,5.4-24.9,17.9-27.6c1.6-0.3,3.2-0.5,4.9-0.5
		c10.9,0,20.5,7.8,22.7,18.4c2.7,12.5-5.4,24.9-17.9,27.6C172.3,192.1,170.7,192.2,169.1,192.2z"/>
	<g>
		<path class="st1" d="M169.1,141.7v8c9,0,16.9,6.4,18.8,15.3c1.1,5,0.1,10.2-2.7,14.5c-2.8,4.3-7.1,7.3-12.2,8.3
			c-1.3,0.3-2.7,0.4-4,0.4c-9,0-16.9-6.4-18.8-15.3c-1.1-5-0.1-10.2,2.7-14.5c2.8-4.3,7.1-7.3,12.2-8.3c1.3-0.3,2.7-0.4,4-0.4
			L169.1,141.7 M169.1,141.7c-1.9,0-3.8,0.2-5.7,0.6c-14.7,3.1-24.1,17.6-21,32.3c2.7,12.8,14,21.6,26.6,21.6c1.9,0,3.8-0.2,5.7-0.6
			c14.7-3.1,24.1-17.6,21-32.3C193,150.5,181.7,141.7,169.1,141.7L169.1,141.7z"/>
	</g>
</g>
<g>
	<path class="st0" d="M245.1,98c-10.9,0-20.5-7.8-22.7-18.4c-2.7-12.5,5.4-24.9,17.9-27.6c1.6-0.3,3.2-0.5,4.9-0.5
		c10.9,0,20.5,7.8,22.7,18.4c2.7,12.5-5.4,24.9-17.9,27.6C248.4,97.8,246.7,98,245.1,98z"/>
	<g>
		<path class="st1" d="M245.2,47.5v8c9,0,16.9,6.4,18.8,15.3c2.2,10.4-4.5,20.6-14.8,22.8c-1.3,0.3-2.7,0.4-4,0.4
			c-9,0-16.9-6.4-18.8-15.3c-1.1-5-0.1-10.2,2.7-14.5c2.8-4.3,7.1-7.3,12.2-8.3c1.3-0.3,2.7-0.4,4-0.4L245.2,47.5 M245.2,47.5
			c-1.9,0-3.8,0.2-5.7,0.6c-14.7,3.1-24.1,17.6-21,32.3c2.7,12.8,14,21.6,26.6,21.6c1.9,0,3.8-0.2,5.7-0.6
			c14.7-3.1,24.1-17.6,21-32.3C269.1,56.2,257.8,47.4,245.2,47.5L245.2,47.5z"/>
	</g>
</g>
<g>
	<line class="st2" x1="87" y1="211" x2="150" y2="180"/>
	<line class="st3" x1="87" y1="211" x2="150" y2="180"/>
</g>
<line class="st4" x1="160.5" y1="149.5" x2="134.5" y2="84.5"/>
<line class="st4" x1="156.8" y1="57.1" x2="223.2" y2="67.5"/>
<line class="st4" x1="249.5" y1="94.5" x2="259.5" y2="185.5"/>
</svg>
