<?xml version="1.0" encoding="iso-8859-1"?>
<!-- Uploaded to: SVG Repo, www.svgrepo.com, Generator: SVG Repo Mixer Tools -->
<svg height="800px" width="800px" version="1.1" id="Layer_1" xmlns="http://www.w3.org/2000/svg" xmlns:xlink="http://www.w3.org/1999/xlink" 
	 viewBox="0 0 460 460" xml:space="preserve">
<g id="XMLID_2502_">
	<path id="XMLID_1830_" style="fill:#A59E95;" d="M100,65H80V55c0-5.523,4.477-10,10-10s10,4.477,10,10V65z"/>
	<path id="XMLID_1828_" style="fill:#A59E95;" d="M460,125v60h-20h-40h-20v-20v-60h60C451.046,105,460,113.954,460,125z"/>
	<path id="XMLID_1422_" style="fill:#EDE6D3;" d="M460,180.867v48.266c0,43.733-24.233,81.802-60,101.526V385
		c0,16.569-13.431,30-30,30h-30h-40c-5.523,0-10-4.477-10-10c0-11.046,8.954-20,20-20h13.473c6.153,0,10.846-5.504,9.874-11.58
		l-4.716-29.476c-16.798-2.268-32.963-8.19-47.313-17.448l-72.211-46.588L190,385c0,16.569-13.431,30-30,30h-30H90
		c-5.523,0-10-4.477-10-10c0-11.046,8.954-20,20-20h13.473H120c5.523,0,10-4.477,10-10l24.442-130.36L12.965,153.364
		C4.883,148.15,0,139.189,0,129.572l0,0c0-9.144,4.416-17.725,11.857-23.041l56.049-40.035C69.22,65.557,70,64.042,70,62.427V55
		c0-5.743,4.842-10.355,10.666-9.978C85.981,45.366,90,50.016,90,55.343V60c0,2.761,2.239,5,5,5h249.133
		C408.125,65,460,116.875,460,180.867z"/>
	<path id="XMLID_996_" style="fill:#E2DAC7;" d="M460,225v4.133C460,293.125,408.125,345,344.133,345l0,0
		c-22.282,0-44.091-6.425-62.815-18.504L12.965,153.364C4.883,148.15,0,139.189,0,129.572l0,0c0-1.545,0.136-3.072,0.382-4.571l0,0
		c50.343,0,99.618,14.516,141.92,41.808l139.016,89.688C300.042,268.575,321.851,275,344.133,275l0,0
		c33.256,0,63.236-14.012,84.364-36.454C436.665,229.871,448.084,225,460,225z"/>
	<path id="XMLID_1816_" style="fill:#66605A;" d="M70,90c0,2.761-2.239,5-5,5s-5-2.239-5-5s2.239-5,5-5S70,87.239,70,90z"/>
	<path id="XMLID_2240_" style="fill:#827B73;" d="M20,100.714V125c0,5.523-4.477,10-10,10H0.528C0.182,133.229,0,131.413,0,129.572
		l0,0c0-9.144,4.416-17.725,11.857-23.041L20,100.714z"/>
	<path id="XMLID_1819_" style="fill:#66605A;" d="M0.382,125c-0.113,0.688-0.196,1.384-0.26,2.082
		c-0.009,0.107-0.021,0.213-0.029,0.32C0.036,128.122,0,128.844,0,129.572l0,0c0,0.538,0.021,1.073,0.051,1.607
		c0.011,0.186,0.026,0.37,0.041,0.555c0.026,0.347,0.059,0.692,0.099,1.036c0.025,0.216,0.05,0.433,0.079,0.648
		c0.046,0.335,0.101,0.667,0.159,0.999c0.034,0.194,0.062,0.39,0.1,0.583l0,0H10c5.273,0,9.583-4.085,9.963-9.261
		C13.462,125.252,6.932,125,0.382,125L0.382,125z"/>
	<path id="XMLID_1533_" style="fill:#A59E95;" d="M85,60v5H75v-5c0-2.761,2.239-5,5-5S85,57.239,85,60z"/>
	<path id="XMLID_1011_" style="fill:#E2DAC7;" d="M460,235v150c0,16.569-13.431,30-30,30h-30h-40c-5.523,0-10-4.477-10-10l0,0
		c0-11.046,8.954-20,20-20h13.473c6.153,0,10.846-5.504,9.874-11.58L380,295L460,235z"/>
	<path id="XMLID_1354_" style="fill:#A59E95;" d="M393.347,373.42c0.972,6.076-3.721,11.58-9.874,11.58H370
		c-11.046,0-20,8.954-20,20c0,5.523,4.477,10,10,10h-20h-40c-5.523,0-10-4.477-10-10c0-11.046,8.954-20,20-20h13.473
		c6.153,0,10.846-5.504,9.874-11.58L325.6,325h59.506L393.347,373.42z"/>
	<path id="XMLID_1065_" style="fill:#A59E95;" d="M202.11,260.988L180,375c0,5.523-4.477,10-10,10h-6.527H150
		c-11.046,0-20,8.954-20,20c0,5.523,4.477,10,10,10h-10H90c-5.523,0-10-4.477-10-10c0-11.046,8.954-20,20-20h13.473H120
		c5.523,0,10-4.477,10-10l27-142.667L202.11,260.988z"/>
	<path id="XMLID_1060_" style="fill:#C1BAAC;" d="M410,307.165L410,307.165c0,11.557-6.589,22.194-17.066,27.072
		C378.105,341.142,361.572,345,344.133,345l0,0c-22.282,0-44.091-6.425-62.815-18.504L62,185c30.355,0,60.066,8.753,85.574,25.209
		l133.745,86.287C300.042,308.575,321.851,315,344.133,315l0,0c20.064,0,38.932-5.106,55.385-14.083
		C404.243,298.339,410,301.783,410,307.165z"/>
	<path id="XMLID_1000_" style="fill:#E2DAC7;" d="M257.859,283.972L238.917,385c0,16.569-13.431,30-30,30h-30h-40
		c-5.523,0-10-4.477-10-10l0,0c0-11.046,8.954-20,20-20h13.473h6.527c5.523,0,10-4.477,10-10l30-150l0,0
		C240.096,225,263.605,253.327,257.859,283.972z"/>
</g>
</svg>