<?xml version="1.0" encoding="utf-8"?>
<!-- Generator: Adobe Illustrator 17.0.2, SVG Export Plug-In . SVG Version: 6.00 Build 0)  -->
<!DOCTYPE svg PUBLIC "-//W3C//DTD SVG 1.1//EN" "http://www.w3.org/Graphics/SVG/1.1/DTD/svg11.dtd">
<svg version="1.1" id="Layer_1" xmlns="http://www.w3.org/2000/svg" xmlns:xlink="http://www.w3.org/1999/xlink" x="0px" y="0px"
	 width="32px" height="32px" viewBox="0 0 32 32" enable-background="new 0 0 32 32" xml:space="preserve">
<polygon fill="#52C8FF" points="14.665,0 15.331,16 14.665,31.999 17.331,31.999 16.664,16 17.331,0 "/>
<polygon fill="#52C8FF" points="1.475,9.155 15.664,16.577 29.187,25.154 30.521,22.845 16.331,15.422 2.808,6.845 "/>
<polygon fill="#52C8FF" points="30.521,9.155 16.331,16.577 2.808,25.154 1.475,22.845 15.664,15.422 29.187,6.845 "/>
<path fill="#5FCCFF" d="M19.055,1.724l-3.057,5.018l-3.057-5.018l-1.885,1.885l4,4C15.316,7.87,15.657,8,15.998,8
	c0.341,0,0.682-0.13,0.943-0.391l4-4L19.055,1.724z"/>
<path fill="#5FCCFF" d="M12.941,30.275l3.057-5.018l3.057,5.018l1.885-1.885l-4-4C16.68,24.13,16.339,24,15.998,24
	c-0.341,0-0.682,0.13-0.943,0.391l-4,4L12.941,30.275z"/>
<path fill="#5FCCFF" d="M5.163,6.214l2.817,5.156l-5.874,0.139l0.69,2.575l5.464-1.464C8.616,12.526,8.899,12.295,9.07,12
	s0.228-0.656,0.133-1.012L7.739,5.524L5.163,6.214z"/>
<path fill="#5FCCFF" d="M26.832,25.785l-2.817-5.156l5.874-0.139l-0.69-2.575l-5.464,1.464c-0.356,0.095-0.639,0.326-0.81,0.621
	c-0.171,0.295-0.228,0.656-0.133,1.012l1.464,5.464L26.832,25.785z"/>
<path fill="#5FCCFF" d="M26.832,6.214l-2.817,5.156l5.874,0.139l-0.69,2.575l-5.464-1.464c-0.356-0.095-0.639-0.326-0.81-0.621
	c-0.171-0.295-0.228-0.656-0.133-1.012l1.464-5.464L26.832,6.214z"/>
<path fill="#5FCCFF" d="M5.163,25.785l2.817-5.156L2.106,20.49l0.69-2.575l5.464,1.464C8.616,19.474,8.899,19.704,9.07,20
	s0.228,0.656,0.133,1.012l-1.464,5.464L5.163,25.785z"/>
<path fill="#5FCCFF" d="M23.738,11.531l-4.469-1.197l-3.272-3.272l-3.272,3.272l-4.469,1.197L9.455,16l-1.197,4.469l4.469,1.197
	l3.272,3.272l3.272-3.272l4.469-1.197L22.541,16L23.738,11.531z M21.321,19.073l-3.073,0.823l-2.25,2.25l-2.25-2.25l-3.073-0.823
	L11.498,16l-0.823-3.073l3.073-0.823l2.25-2.25l2.25,2.25l3.073,0.823L20.498,16L21.321,19.073z"/>
</svg>
