<?xml version="1.0" encoding="utf-8"?>
<!-- Generator: Adobe Illustrator 28.0.0, SVG Export Plug-In . SVG Version: 6.00 Build 0)  -->
<svg version="1.1" id="annotations" xmlns="http://www.w3.org/2000/svg" xmlns:xlink="http://www.w3.org/1999/xlink" x="0px"
	 y="0px" viewBox="0 0 78.5 89.5" style="enable-background:new 0 0 78.5 89.5;" xml:space="preserve">
<style type="text/css">
	.st0{fill:#FDD1A7;}
	.st1{fill:#FFBC8A;}
	.st2{fill:#F5A871;}
</style>
<g id="hand">
	<g>
		<path class="st0" d="M66.7,54.8L51.9,70c-1.5,1.6-3.4,2.7-5.5,3.4l-1.3,0.4c-3.8,1.3-7.2,3.4-10,6.3l-4.9,5.1
			c-0.7,0.8-1.9,0.8-2.7,0L5.2,63.7c-0.8-0.7-0.8-1.9,0-2.7l1.6-1.6c4.7-4.9,7.5-11.4,7.4-18.2c0-1.8,0.3-3.6,1-5.3s1.6-3.2,2.9-4.5
			l9.2-9.4c1.5-1.5,3.9-1.6,5.4-0.1l6.4,6.2l22-23C63,3.2,66,3.1,68,4.9c1,0.9,1.5,2.2,1.5,3.4s-0.4,2.5-1.4,3.4L45.9,34.6
			L66.7,54.8L66.7,54.8z"/>
	</g>
	<path class="st1" d="M46.6,33.9l9.8-10.1c-1.8-0.2-3.7,0.4-5,1.8l-6.5,6.7L46.6,33.9L46.6,33.9z"/>
	<path class="st1" d="M38.2,28.8l2.4-2.5l6.2,6c0.3,0.3,0.5,0.5,0.7,0.8l-2.2,2.3L38.2,28.8z"/>
	<path class="st1" d="M62,59.6L51.9,70c-1.5,1.6-3.4,2.7-5.5,3.4l-1.3,0.4c-3.8,1.3-7.2,3.4-10,6.3l-4.9,5.1c-0.7,0.8-1.9,0.8-2.7,0
		l-8.9-8.6l7.8-8c11.6-12,2.4-24.1,2.4-24.1l8.5-8.8L62,59.6L62,59.6z"/>
	<path class="st2" d="M62,59.6L51.9,70c-1.5,1.6-3.4,2.7-5.5,3.4l-1.3,0.4c-3.8,1.3-7.2,3.4-10,6.3l-4.9,5.1c-0.7,0.8-1.9,0.8-2.7,0
		L25.2,83c0.8,0.7,2,0.7,2.7,0l4.9-5.1c2.8-2.9,6.2-5,10-6.3l1.3-0.4c2.1-0.7,3.9-1.9,5.5-3.4l10.1-10.4L62,59.6z"/>
	<path class="st2" d="M62,59.6l-4,4.1c-1.7-0.1-3.3-0.8-4.6-2l0,0c-1.3-1.3-2-2.9-2.2-4.7c-1.7-0.1-3.4-0.7-4.7-2l0,0
		c-1.3-1.3-2-2.9-2.2-4.7c-1.7-0.1-3.4-0.7-4.7-2l0,0c-1.5-1.5-2.3-3.5-2.2-5.4c-1-0.1-1.9-0.3-2.8-0.7L32,44.9
		c0.8,1.5,1.9,3.9,2.5,6.8c0.8,4.5,0.6,11.1-5.4,17.8c-0.5,0.5-1.3,0.5-1.7,0.1l0,0c-0.5-0.4-0.5-1.2-0.1-1.7
		c10.4-11.7,1.6-23.3,1.6-23.3l8.5-8.8L62,59.6L62,59.6z"/>
	<g>
		<g>
			<path class="st0" d="M60,34L48,46.4c-1.8,1.9-4.8,1.9-6.7,0.1l0,0c-1-1-1.5-2.4-1.5-3.7c0.1-1.1,0.5-2.2,1.3-3.1l12-12.4
				c1.5-1.5,3.9-1.6,5.4-0.1l1.4,1.4C61.4,30.1,61.5,32.5,60,34z"/>
			<path class="st1" d="M60,34L48,46.4c-1.8,1.9-4.8,1.9-6.7,0.1l0,0c-0.4-0.4-0.7-0.8-1-1.3c1.8,0.8,3.9,0.5,5.4-1l12-12.4
				c1.3-1.4,1.4-3.4,0.3-4.9c0.2,0.1,0.3,0.3,0.5,0.4l1.4,1.4C61.4,30.1,61.5,32.5,60,34z"/>
			<path class="st0" d="M60,34L48,46.4c-1.9,1.9-1.8,5,0.1,6.8l0,0C50,55,53,55,54.9,53.1l12-12.4c1.5-1.5,1.4-3.9-0.1-5.4l-1.4-1.4
				C63.9,32.4,61.5,32.5,60,34z"/>
			<path class="st1" d="M66.9,40.7l-12,12.4C53,55,50,55,48.2,53.2l0,0c-0.4-0.4-0.7-0.8-1-1.3c1.8,0.8,3.9,0.5,5.4-1l12-12.4
				c1.3-1.4,1.4-3.4,0.3-4.9c0.2,0.1,0.3,0.3,0.5,0.4l1.4,1.4C68.3,36.8,68.4,39.2,66.9,40.7z"/>
			<path class="st0" d="M66.9,40.7l-12,12.4c-1.9,1.9-1.8,5,0.1,6.8l0,0c1.9,1.8,4.9,1.8,6.7-0.1l12-12.4c1.5-1.5,1.4-3.9-0.1-5.4
				l-1.4-1.4C70.8,39.2,68.4,39.2,66.9,40.7z"/>
			<path class="st1" d="M73.8,47.4l-12,12.4c-1.8,1.9-4.8,1.9-6.7,0.1l0,0c-0.4-0.4-0.7-0.8-1-1.3c1.8,0.8,3.9,0.5,5.4-1l12-12.4
				c1.3-1.4,1.4-3.4,0.3-4.9c0.2,0.1,0.3,0.3,0.5,0.4l1.4,1.4C75.2,43.5,75.3,45.9,73.8,47.4z"/>
		</g>
	</g>
	<path class="st1" d="M46.9,38.3l-1.5,1.5c-1.6,1.6-3.6,2.6-5.6,2.9c0.1-1.1,0.5-2.2,1.3-3.1l6.4-6.6C48.5,34.7,48.3,36.9,46.9,38.3
		z"/>
	<path class="st0" d="M38.3,27.3l6.9,6.7c0.7,0.7,0.8,1.9,0,2.6l-1.5,1.5c-2.9,3-7.6,3-10.5,0.2l-2.9-2.8L38.3,27.3L38.3,27.3z"/>
	<path class="st1" d="M34.1,39.1l-5.4-5.3c-0.5-0.5-1.3-0.5-1.8,0l0,0c-0.5,0.5-0.5,1.3,0,1.8l5.4,5.3L34.1,39.1z"/>
</g>
</svg>
