<?xml version="1.0" encoding="utf-8"?>
<!-- Generator: Adobe Illustrator 28.0.0, SVG Export Plug-In . SVG Version: 6.00 Build 0)  -->
<svg version="1.1" id="Layer_1" xmlns="http://www.w3.org/2000/svg" xmlns:xlink="http://www.w3.org/1999/xlink" x="0px" y="0px"
	 viewBox="0 0 246.4 69.7" style="enable-background:new 0 0 246.4 69.7;" xml:space="preserve">
<style type="text/css">
	.st0{fill:#84DBFF;}
	.st1{fill:#FFFFFF;}
</style>
<path class="st0" d="M0.6,9.5v51.8c0,3.7,3,6.7,6.7,6.7h189.1c1.9,0,3.8-0.8,5.2-2.2l41.3-25.2c2.9-2.9,2.9-7.5,0-10.4L201.6,5
	c-1.4-1.4-3.2-2.2-5.2-2.2H7.3C3.6,2.8,0.6,5.8,0.6,9.5z M218.5,28.6c4.6-0.7,8.6,3.2,7.9,7.9c-0.4,2.9-2.8,5.3-5.7,5.7
	c-4.6,0.7-8.6-3.2-7.9-7.9C213.3,31.4,215.7,29.1,218.5,28.6z"/>
<rect x="9.1" y="14.4" class="st1" width="188.6" height="41.5"/>
</svg>
