<?xml version="1.0" encoding="utf-8"?>
<!-- Generator: Adobe Illustrator 28.0.0, SVG Export Plug-In . SVG Version: 6.00 Build 0)  -->
<svg version="1.1" id="Layer_1" xmlns="http://www.w3.org/2000/svg" xmlns:xlink="http://www.w3.org/1999/xlink" x="0px" y="0px"
	 viewBox="0 0 170 200" style="enable-background:new 0 0 170 200;" xml:space="preserve">
<style type="text/css">
	.st0{fill:#B9E4EA;}
	.st1{fill:#82AEC0;}
	.st2{fill:#F5F5F5;}
	.st3{fill:#2F7889;}
	.st4{fill:#94D1E0;}
	.st5{opacity:0.37;}
	.st6{fill:#4FC3F7;}
	.st7{opacity:0.52;}
	.st8{opacity:0.75;fill:#2F7889;enable-background:new    ;}
</style>
<path class="st0" d="M158,198.6H27.8c-2.7,0-7.8,0-14.3-5.7c-5.2-4.6-11.2-8.9-11.1-14.3L142.8,18.8c7.6,0,11.1,2.2,16,4.9
	c9.2,5.3,9.5,8,9.5,10.9v154.1C168.2,194.1,163.6,198.6,158,198.6L158,198.6z"/>
<path class="st1" d="M94,138.9v47.6h49.2c5.4,0,9.8-4.2,9.8-9.4v-38.2H94z"/>
<path class="st0" d="M104.2,186.5c-8.9,0,7.3-35,7.3-35s41.6-36.8,41.6-11.2S113.1,186.5,104.2,186.5L104.2,186.5z"/>
<path class="st2" d="M121.3,153.3c0,0,31.8-2,31.8-14V28.6c0-5.4-4-9.9-10.3-9.9H12.4c-6.7,0-10.3,4.4-10.3,9.9v148
	c0,5.4,4.6,9.9,10.3,9.9h90.1C122.3,182,121.3,153.3,121.3,153.3z"/>
<ellipse class="st3" cx="24" cy="28.7" rx="5.3" ry="5.7"/>
<path class="st4" d="M26.5,24.1c-0.8-1.7-1.2-3.5-1.2-5.3c0-4.6,2.5-8.5,5.4-8.5s5.5,3.9,5.5,8.5h8c0-9.4-6-17.1-13.5-17.1
	S17.2,9.3,17.2,18.7c0,3.4,0.8,6.5,2.1,9.1c1.2,2.4,3.8,3.5,6,2.3C27.3,29.2,27.5,26.1,26.5,24.1z"/>
<path class="st3" d="M38.4,4.8c0,0.1,1,2.6-0.4,4.9c-1.4,2.4-4.4,2-4.4,2c1.5,1.5,2.4,4.1,2.4,7h8.1C44.2,13,41.9,7.9,38.4,4.8z"/>
<ellipse class="st3" cx="59.8" cy="28.7" rx="5.3" ry="5.7"/>
<path class="st4" d="M62.3,24.1c-0.8-1.7-1.2-3.5-1.2-5.3c0-4.6,2.5-8.5,5.4-8.5c3,0,5.5,3.9,5.5,8.5h8c0-9.4-6-17.1-13.5-17.1
	C59.1,1.6,53,9.3,53,18.7c0,3.4,0.8,6.5,2.1,9.1c1.2,2.4,3.8,3.5,6,2.3C63.1,29.2,63.3,26.1,62.3,24.1L62.3,24.1z"/>
<path class="st3" d="M74.3,4.8c0,0.1,1,2.6-0.4,4.9c-1.4,2.4-4.4,2-4.4,2c1.5,1.5,2.4,4.1,2.4,7H80C80,13,77.7,7.9,74.3,4.8z"/>
<g>
	<ellipse class="st3" cx="95.6" cy="28.7" rx="5.3" ry="5.7"/>
	<path class="st4" d="M98.1,24.1c-0.8-1.7-1.2-3.5-1.2-5.3c0-4.6,2.5-8.5,5.4-8.5c3,0,5.5,3.9,5.5,8.5h8c0-9.4-6-17.1-13.5-17.1
		c-7.4,0-13.5,7.7-13.5,17.1c0,3.4,0.8,6.5,2.1,9.1c1.2,2.4,3.8,3.5,6,2.3C98.9,29.2,99.1,26.1,98.1,24.1L98.1,24.1z"/>
	<path class="st3" d="M110.1,4.8c0,0.1,1,2.6-0.4,4.9c-1.4,2.4-4.4,2-4.4,2c1.5,1.5,2.4,4.1,2.4,7h8.1C115.9,13,113.5,7.9,110.1,4.8
		L110.1,4.8z"/>
</g>
<g>
	<ellipse class="st3" cx="131.4" cy="28.7" rx="5.3" ry="5.7"/>
	<path class="st4" d="M133.9,24.1c-0.8-1.7-1.2-3.5-1.2-5.3c0-4.6,2.5-8.5,5.4-8.5c3,0,5.5,3.9,5.5,8.5h8c0-9.4-6.1-17.1-13.5-17.1
		c-7.4,0-13.5,7.7-13.5,17.1c0,3.4,0.8,6.5,2.1,9.1c1.2,2.4,3.8,3.5,6,2.3C134.7,29.2,134.9,26.1,133.9,24.1z"/>
	<path class="st3" d="M145.9,4.8c0,0.1,1,2.6-0.4,4.9c-1.4,2.4-4.4,2-4.4,2c1.5,1.5,2.4,4.1,2.4,7l2.7,0.2c0,0,2.7,0.2,5.4,1.2
		C151.7,20.1,152.6,10.2,145.9,4.8z"/>
</g>
<g class="st5">
	<g>
		<path class="st6" d="M119.9,165.8H2.4v-3.3h118.2C120.4,164.3,119.9,165.8,119.9,165.8L119.9,165.8z"/>
	</g>
	<g>
		<path class="st6" d="M148.4,146.4H2.4v-3.3H152C150.5,145.4,148.4,146.4,148.4,146.4z"/>
	</g>
	<g>
		<rect x="2.4" y="123.7" class="st6" width="150.7" height="3.3"/>
	</g>
	<g>
		<rect x="2.4" y="104.3" class="st6" width="150.7" height="3.3"/>
	</g>
	<g>
		<rect x="2.4" y="85" class="st6" width="150.7" height="3.3"/>
	</g>
	<g>
		<rect x="2.4" y="65.6" class="st6" width="150.7" height="3.3"/>
	</g>
	<g>
		<rect x="2.4" y="46.2" class="st6" width="150.7" height="3.3"/>
	</g>
</g>
<g class="st7">
	<path class="st8" d="M168.2,57.6l-15.1-8.2v-3.3l15.2,8.2L168.2,57.6z"/>
	<path class="st8" d="M168.2,77l-15.1-8.1v-3.3l15.2,8.2L168.2,77z"/>
	<path class="st8" d="M168.2,96.4l-15.1-8.2v-3.3l15.2,8.2L168.2,96.4z"/>
	<path class="st8" d="M168.2,115.8l-15.1-8.2v-3.3l15.2,8.2L168.2,115.8z"/>
	<path class="st8" d="M168.2,135.2l-15.1-8.2v-3.3l15.2,8.2L168.2,135.2z"/>
	<path class="st8" d="M168.2,154.6l-15.1-8.2v-3.3l15.2,8.2L168.2,154.6z"/>
	<path class="st8" d="M168.2,174l-15.1-8.2v-3.3l15.2,8.2L168.2,174z"/>
</g>
</svg>
