<svg id="Layer_1" data-name="Layer 1" xmlns="http://www.w3.org/2000/svg" viewBox="0 0 141.2 30"><defs><style>.cls-1{opacity:0.65;}.cls-2{fill:#b2ddf7;}</style></defs><title>ctx</title><g id="context" class="cls-1"><path class="cls-2" d="M13,23a10.17,10.17,0,0,1-7.29-2.59,9.28,9.28,0,0,1-2.75-7.11A8.85,8.85,0,0,1,5.53,6.58a9.16,9.16,0,0,1,6.56-2.47,8.07,8.07,0,0,1,7.19,3.5L16,10.15a4.6,4.6,0,0,0-3.94-2A4.25,4.25,0,0,0,8.74,9.64a5.49,5.49,0,0,0-1.27,3.7A5.52,5.52,0,0,0,9,17.4,5.7,5.7,0,0,0,13.28,19a9,9,0,0,0,4.47-1.25l1.63,3.58A11.77,11.77,0,0,1,13,23Z"/><path class="cls-2" d="M29.73,23a9.65,9.65,0,0,1-6.94-2.61,9,9,0,0,1-2.74-6.86,9.07,9.07,0,0,1,2.74-6.86,9.67,9.67,0,0,1,7-2.6,9.73,9.73,0,0,1,7,2.59,9,9,0,0,1,2.74,6.8,9.16,9.16,0,0,1-2.75,6.88A9.65,9.65,0,0,1,29.73,23Zm-3.68-5.62a4.87,4.87,0,0,0,3.7,1.5,4.87,4.87,0,0,0,3.71-1.5,5.33,5.33,0,0,0,1.43-3.85,5.36,5.36,0,0,0-1.43-3.85,4.9,4.9,0,0,0-3.71-1.49,4.9,4.9,0,0,0-3.7,1.49,5.32,5.32,0,0,0-1.43,3.85A5.29,5.29,0,0,0,26.05,17.42Z"/><path class="cls-2" d="M54.58,4.37h4.15V22.81H55L46.48,11v11.8H42.34V4.37h4.2l8,11.1Z"/><path class="cls-2" d="M75.22,4.37V8.15h-5V22.78H65.91V8.15h-5V4.37Z"/><path class="cls-2" d="M77.43,22.78V4.37H89.54V8.18H81.79v3.55h7.26v3.69H81.79V19h7.88v3.81Z"/><path class="cls-2" d="M108,22.78h-5.09l-3.31-6-3.3,6h-4.8l5.73-9.34L91.67,4.37h5.08l3,5.73,3.34-5.73h4.57l-5.6,9Z"/><path class="cls-2" d="M122.33,4.37V8.15h-5V22.78H113V8.15h-5V4.37Z"/></g><g id="in" class="cls-1"><path class="cls-2" d="M3.78,8.17l10.94,3.72v3.79L3.78,19.4v-3l8.29-2.58L3.78,11.21Z"/><path class="cls-2" d="M18.29,8.17l11,3.72v3.79L18.29,19.4v-3l8.3-2.58-8.3-2.57Z"/><path class="cls-2" d="M32.81,8.17l10.95,3.72v3.79L32.81,19.4v-3l8.3-2.58-8.3-2.57Z"/><path class="cls-2" d="M55.49,7.56a2.21,2.21,0,0,1-3.09,0A2.12,2.12,0,0,1,51.78,6a2.14,2.14,0,0,1,.62-1.55,2.21,2.21,0,0,1,3.09,0A2.14,2.14,0,0,1,56.11,6,2.12,2.12,0,0,1,55.49,7.56ZM52,22.3V9.94h3.77V22.3Z"/><path class="cls-2" d="M66.45,9.67A4.28,4.28,0,0,1,69.89,11,5.82,5.82,0,0,1,71,14.9v7.4H67.27V15.46c0-1.62-.69-2.43-2.09-2.43a3.32,3.32,0,0,0-2.62,1.39V22.3H58.79V9.94h3.77v1.39A5,5,0,0,1,66.45,9.67Z"/><path class="cls-2" d="M81.67,9.7a5.26,5.26,0,0,1,4.1,1.74,6.71,6.71,0,0,1,1.57,4.65,6.41,6.41,0,0,1-1.73,4.62,6,6,0,0,1-4.5,1.8,5.73,5.73,0,0,1-3.35-1V27.4H74V9.94h3.77v1.53a3.76,3.76,0,0,1,1.59-1.3A5.59,5.59,0,0,1,81.67,9.7Zm-1.22,9.43a2.93,2.93,0,0,0,2.17-.81,3.06,3.06,0,0,0,.8-2.23,3,3,0,0,0-.78-2.19,2.79,2.79,0,0,0-2.09-.8,3.34,3.34,0,0,0-2.84,1.63v3.75A5.39,5.39,0,0,0,80.45,19.13Z"/><path class="cls-2" d="M98,9.92h3.77V22.3H98V20.88a5,5,0,0,1-3.84,1.66,4.36,4.36,0,0,1-3.48-1.36,5.86,5.86,0,0,1-1.16-3.89V9.92H93.3v6.83c0,1.61.71,2.41,2.14,2.41A3.2,3.2,0,0,0,98,17.8Z"/><path class="cls-2" d="M112.05,22.42a7.13,7.13,0,0,1-4.73-1.3,5.13,5.13,0,0,1-1.5-4.08V13.25h-2.16V9.94h2.16l-.07-3.43h3.84V9.94H113v3.31h-3.43v3.26c0,1.63,1,2.45,3,2.45h.24l-.43,3.46Z"/></g><g id="out" class="cls-1"><path class="cls-2" d="M14.51,20.73a6.88,6.88,0,0,1-4.92,1.81,6.92,6.92,0,0,1-4.93-1.81,6.1,6.1,0,0,1-1.91-4.61,6.09,6.09,0,0,1,1.91-4.61A6.88,6.88,0,0,1,9.59,9.7a6.84,6.84,0,0,1,4.92,1.81,6.05,6.05,0,0,1,1.91,4.61A6.07,6.07,0,0,1,14.51,20.73Zm-7-2.45a2.85,2.85,0,0,0,2.13.83,2.85,2.85,0,0,0,2.13-.84,3,3,0,0,0,.81-2.18A3,3,0,0,0,11.72,14a2.85,2.85,0,0,0-2.11-.82A2.9,2.9,0,0,0,7.47,14a3,3,0,0,0-.82,2.17A3,3,0,0,0,7.46,18.28Z"/><path class="cls-2" d="M27.1,9.92h3.77V22.3H27.1V20.88a5,5,0,0,1-3.84,1.66,4.36,4.36,0,0,1-3.48-1.36,5.81,5.81,0,0,1-1.17-3.89V9.92h3.77v6.83c0,1.61.71,2.41,2.14,2.41A3.2,3.2,0,0,0,27.1,17.8Z"/><path class="cls-2" d="M41.13,22.42a7.15,7.15,0,0,1-4.73-1.3A5.13,5.13,0,0,1,34.9,17V13.25H32.74V9.94H34.9l-.07-3.43h3.84V9.94H42.1v3.31H38.67v3.26c0,1.63,1,2.45,3,2.45h.24l-.44,3.46Z"/><path class="cls-2" d="M51.78,9.7a5.25,5.25,0,0,1,4.1,1.74,6.66,6.66,0,0,1,1.57,4.65,6.41,6.41,0,0,1-1.73,4.62,6,6,0,0,1-4.5,1.8,5.75,5.75,0,0,1-3.35-1V27.4H44.1V9.94h3.77v1.53a3.76,3.76,0,0,1,1.59-1.3A5.59,5.59,0,0,1,51.78,9.7Zm-1.21,9.43a2.9,2.9,0,0,0,2.16-.81,3,3,0,0,0,.8-2.23,3.06,3.06,0,0,0-.77-2.19,2.81,2.81,0,0,0-2.1-.8,3.34,3.34,0,0,0-2.84,1.63v3.75A5.41,5.41,0,0,0,50.57,19.13Z"/><path class="cls-2" d="M68.13,9.92H71.9V22.3H68.13V20.88a5,5,0,0,1-3.85,1.66,4.33,4.33,0,0,1-3.47-1.36,5.81,5.81,0,0,1-1.17-3.89V9.92h3.77v6.83c0,1.61.71,2.41,2.14,2.41a3.23,3.23,0,0,0,2.58-1.36Z"/><path class="cls-2" d="M82.16,22.42a7.15,7.15,0,0,1-4.73-1.3A5.13,5.13,0,0,1,75.93,17V13.25H73.77V9.94h2.16l-.07-3.43H79.7V9.94h3.43v3.31H79.7v3.26c0,1.63,1,2.45,3,2.45h.25l-.44,3.46Z"/><path class="cls-2" d="M90.33,8.17l10.94,3.72v3.79L90.33,19.4v-3l8.29-2.58-8.29-2.57Z"/><path class="cls-2" d="M104.85,8.17l10.94,3.72v3.79L104.85,19.4v-3l8.29-2.58-8.29-2.57Z"/><path class="cls-2" d="M119.37,8.17l10.94,3.72v3.79L119.37,19.4v-3l8.29-2.58-8.29-2.57Z"/></g></svg>