<svg id="Layer_1" data-name="Layer 1" xmlns="http://www.w3.org/2000/svg" viewBox="0 0 50 50"><defs><style>.cls-1{fill:#ccc;}</style></defs><g id="SG"><circle class="cls-1" cx="25" cy="25" r="22.5"/><path d="M9.92,29.84A10.22,10.22,0,0,0,14.47,31c1.89,0,2.89-.78,2.89-2s-.87-1.77-3-2.53c-3-1.08-5-2.73-5-5.38,0-3.09,2.6-5.45,6.86-5.45a10.66,10.66,0,0,1,4.64.92l-.91,3.29A8.57,8.57,0,0,0,16.11,19c-1.78,0-2.64.83-2.64,1.76,0,1.15,1,1.66,3.36,2.55,3.22,1.2,4.71,2.87,4.71,5.44,0,3-2.33,5.63-7.32,5.63a11.71,11.71,0,0,1-5.13-1.13Z"/><path d="M39.48,33.24a20.11,20.11,0,0,1-6.06,1c-3.32,0-5.71-.83-7.38-2.44a8.87,8.87,0,0,1-2.56-6.6c0-6,4.42-9.48,10.36-9.48a12.91,12.91,0,0,1,5,.87L38,19.9a10.11,10.11,0,0,0-4.22-.77c-3.43,0-6,1.93-6,5.87,0,3.75,2.37,5.95,5.73,5.95a5.84,5.84,0,0,0,2-.26V26.88H32.71v-3.2h6.77Z"/></g></svg>