<?xml version="1.0" encoding="utf-8"?>
<!-- Generator: Adobe Illustrator 28.0.0, SVG Export Plug-In . SVG Version: 6.00 Build 0)  -->
<svg version="1.1" id="annotations" xmlns="http://www.w3.org/2000/svg" xmlns:xlink="http://www.w3.org/1999/xlink" x="0px"
	 y="0px" viewBox="0 0 101.5 81.8" style="enable-background:new 0 0 101.5 81.8;" xml:space="preserve">
<style type="text/css">
	.st0{fill:#999999;}
	.st1{fill:#CCCCCC;}
	.st2{fill:#B3B3B3;}
</style>
<g id="gears">
	<path class="st0" d="M72.3,42.3v-9.5l-9.7-1.6c-0.7-2.7-1.7-5.2-3.1-7.5l5.8-8L66.4,9h-7.8l-8,5.8c-2.3-1.4-4.8-2.5-7.5-3.1
		l-1.6-9.8H32l-1.6,9.8c-2.7,0.7-5.2,1.7-7.5,3.1l-0.3-5.9h-7.8l-6.7,6.7l5.8,8c-1.4,2.3-2.5,4.8-3.1,7.5L1,32.7v9.5l9.8,1.6
		c0.7,2.7,1.7,5.2,3.1,7.5l-5.8,8l6.7,6.7h7.8l0.2-5.8c2.3,1.4,4.8,2.5,7.5,3.1l1.6,9.8h9.5l1.6-9.8c2.7-0.7,5.2-1.7,7.5-3.1l8,5.8
		h7.8l-1.1-6.7l-5.8-8c1.4-2.3,2.5-4.8,3.1-7.5L72.3,42.3z M36.7,43.2c-3.1,0-5.7-2.5-5.7-5.7s2.5-5.7,5.7-5.7s5.7,2.5,5.7,5.7
		S39.8,43.2,36.7,43.2z"/>
	<path class="st1" d="M80.1,42.3v-9.5l-9.8-1.6c-0.7-2.7-1.7-5.2-3.1-7.5l5.8-8L66.3,9l-8,5.8c-2.3-1.4-4.8-2.5-7.5-3.1l-1.6-9.8
		h-9.5l-1.6,9.8c-2.7,0.7-5.2,1.7-7.5,3.1l-8-5.8l-6.7,6.7l5.8,8c-1.4,2.3-2.5,4.8-3.1,7.5l-9.8,1.6v9.5l9.8,1.6
		c0.7,2.7,1.7,5.2,3.1,7.5l-5.8,8l6.7,6.7l8-5.8c2.3,1.4,4.8,2.5,7.5,3.1l1.6,9.8h9.5l1.6-9.8c2.7-0.7,5.2-1.7,7.5-3.1l8,5.8
		l6.7-6.7l-5.8-8c1.4-2.3,2.5-4.8,3.1-7.5L80.1,42.3z M44.5,43.2c-3.1,0-5.7-2.5-5.7-5.7s2.5-5.7,5.7-5.7c3.1,0,5.7,2.5,5.7,5.7
		S47.6,43.2,44.5,43.2z"/>
	<path class="st0" d="M44.5,19.4c-0.7,0-1.3,0-2,0.1c-9.1,1-16.1,8.7-16.1,18s7.1,17,16.1,18c0.7,0.1,1.3,0.1,2,0.1
		c10,0,18.1-8.1,18.1-18.1S54.5,19.4,44.5,19.4z M38.8,37.5c0-2.4,1.5-4.5,3.7-5.3c0.6-0.2,1.3-0.4,2-0.4c3.1,0,5.7,2.5,5.7,5.7
		s-2.5,5.7-5.7,5.7c-0.7,0-1.4-0.1-2-0.4C40.3,42,38.8,39.9,38.8,37.5z"/>
	<path class="st2" d="M42.5,19.5c-9.1,1-16.1,8.7-16.1,18s7.1,17,16.1,18c9.1-1,16.1-8.7,16.1-18S51.6,20.5,42.5,19.5z M40.5,43.2
		c-3.1,0-5.7-2.5-5.7-5.7s2.5-5.7,5.7-5.7c0.7,0,1.4,0.1,2,0.4c2.2,0.8,3.7,2.9,3.7,5.3c0,2.4-1.5,4.5-3.7,5.3
		C41.9,43,41.2,43.2,40.5,43.2z"/>
	<path class="st0" d="M42.6,27.9c-5.3,0-9.6,4.3-9.6,9.6s4.3,9.6,9.6,9.6s9.6-4.3,9.6-9.6C52.1,32.2,47.8,27.9,42.6,27.9z
		 M42.6,43.2c-3.1,0-5.7-2.5-5.7-5.7s2.5-5.7,5.7-5.7c3.2,0,5.7,2.5,5.7,5.7S45.7,43.2,42.6,43.2z"/>
	<path class="st1" d="M44.5,27.9c-5.3,0-9.6,4.3-9.6,9.6s4.3,9.6,9.6,9.6s9.6-4.3,9.6-9.6C54,32.2,49.8,27.9,44.5,27.9z M44.5,43.2
		c-3.1,0-5.7-2.5-5.7-5.7s2.5-5.7,5.7-5.7c3.1,0,5.7,2.5,5.7,5.7S47.6,43.2,44.5,43.2z"/>
	<path class="st0" d="M44.5,31.8c-1.5,0-2.9,0.6-3.9,1.6c1.1,1,1.8,2.5,1.8,4.1s-0.7,3.1-1.8,4.1c1,1,2.4,1.6,3.9,1.6
		c3.1,0,5.7-2.5,5.7-5.7S47.6,31.8,44.5,31.8z"/>
	<g>
		<path class="st0" d="M95,50.1l2.9-6h-5.3l-6.5,1.6c-1.1-1.5-2.4-2.8-3.9-3.9l0.9-9h-5.3l-3.5,5.7c-1.8-0.3-3.7-0.3-5.6,0l1.8-5.7
			h-5.3l-6,2.5l1.6,6.5c-1.5,1.1-2.8,2.4-3.9,3.9l-1.2-1.6h-5.3l-2.5,6l5.7,3.5c-0.3,1.8-0.3,3.7,0,5.5l-5.7,3.5l2.5,6h5.3l1.2-1.6
			c1.1,1.5,2.4,2.8,3.9,3.9l-1.6,6.5l6,2.5h5.3l-1.9-5.5c1.8,0.3,3.7,0.3,5.5,0l3.5,5.7h5.3V75L82,71c1.5-1.1,2.8-2.4,3.9-3.9
			l6.5,1.6h5.3l-2.9-6l-5.7-3.5c0.3-1.8,0.3-3.7,0-5.6L95,50.1z M72.8,60c-2,0.8-4.2-0.1-5.1-2.1s0.1-4.2,2.1-5.1
			c2-0.8,4.2,0.1,5.1,2.1S74.8,59.2,72.8,60z"/>
		<path class="st2" d="M100.4,50.1l-2.5-6l-6.5,1.6c-1.1-1.5-2.4-2.8-3.9-3.9l1.6-6.5l-6-2.5l-3.5,5.7c-1.8-0.3-3.7-0.3-5.6,0
			l-3.5-5.7l-6,2.5l1.6,6.5c-1.5,1.1-2.8,2.4-3.9,3.9l-6.5-1.6l-2.5,6l5.7,3.5c-0.3,1.8-0.3,3.7,0,5.5l-5.7,3.5l2.5,6l6.5-1.6
			c1.1,1.5,2.4,2.8,3.9,3.9l-1.6,6.5l6,2.5l3.5-5.7c1.8,0.3,3.7,0.3,5.5,0l3.5,5.7l6-2.5l-1.6-6.5c1.5-1.1,2.8-2.4,3.9-3.9l6.5,1.6
			l2.5-6l-5.7-3.5c0.3-1.8,0.3-3.7,0-5.6L100.4,50.1z M78.2,60c-2,0.8-4.2-0.1-5.1-2.1c-0.8-2,0.1-4.2,2.1-5.1
			c2-0.8,4.2,0.1,5.1,2.1C81.1,56.9,80.2,59.2,78.2,60z"/>
		<path class="st0" d="M76.7,44.1c-0.5,0-0.9,0-1.4,0.1c-6.2,0.7-11,5.9-11,12.3s4.8,11.6,11,12.3c0.4,0,0.9,0.1,1.4,0.1
			c6.8,0,12.4-5.5,12.4-12.4S83.5,44.1,76.7,44.1z M72.8,56.4c0-1.7,1-3.1,2.5-3.6c0.4-0.2,0.9-0.2,1.4-0.2c2.1,0,3.9,1.7,3.9,3.9
			s-1.7,3.9-3.9,3.9c-0.5,0-0.9-0.1-1.4-0.2C73.9,59.5,72.8,58.1,72.8,56.4z"/>
		<path class="st1" d="M75.4,44.2c-6.2,0.7-11,5.9-11,12.3s4.8,11.6,11,12.3c6.2-0.7,11-5.9,11-12.3S81.5,44.8,75.4,44.2z M74,60.3
			c-2.1,0-3.9-1.7-3.9-3.9c0-2.1,1.7-3.9,3.9-3.9c0.5,0,0.9,0.1,1.4,0.2c1.5,0.5,2.5,2,2.5,3.6c0,1.7-1,3.1-2.5,3.6
			C74.9,60.2,74.5,60.3,74,60.3z"/>
		<path class="st0" d="M75.4,49.9c-3.6,0-6.5,2.9-6.5,6.5s2.9,6.5,6.5,6.5s6.5-2.9,6.5-6.5C81.9,52.8,79,49.9,75.4,49.9z M75.4,60.3
			c-2.1,0-3.9-1.7-3.9-3.9c0-2.1,1.7-3.9,3.9-3.9c2.1,0,3.9,1.7,3.9,3.9C79.3,58.6,77.5,60.3,75.4,60.3z"/>
		<path class="st2" d="M76.7,49.9c-3.6,0-6.5,2.9-6.5,6.5s2.9,6.5,6.5,6.5s6.5-2.9,6.5-6.5C83.2,52.8,80.3,49.9,76.7,49.9z
			 M76.7,60.3c-2.1,0-3.9-1.7-3.9-3.9c0-2.1,1.7-3.9,3.9-3.9c2.1,0,3.9,1.7,3.9,3.9C80.6,58.6,78.8,60.3,76.7,60.3z"/>
		<path class="st0" d="M76.7,52.6c-1,0-2,0.4-2.7,1.1c0.7,0.7,1.2,1.7,1.2,2.8c0,1.1-0.5,2.1-1.2,2.8c0.7,0.7,1.6,1.1,2.7,1.1
			c2.1,0,3.9-1.7,3.9-3.9C80.6,54.3,78.8,52.6,76.7,52.6z"/>
	</g>
</g>
</svg>
