<?xml version="1.0" encoding="utf-8"?>
<!-- Generator: Adobe Illustrator 28.0.0, SVG Export Plug-In . SVG Version: 6.00 Build 0)  -->
<svg version="1.1" id="Layer_1" xmlns="http://www.w3.org/2000/svg" xmlns:xlink="http://www.w3.org/1999/xlink" x="0px" y="0px"
	 viewBox="0 0 170 200" style="enable-background:new 0 0 170 200;" xml:space="preserve">
<style type="text/css">
	.st0{fill:url(#SVGID_1_);}
	.st1{fill:url(#Combined-Shape_00000026137832818756896950000006985976972827007167_);}
</style>
<g id="icons">
	<g id="ui-gambling-website-lined-icnos-casinoshunter" transform="translate(-1776.000000, -1905.000000)">
		<g id="_x34_" transform="translate(50.000000, 1871.000000)">
			<g id="paper" transform="translate(1726.000000, 34.000000)">
				
					<linearGradient id="SVGID_1_" gradientUnits="userSpaceOnUse" x1="424.4068" y1="-240.4576" x2="424.4068" y2="-240.6924" gradientTransform="matrix(675 0 0 -800 -286390 -192360)">
					<stop  offset="0" style="stop-color:#EDEEF4"/>
					<stop  offset="1" style="stop-color:#D7D8E6"/>
				</linearGradient>
				<path class="st0" d="M127.5,6c2.8,0,5.4,1,7.5,2.9l22.7,20.6c2.5,2.2,3.9,5.4,3.9,8.8v138c0,9.7-7.7,17.6-17.1,17.6H24.8
					c-9.4,0-17.1-7.9-17.1-17.6V23.7C7.7,13.9,15.3,6,24.8,6H127.5z"/>
				
					<linearGradient id="Combined-Shape_00000000222247663702396150000014234819986253318785_" gradientUnits="userSpaceOnUse" x1="419.2297" y1="-242.0917" x2="419.2297" y2="-242.3233" gradientTransform="matrix(150 0 0 -175 -62740 -42360)">
					<stop  offset="0" style="stop-color:#DEDEE7"/>
					<stop  offset="1" style="stop-color:#CFD0E8"/>
				</linearGradient>
				<path id="Combined-Shape" style="fill:url(#Combined-Shape_00000000222247663702396150000014234819986253318785_);" d="M127.5,6
					c2.8,0,5.4,1,7.5,2.9l22.7,20.6c2.5,2.2,3.9,5.4,3.9,8.8v8.8h-17.1c-9.4,0-17.1-7.9-17.1-17.6V6H127.5z"/>
			</g>
		</g>
	</g>
</g>
</svg>
