<?xml version="1.0" encoding="utf-8"?>
<!-- Generator: Adobe Illustrator 28.0.0, SVG Export Plug-In . SVG Version: 6.00 Build 0)  -->
<svg version="1.1" id="Layer_1" xmlns="http://www.w3.org/2000/svg" xmlns:xlink="http://www.w3.org/1999/xlink" x="0px" y="0px"
	 viewBox="0 0 114.5 113.4" style="enable-background:new 0 0 114.5 113.4;" xml:space="preserve">
<style type="text/css">
	.st0{fill:url(#SVGID_1_);}
	.st1{fill:url(#SVGID_00000029042613082229746730000001607267591720666242_);}
	.st2{opacity:0.5;}
	.st3{opacity:0.5;fill:#E89043;enable-background:new    ;}
	.st4{fill:url(#SVGID_00000131332218751610799680000000394269530018592698_);}
	.st5{fill:url(#SVGID_00000130632131090393209520000002253119655877658548_);}
	.st6{fill:url(#SVGID_00000119808546026170574280000017601490362140796583_);}
	.st7{fill:url(#SVGID_00000128486370878823781380000003791392377996490629_);}
	.st8{fill:url(#SVGID_00000138538467908969439620000015781338701902958000_);}
	.st9{fill:url(#SVGID_00000164509681561371649110000011658769208377680829_);}
	.st10{fill:url(#SVGID_00000130619045605078884920000011759649091679135914_);}
	.st11{fill:url(#SVGID_00000008151242494044735470000008259497215112700828_);}
	.st12{fill:url(#SVGID_00000150818684108143881490000004771959495543663516_);}
	.st13{fill:url(#SVGID_00000001629530437922593340000010087473999967426237_);}
	.st14{fill:url(#SVGID_00000121275039101996325210000014235659720154324124_);}
	.st15{fill:url(#SVGID_00000155118893466904280920000006748515005866243259_);}
	.st16{fill:url(#SVGID_00000037661249566746040090000010748209288627040663_);}
	.st17{fill:url(#SVGID_00000020390212544049815360000005937763786790027393_);}
	.st18{fill:url(#SVGID_00000019679091141687877780000005562340137201594496_);}
	.st19{fill:url(#SVGID_00000183207254987248912880000000460420280723860895_);}
	.st20{fill:url(#SVGID_00000182529652004620326040000005912708856178926264_);}
	.st21{fill:url(#SVGID_00000088847702067889073090000000936371957276186241_);}
	.st22{fill:url(#SVGID_00000079476792374852008160000012062496389901344909_);}
	.st23{fill:url(#SVGID_00000050623469676793209810000013544912242701599874_);}
	.st24{fill:url(#SVGID_00000151514926849540345570000012951315778577471378_);}
	.st25{fill:url(#SVGID_00000124158063127759522080000013256122166694380464_);}
	.st26{fill:url(#SVGID_00000078722998591228387020000013488983199956271025_);}
	.st27{fill:url(#SVGID_00000131334977864613562280000002494283464505748356_);}
	.st28{fill:url(#SVGID_00000129201420468668277730000012324316241368516031_);}
	.st29{fill:#EF4A4A;}
	.st30{fill:url(#SVGID_00000074430570889259094860000018031878639178334097_);}
	.st31{fill:url(#SVGID_00000088114003625559961110000012977315352577306262_);}
</style>
<linearGradient id="SVGID_1_" gradientUnits="userSpaceOnUse" x1="25.1883" y1="146.024" x2="25.0661" y2="146.3127" gradientTransform="matrix(33.3333 0 0 -33.3333 -808.3333 4970.0991)">
	<stop  offset="0" style="stop-color:#EFA25F"/>
	<stop  offset="1" style="stop-color:#FCD2A8"/>
</linearGradient>
<path class="st0" d="M33.6,97.5c-1.1,2.3-3,4.2-5.5,5.1L3,112.5c-1.2,0.3-2.2-0.8-1.9-1.9l9.8-25.1c1-2.4,2.8-4.4,5.1-5.5l33-15.5
	L33.6,97.5z"/>
<linearGradient id="SVGID_00000077317670529694951280000014451429860877655950_" gradientUnits="userSpaceOnUse" x1="25.1929" y1="146.1712" x2="24.9714" y2="146.5097" gradientTransform="matrix(33.3333 0 0 -33.3333 -808.3333 4970.0991)">
	<stop  offset="0" style="stop-color:#FCD2A8;stop-opacity:0"/>
	<stop  offset="4.782450e-02" style="stop-color:#FACB9E;stop-opacity:4.874290e-02"/>
	<stop  offset="0.235" style="stop-color:#F4B57C;stop-opacity:0.2395"/>
	<stop  offset="0.3892" style="stop-color:#F0A767;stop-opacity:0.3967"/>
	<stop  offset="0.4906" style="stop-color:#EFA25F;stop-opacity:0.5"/>
	<stop  offset="0.7958" style="stop-color:#EA954B;stop-opacity:0.2004"/>
	<stop  offset="1" style="stop-color:#E89043;stop-opacity:0"/>
</linearGradient>
<path style="fill:url(#SVGID_00000077317670529694951280000014451429860877655950_);" d="M33.6,97.5c-1.1,2.3-3,4.2-5.5,5.1L3,112.5
	c-1.2,0.3-2.2-0.8-1.9-1.9l9.8-25.1c1-2.4,2.8-4.4,5.1-5.5l33-15.5L33.6,97.5z"/>
<g class="st2">
	<path class="st3" d="M18.5,103.5l0.3-0.2c-0.8-1.2-2.6-2-4.9-3c-2.2-0.9-4.7-2-7.3-3.8l-0.2,0.4c2.6,1.8,5.1,2.9,7.3,3.8
		C16,101.6,17.8,102.3,18.5,103.5z"/>
	<path class="st3" d="M21.4,100.4c-1.8-1.2-3.3-1.4-4.7-1.6c-2.3-0.3-4.7-0.6-8.8-5.5l-0.2,0.4c4.2,4.7,6.6,5.1,8.9,5.4
		c1.4,0.2,2.8,0.4,4.6,1.5c1.8,1.2,2.5,2.6,2.4,3.7l0.4-0.2C24,103.1,23.2,101.6,21.4,100.4z"/>
	<path class="st3" d="M28,93.4c0.3,0.5,0.3,0.9,0.1,1.3c-0.3,0.5-1.3,1.2-5.1,1c-5.9-0.3-10.9-2.5-14.3-4.4l-0.2,0.4
		C12,93.5,17.1,95.7,23,96c3,0.2,4.8-0.2,5.4-1.2c0.3-0.5,0.3-1-0.1-1.6c-1-1.8-4.4-4.1-8.9-6c-2.6-1.1-5.4-2-8.2-2.6L11.1,85
		C19.4,86.8,26.6,90.7,28,93.4z"/>
	<path class="st3" d="M14.6,90.6c-0.5-0.2-1-0.5-1.5-0.7c-1-0.5-2.1-1-3.3-1.5l-0.2,0.4c1.2,0.5,2.3,1,3.3,1.5
		c0.5,0.2,1,0.5,1.5,0.7c1.3,0.6,1.9,0.3,2.2,0.1c0.3-0.2,0.4-0.6,0.4-1c-0.1-0.6-0.6-1.4-1.9-1.9l-0.1,0.4c1.1,0.4,1.5,1,1.6,1.6
		c0.1,0.3,0,0.5-0.2,0.7C16,91,15.4,90.9,14.6,90.6z"/>
	<path class="st3" d="M5.3,99.9l-0.2,0.4c3.1,2.6,6.3,5.6,7.7,8.4l0.3-0.1C11.7,105.6,8.5,102.5,5.3,99.9z"/>
	<path class="st3" d="M27.1,99.2c-1.8-0.7-3.5-1.3-5.2-1.4l0,0.4c1.6,0.1,3.3,0.7,5.1,1.4c1.5,0.6,3.1,1.1,4.6,1.4
		c0.1-0.1,0.2-0.2,0.3-0.3C30.2,100.3,28.6,99.8,27.1,99.2z"/>
	<path class="st3" d="M4.3,102.3l-0.2,0.4c1.4,0.6,2.3,1.2,2.3,1.2l0.2-0.3C6.6,103.6,5.7,102.9,4.3,102.3z"/>
	<path class="st3" d="M8.5,100.1C7.7,99.4,6.9,98.7,6,98l-0.2,0.4c0.8,0.6,1.6,1.3,2.4,2c1.9,1.6,3.6,3,5.9,4.3
		c1.7,0.9,3.1,1.5,4.3,1.8l0.6-0.2c-1.3-0.3-2.9-0.9-4.8-1.9C12.2,103.1,10.4,101.6,8.5,100.1z"/>
</g>
<linearGradient id="SVGID_00000052822763701094945540000002752755968705297800_" gradientUnits="userSpaceOnUse" x1="25.9647" y1="147.0466" x2="25.4018" y2="147.4118" gradientTransform="matrix(33.3333 0 0 -33.3333 -808.3333 4970.0991)">
	<stop  offset="0" style="stop-color:#3C2200"/>
	<stop  offset="1" style="stop-color:#512D00"/>
</linearGradient>
<path style="fill:url(#SVGID_00000052822763701094945540000002752755968705297800_);" d="M81.8,39.9L29,92.7
	c-0.2,0.2-0.6,0.4-0.9,0.5l-5.8,1c-1.7,0.3-3.2-1.2-2.9-2.9l1-5.9c0.1-0.3,0.2-0.7,0.5-0.9l52.7-52.7c0.7-0.7,1.8-0.7,2.4,0l5.7,5.7
	C82.4,38.2,82.4,39.3,81.8,39.9z"/>
<linearGradient id="SVGID_00000006665868169481669460000003765760955581622180_" gradientUnits="userSpaceOnUse" x1="25.7063" y1="147.1771" x2="25.3929" y2="147.4988" gradientTransform="matrix(33.3333 0 0 -33.3333 -808.3333 4970.0991)">
	<stop  offset="0" style="stop-color:#F8BE00"/>
	<stop  offset="1" style="stop-color:#FCCE38"/>
</linearGradient>
<path style="fill:url(#SVGID_00000006665868169481669460000003765760955581622180_);" d="M74.9,30.6L20.5,84.9c0,0-0.4,0.1-0.6,0.1
	l-8.3,1.5c-0.4,0.1-0.8-0.2-0.9-0.6l1-2.6c0.4-1.1,1.1-2.1,1.9-2.9l55.5-55.5L74.9,30.6z"/>
<linearGradient id="SVGID_00000176037619822178607120000007211588286014810005_" gradientUnits="userSpaceOnUse" x1="25.7825" y1="147.1022" x2="26.1043" y2="146.7887" gradientTransform="matrix(33.3333 0 0 -33.3333 -808.3333 4970.0991)">
	<stop  offset="0" style="stop-color:#FBA23B"/>
	<stop  offset="1" style="stop-color:#FCCE38"/>
</linearGradient>
<path style="fill:url(#SVGID_00000176037619822178607120000007211588286014810005_);" d="M83,38.7L28.7,93c0,0-0.1,0.4-0.1,0.6
	l-1.5,8.3c-0.1,0.4,0.2,0.8,0.6,0.9l2.6-1c1.1-0.4,2.1-1.1,2.9-1.9l55.5-55.5L83,38.7z"/>
<linearGradient id="SVGID_00000021807754553653555220000015091010773196909472_" gradientUnits="userSpaceOnUse" x1="26.0019" y1="146.9324" x2="25.7278" y2="147.071" gradientTransform="matrix(33.3333 0 0 -33.3333 -808.3333 4970.0991)">
	<stop  offset="0" style="stop-color:#FBA23B"/>
	<stop  offset="1" style="stop-color:#FF8000"/>
</linearGradient>
<path style="fill:url(#SVGID_00000021807754553653555220000015091010773196909472_);" d="M83.7,39.4L29.2,94l-1.4,7.7
	c-0.1,0.4,0.2,0.8,0.5,0.9l-0.6,0.2c-0.4-0.1-0.6-0.5-0.6-0.9l1.5-8.3c0-0.1,0.1-0.6,0.1-0.6l0.9-0.9L83,38.7L83.7,39.4z"/>
<linearGradient id="SVGID_00000101104543690086548780000001704858763152747415_" gradientUnits="userSpaceOnUse" x1="26.5386" y1="148.6025" x2="27.1568" y2="147.9843" gradientTransform="matrix(33.3333 0 0 -33.3333 -808.3333 4970.0991)">
	<stop  offset="0" style="stop-color:#CFDCDE"/>
	<stop  offset="0.2323" style="stop-color:#FFFFFF"/>
	<stop  offset="1" style="stop-color:#A9BCBE"/>
</linearGradient>
<path style="fill:url(#SVGID_00000101104543690086548780000001704858763152747415_);" d="M68.6,24.4L89.2,45L104,30.2
	c0.3-0.3,0.3-0.8,0-1.1L84.5,9.6c-0.3-0.3-0.8-0.3-1.1,0L68.6,24.4z"/>
<linearGradient id="SVGID_00000127017633076855340790000002184292826427318700_" gradientUnits="userSpaceOnUse" x1="27.176" y1="148.4818" x2="27.222" y2="149.025" gradientTransform="matrix(33.3333 0 0 -33.3333 -808.3333 4970.0991)">
	<stop  offset="0" style="stop-color:#FF6688"/>
	<stop  offset="1" style="stop-color:#FB9C9C"/>
</linearGradient>
<path style="fill:url(#SVGID_00000127017633076855340790000002184292826427318700_);" d="M85.3,10.4l-1-0.8l5.1-5.1
	c3.9-3.9,10.1-3.9,13.9,0l5.6,5.6c3.9,3.9,3.9,10.1,0,13.9l-5,5L85.3,10.4z"/>
<linearGradient id="SVGID_00000005267296059969807010000016072737318829219465_" gradientUnits="userSpaceOnUse" x1="26.765" y1="148.3761" x2="27.131" y2="148.0102" gradientTransform="matrix(33.3333 0 0 -33.3333 -808.3333 4970.0991)">
	<stop  offset="0" style="stop-color:#BBCACC;stop-opacity:0"/>
	<stop  offset="0.4864" style="stop-color:#DEE7E8"/>
	<stop  offset="1" style="stop-color:#8EA5A8;stop-opacity:0"/>
</linearGradient>
<path style="fill:url(#SVGID_00000005267296059969807010000016072737318829219465_);" d="M76.2,31.9l12.2,12.2l15.3-15.3L91.5,16.6
	L76.2,31.9z"/>
<linearGradient id="SVGID_00000025404729231940306980000016953053341511613873_" gradientUnits="userSpaceOnUse" x1="26.3664" y1="148.4799" x2="27.0348" y2="147.8115" gradientTransform="matrix(33.3333 0 0 -33.3333 -808.3333 4970.0991)">
	<stop  offset="0" style="stop-color:#CFDCDE"/>
	<stop  offset="0.2323" style="stop-color:#FFFFFF"/>
	<stop  offset="1" style="stop-color:#A9BCBE"/>
</linearGradient>
<path style="fill:url(#SVGID_00000025404729231940306980000016953053341511613873_);" d="M93.4,40.8L72.8,20.2
	c-1.8-0.4-3.2,0.9-2.8,2.8l20.6,20.6C92.4,44,93.8,42.6,93.4,40.8z"/>
<linearGradient id="SVGID_00000013154789910637023400000008009996414879935650_" gradientUnits="userSpaceOnUse" x1="26.5669" y1="148.6814" x2="27.2359" y2="148.0125" gradientTransform="matrix(33.3333 0 0 -33.3333 -808.3333 4970.0991)">
	<stop  offset="0" style="stop-color:#CFDCDE"/>
	<stop  offset="0.2323" style="stop-color:#FFFFFF"/>
	<stop  offset="1" style="stop-color:#A9BCBE"/>
</linearGradient>
<path style="fill:url(#SVGID_00000013154789910637023400000008009996414879935650_);" d="M100.1,34.1L79.5,13.5
	c-1.8-0.4-3.2,0.9-2.8,2.8l20.6,20.6C99.1,37.3,100.5,36,100.1,34.1z"/>
<linearGradient id="SVGID_00000003814870844511475870000009390262444732519099_" gradientUnits="userSpaceOnUse" x1="26.6501" y1="148.7646" x2="27.319" y2="148.0956" gradientTransform="matrix(33.3333 0 0 -33.3333 -808.3333 4970.0991)">
	<stop  offset="0" style="stop-color:#CFDCDE"/>
	<stop  offset="0.2323" style="stop-color:#FFFFFF"/>
	<stop  offset="1" style="stop-color:#A9BCBE"/>
</linearGradient>
<path style="fill:url(#SVGID_00000003814870844511475870000009390262444732519099_);" d="M102.8,31.3L82.2,10.7
	c-1.8-0.4-3.2,0.9-2.8,2.8l20.6,20.6C101.9,34.5,103.2,33.2,102.8,31.3z"/>
<linearGradient id="SVGID_00000080185538171118183620000002934491592364951201_" gradientUnits="userSpaceOnUse" x1="26.8966" y1="148.651" x2="27.2169" y2="147.818" gradientTransform="matrix(33.3333 0 0 -33.3333 -808.3333 4970.0991)">
	<stop  offset="0" style="stop-color:#CFDCDE"/>
	<stop  offset="1" style="stop-color:#A9BCBE"/>
</linearGradient>
<path style="fill:url(#SVGID_00000080185538171118183620000002934491592364951201_);" d="M98.1,30.1C95.8,27.9,81.9,14,79.7,11.8
	c-0.3,0.5-0.3,1.1-0.2,1.8l20.6,20.6c1.6,0.4,2.8-0.6,2.8-2.1C102.9,33.2,100.5,32.6,98.1,30.1z"/>
<linearGradient id="SVGID_00000071559314679922136310000004390457137620265872_" gradientUnits="userSpaceOnUse" x1="26.7962" y1="148.6123" x2="27.1166" y2="147.7794" gradientTransform="matrix(33.3333 0 0 -33.3333 -808.3333 4970.0991)">
	<stop  offset="0" style="stop-color:#CFDCDE"/>
	<stop  offset="1" style="stop-color:#A9BCBE"/>
</linearGradient>
<path style="fill:url(#SVGID_00000071559314679922136310000004390457137620265872_);" d="M95.3,32.9C93,30.7,79.2,16.8,76.9,14.5
	c-0.3,0.5-0.3,1.1-0.2,1.8l20.6,20.6c1.6,0.4,2.8-0.6,2.8-2.1C100.1,36,97.7,35.3,95.3,32.9z"/>
<linearGradient id="SVGID_00000049217131379575749510000006549050346912920466_" gradientUnits="userSpaceOnUse" x1="26.595" y1="148.4115" x2="26.9153" y2="147.5785" gradientTransform="matrix(33.3333 0 0 -33.3333 -808.3333 4970.0991)">
	<stop  offset="0" style="stop-color:#CFDCDE"/>
	<stop  offset="1" style="stop-color:#A9BCBE"/>
</linearGradient>
<path style="fill:url(#SVGID_00000049217131379575749510000006549050346912920466_);" d="M88.6,39.6c-2.2-2.2-16.1-16.1-18.4-18.4
	c-0.3,0.5-0.3,1.1-0.2,1.8l20.6,20.6c1.6,0.4,2.8-0.6,2.8-2.1C93.4,42.6,91,42,88.6,39.6z"/>
<linearGradient id="SVGID_00000170246851922617234810000003986495388847512211_" gradientUnits="userSpaceOnUse" x1="26.9326" y1="147.813" x2="26.3544" y2="148.3912" gradientTransform="matrix(33.3333 0 0 -33.3333 -808.3333 4970.0991)">
	<stop  offset="0" style="stop-color:#99AFB3"/>
	<stop  offset="0.7677" style="stop-color:#DEE7E8"/>
	<stop  offset="1" style="stop-color:#BBCACC"/>
</linearGradient>
<path style="fill:url(#SVGID_00000170246851922617234810000003986495388847512211_);" d="M70,23l-0.6,0.6L90,44.2l0.6-0.6L70,23z"/>
<linearGradient id="SVGID_00000024691890398908282240000014137449301904900234_" gradientUnits="userSpaceOnUse" x1="27.1331" y1="148.0135" x2="26.5549" y2="148.5917" gradientTransform="matrix(33.3333 0 0 -33.3333 -808.3333 4970.0991)">
	<stop  offset="0" style="stop-color:#99AFB3"/>
	<stop  offset="0.7677" style="stop-color:#DEE7E8"/>
	<stop  offset="1" style="stop-color:#BBCACC"/>
</linearGradient>
<path style="fill:url(#SVGID_00000024691890398908282240000014137449301904900234_);" d="M76.7,16.3l-0.6,0.6l20.6,20.6l0.6-0.6
	L76.7,16.3z"/>
<linearGradient id="SVGID_00000128473952316170381970000014296603712824194441_" gradientUnits="userSpaceOnUse" x1="27.0976" y1="148.478" x2="26.78" y2="148.2858" gradientTransform="matrix(33.3333 0 0 -33.3333 -808.3333 4970.0991)">
	<stop  offset="0" style="stop-color:#99AFB3"/>
	<stop  offset="1" style="stop-color:#BBCACC;stop-opacity:0"/>
</linearGradient>
<path style="fill:url(#SVGID_00000128473952316170381970000014296603712824194441_);" d="M100.1,34.1L79.5,13.5
	c-0.5-0.1-0.9-0.1-1.3,0l21.2,21.2c0.2,0.2,0.5,0.4,0.7,0.5C100.2,34.9,100.2,34.5,100.1,34.1z"/>
<linearGradient id="SVGID_00000177476487645431113870000014842491704940704399_" gradientUnits="userSpaceOnUse" x1="24.35" y1="145.8611" x2="24.4898" y2="145.741" gradientTransform="matrix(33.3333 0 0 -33.3333 -808.3333 4970.0991)">
	<stop  offset="0" style="stop-color:#7A4400"/>
	<stop  offset="1" style="stop-color:#512D00"/>
</linearGradient>
<path style="fill:url(#SVGID_00000177476487645431113870000014842491704940704399_);" d="M11.2,109.3L3,112.5
	c-1.2,0.3-2.2-0.8-1.9-1.9l2.3-6C5.7,106.6,8.5,108.1,11.2,109.3z"/>
<linearGradient id="SVGID_00000106850382067918840800000004014278866001114296_" gradientUnits="userSpaceOnUse" x1="25.0666" y1="146.1717" x2="25.1836" y2="146.1829" gradientTransform="matrix(33.3333 0 0 -33.3333 -808.3333 4970.0991)">
	<stop  offset="0" style="stop-color:#FBA23B"/>
	<stop  offset="1" style="stop-color:#FF8000"/>
</linearGradient>
<path style="fill:url(#SVGID_00000106850382067918840800000004014278866001114296_);" d="M28.6,93.1l0.8-0.8l-1.7,9.4
	c-0.1,0.4,0.2,0.8,0.5,0.9l-0.6,0.2c-0.4-0.1-0.6-0.5-0.6-0.9l1.5-8.3C28.5,93.5,28.6,93.1,28.6,93.1z"/>
<linearGradient id="SVGID_00000150104783591665073410000014389372867861508285_" gradientUnits="userSpaceOnUse" x1="25.3214" y1="146.4607" x2="26.007" y2="147.4164" gradientTransform="matrix(33.3333 0 0 -33.3333 -808.3333 4970.0991)">
	<stop  offset="0" style="stop-color:#3C2200"/>
	<stop  offset="1" style="stop-color:#512D00"/>
</linearGradient>
<path style="fill:url(#SVGID_00000150104783591665073410000014389372867861508285_);" d="M20,93.4c0.4,0.8,1.8,0.9,2.3,0.8l6.3-1.1
	L83,38.7l-0.5-0.5L28.7,92l-0.2,0l-6.1,1.1L20,93.4z"/>
<linearGradient id="SVGID_00000018929140015545045960000002801159298025357715_" gradientUnits="userSpaceOnUse" x1="25.2472" y1="147.8397" x2="25.9849" y2="146.8118" gradientTransform="matrix(33.3333 0 0 -33.3333 -808.3333 4970.0991)">
	<stop  offset="0" style="stop-color:#975500"/>
	<stop  offset="1" style="stop-color:#512D00"/>
</linearGradient>
<path style="fill:url(#SVGID_00000018929140015545045960000002801159298025357715_);" d="M20,93.4l1.5-8.3l0-0.2l53.8-53.8l-0.5-0.5
	L20.5,84.9l-1.1,6.3"/>
<linearGradient id="SVGID_00000163766880085248379650000008317721141113530509_" gradientUnits="userSpaceOnUse" x1="25.568" y1="147.3104" x2="25.958" y2="146.8102" gradientTransform="matrix(33.3333 0 0 -33.3333 -808.3333 4970.0991)">
	<stop  offset="0" style="stop-color:#FBA23B"/>
	<stop  offset="1" style="stop-color:#FF8000"/>
</linearGradient>
<path style="fill:url(#SVGID_00000163766880085248379650000008317721141113530509_);" d="M74.1,29.9L19.6,84.4l-7.7,1.4
	c-0.4,0.1-0.8-0.2-0.9-0.5l-0.2,0.6c0.1,0.4,0.5,0.6,0.9,0.6L20,85c0.1,0,0.6-0.1,0.6-0.1l0.9-0.9l53.5-53.5L74.1,29.9z"/>
<linearGradient id="SVGID_00000047022301097392465610000002292418745397090715_" gradientUnits="userSpaceOnUse" x1="25.3727" y1="147.5151" x2="25.5236" y2="147.3643" gradientTransform="matrix(33.3333 0 0 -33.3333 -808.3333 4970.0991)">
	<stop  offset="0" style="stop-color:#FF8000"/>
	<stop  offset="1" style="stop-color:#FF9D00;stop-opacity:0"/>
</linearGradient>
<path style="fill:url(#SVGID_00000047022301097392465610000002292418745397090715_);" d="M74.9,30.6L20.5,84.9c0,0-0.4,0.1-0.6,0.1
	l-8.3,1.5c-0.4,0.1-0.8-0.2-0.9-0.6l1-2.6c0.4-1.1,1.1-2.1,1.9-2.9l55.5-55.5L74.9,30.6z"/>
<linearGradient id="SVGID_00000163783627294836825610000016858472011816569244_" gradientUnits="userSpaceOnUse" x1="27.0594" y1="146.7331" x2="26.1512" y2="146.9281" gradientTransform="matrix(33.3333 0 0 -33.3333 -808.3333 4970.0991)">
	<stop  offset="0" style="stop-color:#C86F34"/>
	<stop  offset="1" style="stop-color:#C86F34;stop-opacity:0"/>
</linearGradient>
<path style="fill:url(#SVGID_00000163783627294836825610000016858472011816569244_);" d="M83,38.7L28.7,93c0,0-0.1,0.4-0.1,0.6
	l-1.5,8.3c-0.1,0.4,0.2,0.8,0.6,0.9l2.6-1c1.1-0.4,2.1-1.1,2.9-1.9l55.5-55.5L83,38.7z"/>
<linearGradient id="SVGID_00000025436764586008601610000004385681000475018906_" gradientUnits="userSpaceOnUse" x1="27.1348" y1="148.9711" x2="27.2908" y2="148.3248" gradientTransform="matrix(33.3333 0 0 -33.3333 -808.3333 4970.0991)">
	<stop  offset="0" style="stop-color:#EF708C"/>
	<stop  offset="1" style="stop-color:#FF5776"/>
</linearGradient>
<path style="fill:url(#SVGID_00000025436764586008601610000004385681000475018906_);" d="M104,29.1l5.1-5.1c2.5-2.5,3.4-6.1,2.6-9.4
	l-2.2,2.2c-3.1,3.1-7.6,3.6-10.1,1.1L87.8,6.3l-3.4,3.4l1,0.8L104,29.1z"/>
<linearGradient id="SVGID_00000025402244059423446620000016590187507930822313_" gradientUnits="userSpaceOnUse" x1="27.2368" y1="148.4924" x2="27.2605" y2="148.9118" gradientTransform="matrix(33.3333 0 0 -33.3333 -808.3333 4970.0991)">
	<stop  offset="0" style="stop-color:#FF6688"/>
	<stop  offset="1" style="stop-color:#FB9C9C"/>
</linearGradient>
<path style="fill:url(#SVGID_00000025402244059423446620000016590187507930822313_);" d="M99.4,17.9c2.5,2.5,7,2,10.1-1.1l1.7-1.7
	l-6.3-6.3c-4.3-4.3-11-4.7-15.8-1.3L99.4,17.9z"/>
<path class="st29" d="M105.9,16.4L105.9,16.4L105.9,16.4L105.9,16.4c-0.2,0.2-0.1,0.2-0.1,0.2v0c0,0,0,0,0,0l0,0h0.1l0.1-0.1v-0.1
	l0,0C106,16.4,106,16.4,105.9,16.4z"/>
<path class="st29" d="M106.8,17.5L106.8,17.5c-0.1,0.1-0.1,0.1-0.1,0.1c0,0,0,0,0,0l0,0.1v0c0,0,0.1,0.1,0.1,0.1h0.1l0,0l0,0
	c0,0,0.1-0.1,0.1-0.1C106.9,17.6,106.9,17.6,106.8,17.5L106.8,17.5z"/>
<path class="st29" d="M110.6,17.8C110.6,17.8,110.7,17.8,110.6,17.8L110.6,17.8l0-0.1l0,0c0-0.1-0.1-0.1-0.2,0h0l0,0.1l0,0
	c0,0,0.1,0.1,0.1,0.1C110.6,17.8,110.6,17.8,110.6,17.8z"/>
<path class="st29" d="M109.8,17.1L109.8,17.1C109.8,17.1,109.8,17.1,109.8,17.1C109.9,17,109.9,17,109.8,17.1
	c0.1-0.1,0.1-0.1,0.1-0.1c0,0,0-0.1,0-0.2l0,0h-0.1v0.1v-0.1h-0.1c-0.1,0-0.1,0-0.2,0c0,0,0,0,0,0v0c0,0.1,0,0.1,0,0.1l0,0
	c0,0,0,0,0,0C109.7,17.1,109.7,17.1,109.8,17.1z"/>
<path class="st29" d="M107.8,21.4c0.1,0.1,0.2,0.1,0.2,0h0c0,0,0,0,0,0l0,0c0,0,0,0,0,0l0-0.1v0v0c0,0,0,0,0-0.1v-0.1v0
	c0,0,0-0.1-0.1-0.1c-0.1-0.1-0.2-0.1-0.2,0h0v0c0,0,0,0-0.1,0l-0.1,0.1l0,0v0l0,0c0,0,0,0,0,0l0,0.1l0,0v0
	C107.6,21.3,107.7,21.4,107.8,21.4C107.7,21.4,107.7,21.4,107.8,21.4L107.8,21.4L107.8,21.4z"/>
<path class="st29" d="M110.5,14.9L110.5,14.9l0.1,0c0,0,0.1,0,0.1,0c0.1-0.1,0-0.1,0-0.2c0,0,0,0,0,0c0,0,0-0.1-0.1-0.1
	c-0.1,0-0.1,0-0.1,0l0,0v0.1l0,0.1v0C110.4,14.9,110.4,15,110.5,14.9C110.5,14.9,110.5,14.9,110.5,14.9z"/>
<path class="st29" d="M102.9,26.5h-0.1h-0.1v0c0,0-0.1,0-0.1,0.1l0,0v0c0,0,0,0.1,0,0.2v0l0,0c0,0,0.1,0,0.1,0.1h0l0,0l0.1-0.1v0
	l0,0c0,0,0,0,0,0c0,0,0,0.1,0,0.1v0.1l0,0c0.1,0.1,0.2,0.1,0.2,0l0,0v0l0-0.1v0c0,0,0-0.1-0.1-0.1c0,0-0.1-0.1-0.1-0.1h0l-0.1,0
	c0,0,0,0,0,0c0,0,0-0.1,0-0.1c0,0,0-0.1,0-0.1v0C103,26.6,102.9,26.5,102.9,26.5z"/>
<path class="st29" d="M109.6,21.1L109.6,21.1c0-0.1,0.1-0.2,0-0.2c0,0,0,0,0,0c0,0,0-0.1,0-0.1v0l-0.1,0h0c0,0,0,0-0.1,0h0l0,0
	c0,0-0.1,0-0.1,0c0,0,0,0,0,0v0V21l0,0v0.1l0.2,0.1l0.1,0h0C109.5,21.2,109.5,21.2,109.6,21.1C109.6,21.1,109.6,21.1,109.6,21.1z"/>
<path class="st29" d="M109.1,19.1C109.1,19.1,109.1,19.1,109.1,19.1c0.2-0.1,0.2-0.2,0.2-0.3v0c-0.1-0.1-0.2-0.2-0.4-0.1
	c0,0-0.1,0-0.1,0l0,0v0c0,0,0,0,0,0.1c0,0,0,0,0,0.1c0,0,0,0.1,0,0.1v0l0,0c0.1,0.1,0.1,0.1,0.2,0.1C108.9,19.1,109,19.1,109.1,19.1
	z"/>
<path class="st29" d="M106,24.1c-0.1,0-0.2,0.1-0.2,0.1c0,0.1-0.1,0.1-0.1,0.2v0.1l0.1,0c0,0,0,0,0,0c0,0,0.1,0.1,0.2,0.1l0,0
	c0,0,0,0,0,0l0,0c0,0,0,0,0.1-0.1v0l0-0.1h0C106.1,24.3,106.1,24.2,106,24.1L106,24.1L106,24.1z"/>
<path class="st29" d="M105.5,24.6C105.5,24.6,105.4,24.7,105.5,24.6L105.5,24.6l-0.1,0.2c0,0.1,0,0.1,0,0.1v0v0
	c0,0.1,0.1,0.1,0.1,0.1h0l0.1,0v0c0,0,0-0.1,0-0.1l0.1-0.1v0c0-0.1,0-0.1,0-0.1c0,0,0,0,0,0v0H105.5z"/>
<path class="st29" d="M107.1,23.2c-0.1,0-0.1,0.1-0.1,0.1v0.1l0.1,0.1h0c0.1,0,0.2,0,0.2-0.1c0,0,0-0.1-0.1-0.1H107.1L107.1,23.2z"
	/>
<path class="st29" d="M91.9,13.2L91.9,13.2L91.9,13.2l0,0.1c0,0.1,0.1,0.1,0.1,0.2h0c0,0,0,0,0.1,0h0l0.1-0.1v-0.1l-0.1-0.1h0
	C92,13.2,91.9,13.2,91.9,13.2z"/>
<path class="st29" d="M93.3,13.6l0,0.1c0,0,0,0,0,0c0,0,0,0,0,0v0l0,0.1h0c0,0,0.1,0,0.1,0l0.1-0.1v0v0c0-0.1,0-0.1,0-0.1
	C93.4,13.6,93.4,13.6,93.3,13.6L93.3,13.6z"/>
<path class="st29" d="M96.5,11.4L96.5,11.4L96.5,11.4l-0.1-0.1h0c-0.1,0-0.2,0-0.2,0.1v0l0.1,0.1h0c0.1,0,0.1,0,0.1,0
	C96.5,11.5,96.5,11.4,96.5,11.4z"/>
<path class="st29" d="M95.4,11.4L95.4,11.4L95.4,11.4c0-0.1,0-0.1,0-0.1v0c0-0.1,0-0.1-0.1-0.1h0l-0.1,0l0,0.1l0,0l0,0
	c-0.1,0-0.1,0.1-0.1,0.1v0v0c0,0,0.1,0.1,0.1,0.1h0c0,0,0,0,0,0C95.3,11.4,95.3,11.4,95.4,11.4z"/>
<path class="st29" d="M100.1,14.3L100.1,14.3l-0.1,0.1c0,0,0,0.1-0.1,0.2c0,0,0,0,0,0.1v0l0.1,0c0,0,0,0.1,0.1,0.1
	c0.1,0,0.2,0.1,0.2,0c0.1,0,0.2-0.1,0.2-0.1l0,0v-0.1c0,0,0,0,0-0.1v0v0c0,0,0-0.1-0.1-0.1c0,0-0.1-0.1-0.1-0.1h0H100.1
	C100.1,14.2,100.1,14.2,100.1,14.3z"/>
<path class="st29" d="M105.4,17.8l0.1-0.1v0l0,0l-0.1-0.2h-0.1l-0.1,0.1v0v0C105.3,17.7,105.4,17.8,105.4,17.8z"/>
<path class="st29" d="M108,17.8L108,17.8L108,17.8c0.2,0.1,0.2,0.1,0.3,0l0,0l0-0.1l0,0h0C108,17.6,108,17.7,108,17.8z"/>
<path class="st29" d="M105.9,16.7L105.9,16.7c0-0.1-0.1-0.1-0.2-0.1c-0.1,0-0.1,0.1-0.1,0.1v0l0.1,0.1h0
	C105.8,16.8,105.8,16.8,105.9,16.7C105.9,16.7,105.9,16.7,105.9,16.7z"/>
<path class="st29" d="M96.4,16c0.1,0,0.2-0.1,0.2-0.1v0c0,0,0,0,0,0v0c0,0,0,0,0,0v-0.1c0,0,0,0,0,0c0,0,0,0,0-0.1v0l0-0.1l0,0
	c0,0-0.1-0.1-0.1-0.1c-0.1,0-0.2,0.1-0.2,0.1l0,0v0c0,0,0,0,0,0.1l0,0.1v0l0,0c0,0,0,0,0,0.1v0V16h0c0,0,0,0,0,0c0,0,0,0,0.1,0
	C96.2,16.1,96.2,16.1,96.4,16L96.4,16L96.4,16z"/>
<path class="st29" d="M101,16.3L101,16.3c-0.1,0-0.1,0-0.2,0.1l0,0.1c0,0,0,0.1,0.1,0.1c0.1,0,0.2,0.1,0.2,0l0,0l0-0.1
	C101.1,16.4,101.1,16.3,101,16.3z"/>
<path class="st29" d="M98.9,16.4L98.9,16.4L98.9,16.4c-0.1-0.1-0.1-0.1-0.1-0.1h0l-0.1,0l0,0.1c0,0.1,0.1,0.2,0.1,0.2
	C98.9,16.5,98.9,16.4,98.9,16.4z"/>
<path class="st29" d="M97.5,9.4L97.5,9.4c0.1-0.1,0.1-0.1,0.1-0.1c0-0.1-0.1-0.1-0.1-0.1h0h0c0,0-0.1,0-0.1,0
	c-0.1,0-0.1,0.1-0.1,0.1v0l0,0.1c0,0,0,0,0,0v0l0,0.1h0C97.4,9.5,97.4,9.5,97.5,9.4C97.4,9.4,97.4,9.4,97.5,9.4z"/>
<path class="st29" d="M97.5,21.9L97.5,21.9l0.1-0.2l0,0c0,0,0-0.1,0-0.1c0,0,0-0.1-0.1-0.1h0l-0.1,0.1c0,0,0,0,0,0
	c-0.1,0-0.1,0.1-0.2,0.1c0,0.1,0,0.1,0,0.1l0,0l0,0l0,0h0.1C97.5,21.9,97.5,21.9,97.5,21.9z"/>
<path class="st29" d="M102.6,13.1c-0.1,0-0.2,0-0.2,0.1l0,0v0v0.1v0h0c0,0,0,0.1,0.1,0.1c0,0.1,0.1,0.1,0.1,0.1h0h0c0,0,0,0,0.1,0
	l0.1,0h0.1l0.1-0.1v0c0,0,0,0,0,0c0,0,0,0,0-0.1c0,0,0-0.1,0-0.1l-0.1,0h0c0,0,0,0-0.1,0c0,0,0-0.1-0.1-0.1
	C102.7,13.1,102.6,13.1,102.6,13.1L102.6,13.1L102.6,13.1z"/>
<path class="st29" d="M103.5,10.5L103.5,10.5L103.5,10.5c0.1-0.1,0.1-0.1,0.1-0.1c0,0,0-0.1,0-0.1v0v0c0,0,0,0,0-0.1v0h0l-0.1-0.1
	c0,0-0.1-0.1-0.1,0c0,0-0.1,0-0.1,0.1v0h0v0c0,0,0,0,0,0c0,0-0.1,0.1-0.1,0.1c0,0,0,0.1,0,0.1v0.1h0.1c0,0,0,0,0.1,0l0,0H103.5z"/>
<path class="st29" d="M105.2,25.8c0,0,0.1,0,0.1,0l0,0v-0.1v0h0c0,0,0-0.1-0.1-0.1v0h-0.1v0l-0.2,0c0,0-0.1,0-0.1,0.1v0l0,0.1h0v0
	H105.2L105.2,25.8L105.2,25.8C105.2,25.8,105.2,25.8,105.2,25.8z"/>
<path class="st29" d="M105.2,8.3L105.2,8.3L105.2,8.3c-0.1,0.2-0.1,0.2-0.1,0.2v0v0l0.1,0.1h0c0.1,0,0.2-0.1,0.3-0.2l0,0l-0.1-0.1v0
	c0,0-0.1,0-0.1,0C105.3,8.3,105.3,8.3,105.2,8.3z"/>
<path class="st29" d="M106.6,11.4C106.5,11.4,106.5,11.4,106.6,11.4l-0.2,0v0c0,0.1,0.1,0.2,0.1,0.2l0,0h0c0,0,0.1,0,0.1,0
	c0,0,0,0,0.1,0h0l0.1-0.1v0c0-0.1-0.1-0.2-0.2-0.2C106.7,11.4,106.7,11.4,106.6,11.4C106.6,11.4,106.6,11.4,106.6,11.4z"/>
<path class="st29" d="M100.6,8.2C100.6,8.2,100.6,8.1,100.6,8.2c0-0.1,0-0.1,0-0.1v0l-0.1-0.1h0c0,0-0.1,0-0.1,0c0,0,0,0,0,0.1v0
	c0,0-0.1,0.1-0.1,0.1v0l0,0v0.1l0.1,0.1h0c0.1,0,0.2,0,0.2,0h0L100.6,8.2z"/>
<path class="st29" d="M108.3,10.3L108.3,10.3l-0.1-0.1h0c-0.1,0-0.2,0.1-0.2,0.1v0v0v0v0l0.1,0.1h0.1l0.1-0.1L108.3,10.3z"/>
<path class="st29" d="M107.2,12.2C107.2,12.2,107.2,12.2,107.2,12.2L107.2,12.2l0,0.2h0c0.1,0,0.1,0,0.1,0c0,0,0.1-0.1,0.1-0.1
	c0,0,0-0.1,0-0.1l0,0L107.2,12.2L107.2,12.2z"/>
<path class="st29" d="M102.8,9C102.8,9,102.8,9,102.8,9l-0.1,0.1c0,0-0.1,0.1-0.1,0.1v0l0.1,0.1c0,0,0,0.1,0.1,0.1c0,0,0,0,0.1,0
	c0,0,0.1,0,0.1,0c0,0,0.1-0.1,0.1-0.1v0c0,0,0.1-0.1,0.1-0.1c0,0,0-0.1-0.1-0.1h0c0,0,0,0,0,0S102.9,9,102.8,9L102.8,9L102.8,9z"/>
<path class="st29" d="M101.4,24.2L101.4,24.2c-0.1,0.1-0.1,0.1-0.1,0.2c0,0,0,0.1,0,0.1c0,0,0,0,0.1,0h0h0.1l0,0c0,0,0-0.1,0-0.1
	c0-0.1,0.1-0.1,0.1-0.1v0l-0.1-0.1h0C101.5,24.1,101.4,24.1,101.4,24.2L101.4,24.2z"/>
<path class="st29" d="M98.5,20.8c0,0-0.1,0-0.1,0.1v0l0.1,0.1h0c0,0,0.1,0,0.1,0c0,0,0.1,0,0.1,0h0l0.1-0.1v0c0-0.1,0-0.2-0.2-0.2
	c0,0,0,0,0,0h0L98.5,20.8z"/>
<path class="st29" d="M110,16.5C110,16.5,110,16.5,110,16.5C110,16.5,110,16.5,110,16.5h-0.1c0,0,0,0-0.1,0h0l-0.1,0.1v0v0
	c0,0,0,0,0,0c0,0,0,0,0,0.1v0c0,0,0,0.1,0,0.1v0v0l0,0.1h0c0,0,0.1,0,0.1,0h0.1c0.1,0,0.1,0,0.2,0h0l0.1,0v0v0l0-0.1v0
	c0,0,0,0,0-0.1C110.3,16.7,110.2,16.5,110,16.5L110,16.5z"/>
<path class="st29" d="M104,15L104,15L104,15c-0.1,0.1-0.1,0.1-0.1,0.1c0,0,0,0.1,0,0.2c0,0,0,0.1,0.1,0.1c0,0,0.1,0,0.1-0.1l0,0v0
	c0,0,0,0,0,0l0.1,0l0-0.1h0v0c0,0,0,0,0-0.1V15c0,0-0.1-0.1-0.1-0.1C104,14.9,104,15,104,15z"/>
<path class="st29" d="M102.7,17.6C102.7,17.5,102.7,17.5,102.7,17.6L102.7,17.6L102.7,17.6c-0.1-0.1-0.2-0.1-0.2-0.1
	c-0.1,0-0.1,0.1-0.1,0.1h0v0.1c0,0,0,0,0,0l0,0l0,0v0c0,0.1,0.1,0.1,0.1,0.1h0h0c0,0,0.1,0.1,0.2,0h0l0-0.1c0,0,0.1,0,0.1,0
	c0,0,0-0.1,0-0.1C102.8,17.7,102.8,17.7,102.7,17.6C102.7,17.6,102.7,17.6,102.7,17.6z"/>
<path class="st29" d="M100.3,12.2L100.3,12.2L100.3,12.2c0-0.1-0.1-0.2-0.2-0.2c0,0-0.1,0-0.1,0.1v0l0,0v0l0.1,0.1L100.3,12.2
	C100.3,12.3,100.3,12.3,100.3,12.2z"/>
<path class="st29" d="M97.8,12.1C97.8,12,97.8,12,97.8,12.1c0-0.2,0-0.2,0-0.3l0,0c-0.1,0-0.2-0.1-0.4,0.2c0,0,0,0.1,0,0.1V12h0
	c0,0,0,0,0,0.1c0,0,0,0,0,0c0,0,0,0,0.1,0.1v0h0c0.1,0,0.2,0,0.2,0C97.7,12.2,97.8,12.1,97.8,12.1z"/>
<path class="st29" d="M109.2,13.5C109.2,13.5,109.2,13.5,109.2,13.5L109.2,13.5H109h0c-0.1,0.1-0.1,0.2-0.1,0.3v0l0,0h0l0,0.1
	c0.1,0.1,0.2,0.1,0.3,0.1c0,0,0.1,0,0.1,0l0.1,0v0h0v-0.1c0,0,0,0,0-0.1c0,0,0-0.1,0-0.1l0-0.1L109.2,13.5L109.2,13.5
	C109.3,13.6,109.3,13.6,109.2,13.5C109.3,13.6,109.3,13.6,109.2,13.5L109.2,13.5L109.2,13.5C109.2,13.5,109.2,13.5,109.2,13.5z"/>
<path class="st29" d="M107.5,12.5C107.5,12.5,107.5,12.5,107.5,12.5l-0.2,0.1v0c0,0,0,0.1,0,0.1c0,0,0,0,0,0.1v0v0l0.1,0.1
	c0,0,0,0.1,0.1,0.1c0,0,0,0,0.1,0h0c0,0,0.1,0,0.1-0.1l0-0.1c0,0,0,0,0,0l0-0.1v0c0,0,0,0,0-0.1v0l-0.1-0.1l0,0h0
	C107.6,12.5,107.6,12.5,107.5,12.5C107.6,12.5,107.6,12.5,107.5,12.5L107.5,12.5z"/>
<path class="st29" d="M104,12.1L104,12.1L104,12.1l-0.1,0.1h0h0l-0.1,0.1v0c0,0.1,0,0.2,0.1,0.2c0,0,0.1,0,0.1,0s0,0,0,0l0,0h0.1
	l0.1-0.1v-0.1l0,0l-0.1-0.1C104.1,12.2,104.1,12.1,104,12.1L104,12.1z"/>
<path class="st29" d="M99.8,19.8c0,0-0.1,0-0.1,0.1l0,0l0.1,0.1h0c0,0,0.1,0,0.1,0c0,0,0-0.1,0.1-0.1c0,0,0,0,0-0.1v0H99.8
	L99.8,19.8z"/>
<path class="st29" d="M96.5,20C96.5,20,96.5,20,96.5,20C96.5,20,96.5,20,96.5,20L96.5,20l0,0.2c0,0.1,0,0.1,0.1,0.1v0
	c0.1,0,0.1,0,0.1,0h0l0.1-0.1v0c0,0,0-0.1,0-0.1V20v0c0-0.1-0.1-0.1-0.1-0.1h0l0,0L96.5,20z"/>
<path class="st29" d="M102,19.5L102,19.5c0-0.1-0.1-0.1-0.2-0.1c-0.1,0-0.1,0.1-0.1,0.1c0,0.1,0,0.1,0.1,0.1l0,0l0.1,0
	C102,19.6,102,19.6,102,19.5z"/>
<path class="st29" d="M100,18.2c-0.1,0-0.1,0-0.1,0l0,0c0,0,0,0,0,0.1v0v0l0.1,0c0,0,0,0,0,0c0,0,0,0,0,0.1v0l0,0h0
	c0.1,0,0.1,0,0.2-0.1l0,0l-0.1-0.1C100.1,18.4,100.1,18.3,100,18.2C100.1,18.3,100.1,18.3,100,18.2z"/>
<path class="st29" d="M103.1,18C103.1,18.1,103.1,18.1,103.1,18c-0.1,0.1-0.1,0.2,0,0.2l0,0h0c0,0,0,0.1,0.1,0.2v0l0.1,0.1h0
	c0,0,0,0,0,0c0,0,0.1,0,0.1,0c0,0,0.1,0,0.1,0h0l0.1,0c0,0,0,0,0-0.1v0l0,0v0v0v0l0,0v0v0l-0.1-0.1h0c0,0-0.1,0-0.1,0
	c0,0-0.1,0-0.1,0c0,0,0,0-0.1-0.1l0,0L103.1,18z"/>
<path class="st29" d="M93.6,14.3L93.6,14.3c-0.1,0-0.1,0-0.1,0c0,0-0.1,0-0.1,0.1v0l0,0.1c0,0,0,0.1,0,0.1l0,0h0.1l0,0
	c0.1-0.1,0.1-0.1,0.1-0.2c0,0,0,0,0-0.1h0.1l-0.1,0C93.7,14.4,93.7,14.4,93.6,14.3z"/>
<path class="st29" d="M105.6,19.8c0,0.1,0,0.1,0.1,0.1l0,0l0.1,0c0,0,0.1,0,0.1-0.1v0l-0.1-0.1h0C105.8,19.7,105.7,19.7,105.6,19.8
	C105.7,19.7,105.6,19.7,105.6,19.8z"/>
<path class="st29" d="M96,2.4c0.1,0,0.2-0.1,0.2-0.1V2.2l-0.1-0.1h0c-0.1,0-0.2,0-0.2,0.1C95.9,2.2,95.9,2.3,96,2.4L96,2.4L96,2.4z"
	/>
<path class="st29" d="M104.3,14.2L104.3,14.2L104.3,14.2L104.3,14.2c0.1-0.2,0-0.2,0-0.2h0l0,0h0l-0.1,0.1l0,0.1l0,0.1h0
	C104.2,14.2,104.2,14.2,104.3,14.2z"/>
<path class="st29" d="M103,13.5L103,13.5c0.1-0.1,0.1-0.1,0.1-0.1c0,0,0,0,0,0v0l0-0.1c0,0-0.1,0-0.1,0l-0.1,0.1v0v0
	c0,0.1,0,0.1,0,0.1C102.9,13.5,102.9,13.5,103,13.5L103,13.5z"/>
<path class="st29" d="M99.4,14.9L99.4,14.9L99.4,14.9l0,0.2h0c0.1,0,0.2,0,0.2-0.1l0,0l0-0.1h0C99.6,14.8,99.5,14.8,99.4,14.9
	C99.5,14.9,99.4,14.9,99.4,14.9z"/>
<path class="st29" d="M100.5,15.2L100.5,15.2L100.5,15.2c0,0.1,0,0.1,0,0.1s0,0,0,0c0,0.1,0,0.1,0.1,0.1h0l0.1,0v-0.1l0,0l0,0
	c0.1,0,0.1-0.1,0.1-0.1v0v0c0,0-0.1-0.1-0.1-0.1h0l0,0C100.6,15.2,100.5,15.1,100.5,15.2z"/>
<path class="st29" d="M92,6.8l-0.1,0v0l0,0l0,0.2l0.1,0l0.1,0v0v0C92.1,6.9,92.1,6.9,92,6.8z"/>
<path class="st29" d="M89.5,6.3L89.5,6.3L89.5,6.3c-0.2-0.1-0.2-0.1-0.2-0.1l0,0l0,0.1v0h0C89.4,6.4,89.5,6.4,89.5,6.3z"/>
<path class="st29" d="M91.3,7.8L91.3,7.8c0,0.1,0.1,0.2,0.2,0.2c0.1,0,0.1,0,0.1-0.1v0l-0.1-0.1h0C91.5,7.8,91.4,7.7,91.3,7.8
	C91.4,7.8,91.3,7.8,91.3,7.8z"/>
<path class="st29" d="M100.5,10.5c-0.1,0-0.2,0-0.2,0.1v0l0,0l0,0c0,0,0,0,0,0v0.1v0c0,0,0,0,0,0.1l0,0.1c0,0,0,0,0,0
	c0,0,0,0.1,0.1,0.1c0.1,0,0.2,0,0.2-0.1l0,0v0c0,0,0,0,0-0.1l0-0.1v0v0c0,0,0,0,0-0.1v0v-0.1h0v0c0,0,0,0-0.1-0.1c0,0,0-0.1-0.1-0.1
	h0L100.5,10.5z"/>
<path class="st29" d="M96,9.2L96,9.2c0.1,0,0.1,0,0.2,0l0,0c0,0,0-0.1,0-0.1C96.1,9,96,9,95.9,9l0,0L96,9.2
	C95.9,9.1,95.9,9.2,96,9.2z"/>
<path class="st29" d="M98,9.6L98,9.6L98,9.6l0.1,0.1l0,0l0.1,0l0-0.1c0-0.1,0-0.2-0.1-0.2C98.2,9.5,98.1,9.5,98,9.6z"/>
<path class="st29" d="M98,16.7L98,16.7c-0.1,0-0.1,0-0.1,0.1c0,0.1,0,0.1,0.1,0.2h0h0c0,0,0.1,0,0.1,0c0.1,0,0.1-0.1,0.1-0.1l0,0
	l0-0.1v0l0-0.1C98.1,16.7,98.1,16.7,98,16.7C98,16.7,98,16.7,98,16.7z"/>
<path class="st29" d="M100.6,4.5L100.6,4.5l-0.1,0.2l0,0c0,0,0,0.1,0,0.1c0,0,0,0.1,0.1,0.1l0,0l0.1,0c0,0,0,0,0,0
	c0.1,0,0.2,0,0.2-0.1c0-0.1,0-0.1,0-0.1l0,0v0l0,0l-0.1,0C100.7,4.5,100.6,4.5,100.6,4.5z"/>
<path class="st29" d="M96.9,4.7c0.1,0,0.2,0,0.2,0l0,0v0V4.6v0h0c0,0,0-0.1-0.1-0.1c0-0.1,0-0.1-0.1-0.1h0h0c0,0,0,0-0.1,0l0,0
	l-0.1,0l-0.1,0.1v0c0,0,0,0,0,0c0,0,0,0,0,0.1c0,0,0,0.1,0,0.1v0l0,0.1c0,0,0,0,0.1,0c0,0,0,0.1,0,0.1C96.8,4.8,96.8,4.8,96.9,4.7
	L96.9,4.7L96.9,4.7z"/>
<path class="st29" d="M103.5,6.5L103.5,6.5L103.5,6.5c-0.1,0-0.1,0.1-0.1,0.1c0,0,0,0.1,0,0.1v0v0c0,0,0,0,0,0.1v0l0,0.1
	c0,0,0.1,0.1,0.1,0.1c0,0,0.1,0,0.1-0.1l0,0h0l0,0c0,0,0,0,0,0c0,0,0.1,0,0.1-0.1c0,0,0-0.1,0-0.1l0-0.1l-0.1,0
	C103.7,6.5,103.7,6.5,103.5,6.5L103.5,6.5L103.5,6.5z"/>
<path class="st29" d="M90.1,13.2c0,0-0.1,0-0.1,0h0l0,0.1v0l0,0c0,0,0,0.1,0,0.1v0H90v0h0.2c0,0,0.1,0,0.1-0.1v0l0-0.1l0,0v0
	L90.1,13.2L90.1,13.2L90.1,13.2C90.1,13.3,90.1,13.2,90.1,13.2z"/>
<path class="st29" d="M99.9,6.5l0.1,0l0,0v0c0,0,0.1-0.1,0.1-0.1v0v0c0,0,0-0.1-0.1-0.1l0,0h0c-0.1,0-0.1,0-0.2,0h0h0l-0.1,0.1h0
	l0,0c0,0,0,0,0,0c0,0,0-0.1,0-0.1l0-0.1h0c-0.1-0.1-0.2,0-0.2,0.1l0,0l0,0v0.1c0,0,0.1,0.1,0.1,0.1c0,0,0.1,0,0.1,0h0l0.1,0v0v0
	c0,0,0,0.1,0,0.1c0,0,0,0.1,0,0.1l0,0C99.8,6.5,99.9,6.5,99.9,6.5z"/>
<path class="st29" d="M90.5,9.8C90.5,9.8,90.5,9.7,90.5,9.8l-0.1-0.1h0c-0.1,0-0.1,0.1-0.1,0.2v0v0c0,0,0,0.1,0,0.1c0,0,0,0.1,0,0.1
	v0l0.1,0.1h0c0.1,0,0.1-0.1,0.1-0.2C90.6,10,90.6,9.9,90.5,9.8C90.6,9.8,90.6,9.8,90.5,9.8z"/>
<path class="st29" d="M94.7,17.3C94.7,17.3,94.7,17.3,94.7,17.3c0,0.1,0,0.1,0,0.2v0l0.1,0.1h0c0,0,0.1,0,0.1,0c0,0,0.1,0,0.1-0.1v0
	c0,0,0.1,0,0.1-0.1v0l0,0l0-0.1l0-0.1h0c-0.1,0-0.2,0-0.2,0c0,0,0,0,0,0h0L94.7,17.3z"/>
<path class="st29" d="M90,8.9L90,8.9l0.1-0.1v0c0-0.1-0.1-0.1-0.2-0.1h0h0h0h0l0,0.1l0,0.1L90,8.9L90,8.9z"/>
<path class="st29" d="M90.1,10.7C90.1,10.7,90.1,10.7,90.1,10.7L90.1,10.7L90,10.8v0c0,0.1,0.1,0.1,0.1,0.1c0,0,0.1,0,0.1,0
	c0,0,0.1-0.1,0.1-0.1L90.1,10.7L90.1,10.7L90.1,10.7z"/>
<path class="st29" d="M94.8,10.5c-0.1,0-0.1,0-0.1,0h0c0,0-0.1,0-0.1,0l0,0l0,0.1c0,0-0.1,0.1,0,0.1c0,0,0,0,0,0.1c0,0,0,0,0,0.1
	c0,0,0.1,0,0.1,0h0v0c0,0,0.1,0,0.1,0c0,0,0.1,0,0.1-0.1v0c0,0,0,0,0,0S94.8,10.6,94.8,10.5L94.8,10.5L94.8,10.5z"/>
<path class="st29" d="M88.9,8.3L88.9,8.3C89,8.2,89,8.2,89,8.2c0,0,0-0.1,0-0.1c0,0,0,0-0.1-0.1l0,0l-0.1,0l0,0c0,0,0,0-0.1,0.1
	c-0.1,0-0.1,0.1-0.1,0.1l0,0l0,0.1h0C88.7,8.3,88.8,8.3,88.9,8.3L88.9,8.3z"/>
<path class="st29" d="M99,4.1c0,0,0.1,0,0.1-0.1v0L99,3.9h0c0,0-0.1,0-0.1,0c0,0-0.1,0-0.1,0h0l-0.1,0.1v0c0,0.1,0,0.2,0.1,0.2
	c0,0,0,0,0,0L99,4.1L99,4.1z"/>
<path class="st29" d="M99,11.5L99,11.5c0,0.1,0,0.2,0.1,0.2c0,0,0,0,0,0c0,0,0,0,0.1,0.1l0,0h0.1l0,0c0,0,0,0,0-0.1v0l0,0
	c0,0,0,0,0.1-0.1v0v0l0-0.1l0,0l0-0.1l-0.2-0.1l-0.1,0.1l0,0C99.1,11.4,99.1,11.4,99,11.5C99,11.4,99,11.4,99,11.5z"/>
<path class="st29" d="M92.8,9.8L92.8,9.8L92.8,9.8C92.9,9.8,93,9.8,93,9.8c0,0,0-0.1,0-0.2c0,0,0-0.1-0.1-0.2c0,0-0.1,0-0.2,0l0,0v0
	c0,0,0,0,0,0l0,0v0.1h0v0c0,0,0,0-0.1,0.1v0.1c0,0.1,0.1,0.1,0.1,0.1C92.8,9.9,92.8,9.9,92.8,9.8z"/>
<path class="st29" d="M94.6,7.6C94.6,7.6,94.6,7.7,94.6,7.6L94.6,7.6c0,0.1,0.1,0.1,0.1,0.1c0,0,0.1,0.1,0.2,0.1
	c0.1,0,0.1,0,0.1-0.1h0V7.7c0,0,0,0,0,0l0,0v0v0c0-0.1,0-0.1-0.1-0.1h0h0c0,0-0.1-0.1-0.2-0.1h0l0,0c0,0-0.1,0-0.1,0
	C94.6,7.4,94.5,7.5,94.6,7.6C94.6,7.5,94.6,7.5,94.6,7.6C94.6,7.6,94.6,7.6,94.6,7.6z"/>
<path class="st29" d="M95.8,13.3L95.8,13.3L95.8,13.3c0,0.1,0.1,0.2,0.1,0.2c0,0,0.1,0,0.1-0.1l0,0v0v0L96,13.3l-0.1,0
	C95.8,13.2,95.8,13.3,95.8,13.3z"/>
<path class="st29" d="M88.8,11.5C88.9,11.5,88.9,11.5,88.8,11.5l0.2-0.1v0c0,0,0-0.1,0-0.1c0,0,0,0,0-0.1v0v0L89,11.1
	c0,0,0-0.1-0.1-0.1c0,0,0,0-0.1,0h0c0,0-0.1,0-0.1,0l0,0c0,0,0,0,0,0l0,0v0c0,0,0,0,0,0.1v0l0,0.1v0h0c0,0,0,0,0,0
	C88.7,11.4,88.7,11.4,88.8,11.5L88.8,11.5z"/>
<path class="st29" d="M88.2,10.4c0.1,0,0.1-0.1,0.2-0.2c0,0,0-0.1,0-0.1c0,0,0,0,0-0.1l0-0.1l0-0.1c0,0,0-0.1,0-0.1
	c0,0-0.1-0.1-0.1-0.1l-0.1-0.1h0h0c0,0-0.1,0-0.2,0.1c0,0,0,0,0,0.1h0v0v0c0,0.1,0,0.1,0,0.2v0.1v0c0,0,0,0.1,0.1,0.1v0h0v0
	C88,10.4,88.1,10.5,88.2,10.4C88.1,10.5,88.1,10.4,88.2,10.4z"/>
<path class="st29" d="M92.2,12.6L92.2,12.6L92.2,12.6l0.2-0.1c0,0,0,0,0.1,0h0l0.1,0v0c0-0.1,0-0.2-0.1-0.2c0,0,0,0-0.1,0
	c0,0,0,0,0,0l0-0.1l-0.1,0l-0.1,0.1l0,0.1l0,0l0,0.1C92.1,12.5,92.1,12.6,92.2,12.6L92.2,12.6z"/>
<path class="st29" d="M97.9,6.1c0,0,0.1,0,0.2,0l0,0L98,5.8h0c0,0-0.1,0-0.1,0c0,0-0.1,0-0.1,0.1v0L97.9,6.1L97.9,6.1L97.9,6.1z"/>
<path class="st29" d="M100.9,7.2c0.1-0.1,0.1-0.1,0.2-0.2c0-0.1,0-0.1,0-0.2l0,0h-0.1h0c0,0-0.1,0-0.2,0l0,0c0,0,0,0,0,0.1
	c0,0,0,0,0,0.1c0,0,0,0.1,0,0.1v0l0.1,0.1h0c0,0,0.1,0,0.1,0H100.9L100.9,7.2z"/>
<path class="st29" d="M101.2,6.5C101.2,6.5,101.2,6.5,101.2,6.5L101.2,6.5l0.1-0.2c0-0.1,0-0.1-0.1-0.1v0c0-0.1-0.1,0-0.1,0h0
	L101,6.2v0c0,0,0,0.1,0,0.1l0,0.1v0c0,0.1,0.1,0.1,0.1,0.1c0,0,0,0,0,0H101.2L101.2,6.5z"/>
<path class="st29" d="M94.6,3.5L94.6,3.5l0,0.1c0,0,0,0,0,0.1v0l0.1,0.1h0h0c0,0,0.1,0,0.1,0c0,0,0.1,0,0.1-0.1H95v0h0l0.1-0.1h0
	l0-0.1c0,0,0,0,0.1-0.1c0,0,0.1,0,0.1-0.1V3.5v0c0,0,0,0,0-0.1l0-0.1h0c0,0-0.1,0-0.1,0c0,0,0,0-0.1-0.1c0,0-0.1,0-0.1,0
	c0,0-0.1,0-0.1,0.1c0,0,0,0.1,0,0.1s0,0,0,0h0h-0.1h0c0,0,0,0,0,0C94.7,3.4,94.7,3.5,94.6,3.5C94.6,3.5,94.6,3.5,94.6,3.5z"/>
<path class="st29" d="M91.2,6v0.1c0,0,0,0.1,0,0.1v0.1l0,0c0.1,0,0.1,0,0.2,0c0.1,0,0.1-0.1,0.1-0.2v0l0.1-0.1v0c0,0,0,0,0,0
	c0,0,0,0,0,0c0,0,0,0,0,0c0,0,0-0.1,0-0.1c0,0,0-0.1,0-0.1c0,0,0-0.1,0-0.1l0,0h-0.1l0,0l0,0l-0.1,0h0h0h0l-0.1,0v0c0,0,0,0,0,0l0,0
	l0,0v0l0,0L91,6h0C91.1,6,91.2,6,91.2,6z"/>
<path class="st29" d="M95.7,5.8L95.7,5.8c0,0.1,0.1,0.1,0.1,0.1c0.1,0,0.1,0,0.2-0.1c0,0,0-0.1,0-0.1l0,0h-0.1
	C95.7,5.7,95.7,5.8,95.7,5.8z"/>
<path class="st29" d="M97.4,7.6c0.1,0,0.1,0,0.1,0l0.1,0c0,0,0,0,0-0.1v0v0l0,0c0,0,0,0,0,0c0,0,0,0,0-0.1v0l-0.1-0.1h0
	c-0.1,0-0.2,0-0.2,0l0,0l0,0.1l0,0C97.3,7.4,97.3,7.5,97.4,7.6z"/>
<path class="st29" d="M94.3,7C94.3,7,94.4,7,94.3,7c0.1-0.1,0.1-0.2,0.1-0.2l0,0h0c0-0.1,0-0.1,0-0.2v0l-0.1-0.1h0c0,0-0.1,0-0.1,0
	s-0.1,0-0.1,0h0l-0.1,0c0,0,0,0-0.1,0.1l0,0v0v0v0v0l0,0c0,0,0,0,0,0v0l0.1,0.1h0c0,0,0,0,0.1,0c0,0,0.1,0,0.1,0c0,0,0,0.1,0.1,0.1
	l0,0L94.3,7z"/>
<path class="st29" d="M105.1,10.6L105.1,10.6c0.1,0,0.1,0,0.1,0c0,0,0.1,0,0.1-0.1v0l0-0.1c0,0,0-0.1,0-0.1v0l-0.1,0l0,0
	c-0.1,0-0.1,0.1-0.1,0.1c0,0,0,0,0,0.1H105L105.1,10.6C105.1,10.6,105.1,10.6,105.1,10.6z"/>
<path class="st29" d="M94.3,5.8l0-0.1h0c0,0-0.1,0-0.2,0c0,0-0.1,0.1-0.1,0.1v0v0L94.1,6h0C94.2,6,94.2,5.9,94.3,5.8z"/>
<path class="st29" d="M92.2,4.8c0-0.1,0-0.1,0-0.1l0,0l-0.1,0c0,0-0.1,0-0.1,0.1v0l0,0.1h0C92,4.9,92.1,4.9,92.2,4.8
	C92.2,4.9,92.2,4.9,92.2,4.8z"/>
<path class="st29" d="M91.4,15.2L91.4,15.2L91.4,15.2c-0.1,0.2-0.1,0.2-0.1,0.2v0v0l0.1,0.1h0c0.1,0,0.2-0.1,0.3-0.2l0,0l-0.1-0.1v0
	c0,0-0.1,0-0.1,0C91.5,15.2,91.5,15.2,91.4,15.2z"/>
<path class="st29" d="M95.5,17.1C95.5,17.1,95.4,17.1,95.5,17.1l-0.2,0v0c0,0.1,0.1,0.2,0.1,0.2l0,0h0c0,0,0.1,0,0.1,0
	c0,0,0,0,0.1,0h0l0.1-0.1v0c0-0.1-0.1-0.2-0.2-0.2C95.7,17,95.6,17,95.5,17.1C95.5,17.1,95.5,17.1,95.5,17.1z"/>
<path class="st29" d="M94.5,17.2L94.5,17.2l-0.1-0.1h0c-0.1,0-0.2,0.1-0.2,0.1v0v0v0v0l0.1,0.1h0.1l0.1-0.1L94.5,17.2z"/>
<path class="st29" d="M96.2,17.8C96.1,17.8,96.1,17.8,96.2,17.8L96.2,17.8l0,0.2h0c0.1,0,0.1,0,0.1,0c0,0,0.1-0.1,0.1-0.1
	c0,0,0-0.1,0-0.1l0,0L96.2,17.8L96.2,17.8z"/>
<path class="st29" d="M97.9,13.4C97.8,13.5,97.8,13.5,97.9,13.4l-0.1,0.1c0,0-0.1,0.1-0.1,0.1v0l0.1,0.1c0,0,0,0.1,0.1,0.1
	c0,0,0,0,0.1,0s0.1,0,0.1,0c0,0,0.1-0.1,0.1-0.1v0c0,0,0.1-0.1,0.1-0.1c0,0,0-0.1-0.1-0.1h0c0,0,0,0,0,0S98,13.5,97.9,13.4
	L97.9,13.4L97.9,13.4z"/>
<path class="st29" d="M101.3,19.6C101.3,19.7,101.2,19.7,101.3,19.6C101.2,19.6,101.2,19.6,101.3,19.6l-0.1-0.1l-0.1,0v0v0
	c0,0,0,0.1,0,0.1l0,0c0,0,0,0,0.1,0c0,0,0.1,0,0.1,0l0,0h0c0.1,0,0.2,0,0.2-0.1v0c0,0,0,0,0.1,0h0l0,0l0.1,0v-0.1v0v0l-0.1-0.1h0
	c0,0,0,0,0,0l0-0.1h-0.1C101.4,19.5,101.3,19.5,101.3,19.6z"/>
<path class="st29" d="M105.7,13.4c0.1,0,0.2-0.1,0.2-0.1v-0.1l-0.1-0.1h0c-0.1,0-0.2,0-0.2,0.1C105.5,13.3,105.5,13.3,105.7,13.4
	L105.7,13.4L105.7,13.4z"/>
<path class="st29" d="M104.6,27l0.1,0l0-0.1c0,0,0.1-0.1,0.1-0.2c0,0,0,0,0-0.1v0l0,0c0,0,0-0.1,0-0.1c0-0.1-0.1-0.1-0.2-0.1
	c-0.1,0-0.2,0.1-0.2,0.1l0,0v0.1c0,0,0,0,0,0.1v0v0c0,0,0,0.1,0.1,0.1C104.5,26.9,104.5,26.9,104.6,27L104.6,27L104.6,27
	C104.6,27,104.6,27,104.6,27z"/>
<path class="st29" d="M100.1,22.4l-0.1,0v0l0,0l0,0.2l0.1,0l0.1,0v0v0C100.3,22.5,100.2,22.5,100.1,22.4z"/>
<path class="st29" d="M97.6,21.9L97.6,21.9L97.6,21.9c-0.2-0.1-0.2-0.1-0.2-0.1l0,0l0,0.1v0h0C97.6,22,97.6,22,97.6,21.9z"/>
<path class="st29" d="M99.5,23.4L99.5,23.4c0,0.1,0.1,0.2,0.2,0.2c0.1,0,0.1,0,0.1-0.1v0l-0.1-0.1h0C99.6,23.4,99.6,23.3,99.5,23.4
	C99.5,23.4,99.5,23.4,99.5,23.4z"/>
<path class="st29" d="M104.1,24.8L104.1,24.8c0.1,0,0.1,0,0.2,0l0,0c0,0,0-0.1,0-0.1c-0.1-0.1-0.1-0.1-0.2,0l0,0L104.1,24.8
	C104,24.8,104,24.8,104.1,24.8z"/>
<path class="st29" d="M106.2,25.2L106.2,25.2L106.2,25.2l0.1,0.1l0,0l0.1,0l0-0.1c0-0.1,0-0.2-0.1-0.2
	C106.3,25.1,106.2,25.1,106.2,25.2z"/>
<path class="st29" d="M101.1,11.6v-0.2l-0.1,0h0v0c0-0.1,0-0.1-0.1-0.1h0l-0.1,0c0,0,0,0-0.1,0.1v0v0.1v0c0,0,0.1,0.1,0.1,0.1h0
	c0,0,0,0.1,0.1,0.1l0,0L101.1,11.6z"/>
<path class="st29" d="M108.7,20.1L108.7,20.1l-0.1,0.2l0,0c0,0,0,0.1,0,0.1c0,0,0,0.1,0.1,0.1l0,0l0.1,0c0,0,0,0,0,0
	c0.1,0,0.2,0,0.2-0.1c0-0.1,0-0.1,0-0.1l0,0v0l0,0l-0.1,0C108.8,20.1,108.7,20.1,108.7,20.1z"/>
<path class="st29" d="M102,14.7c0,0-0.1,0-0.1,0h0l0,0.1v0l0,0c0,0,0,0.1,0,0.1v0h0.1v0h0.2c0,0,0.1,0,0.1-0.1v0l0-0.1l0,0v0
	L102,14.7L102,14.7L102,14.7C102.1,14.7,102.1,14.7,102,14.7z"/>
<path class="st29" d="M109.6,17.5l0.1,0l0,0v0c0,0,0.1-0.1,0.1-0.1v0v0c0,0,0-0.1-0.1-0.1l0,0h0c-0.1,0-0.1,0-0.2,0h0h0l-0.1,0.1h0
	l0,0c0,0,0,0,0,0c0,0,0-0.1,0-0.1l0-0.1h0c-0.1-0.1-0.2,0-0.2,0.1l0,0l0,0v0.1c0,0,0.1,0.1,0.1,0.1c0,0,0.1,0,0.1,0h0l0.1,0v0v0
	c0,0,0,0.1,0,0.1c0,0,0,0.1,0,0.1l0,0C109.5,17.5,109.6,17.5,109.6,17.5z"/>
<path class="st29" d="M98.5,14.4L98.5,14.4l0-0.2c0,0,0,0-0.1-0.1h0l-0.1,0l-0.1,0v0c0,0.1,0,0.1,0,0.2v0L98.5,14.4L98.5,14.4z"/>
<path class="st29" d="M105.4,17.1L105.4,17.1c0.1-0.1,0.2-0.1,0.2-0.2c0,0,0-0.1,0-0.1c0,0,0,0-0.1-0.1l0,0l-0.1,0l0,0
	c0,0,0,0-0.1,0.1c-0.1,0-0.1,0.1-0.1,0.1l0,0l0,0.1h0C105.2,17.1,105.3,17.1,105.4,17.1L105.4,17.1z"/>
<path class="st29" d="M95.3,12.9L95.3,12.9c0.1-0.1,0.1-0.1,0.1-0.1l0,0v-0.1l0,0c0,0-0.1-0.1-0.1,0c0,0,0,0,0,0l0-0.1c0,0,0,0,0,0
	s0,0-0.1,0c0,0,0,0-0.1,0l0,0.1v0h0c0,0,0,0-0.1,0.1c0,0,0,0.1,0,0.1v0v0l0.1,0.1h0C95.2,12.9,95.2,12.9,95.3,12.9z"/>
<path class="st29" d="M97,16.8L97,16.8l-0.1-0.1h0h0v0l0,0c0,0-0.1,0-0.1,0c-0.1,0-0.1,0.1-0.1,0.1c0,0,0,0.1,0,0.1c0,0,0,0.1,0,0.1
	l0.1,0h0C96.8,16.9,96.9,16.9,97,16.8z"/>
<path class="st29" d="M95.8,16.5L95.8,16.5c0.1,0,0.1,0,0.1,0c0,0,0,0,0.1,0h0l0.1-0.1v0c0,0,0-0.1,0-0.1l0-0.1v0v0v0
	c0-0.1,0-0.1-0.1-0.1h0h-0.1c0,0-0.1-0.1-0.2,0c0,0-0.1,0-0.1,0l0,0v0.1l0,0l0,0.1l0,0c0,0,0,0,0,0l0,0.1L95.8,16.5
	C95.7,16.5,95.7,16.5,95.8,16.5z"/>
<path class="st29" d="M102.8,12.2C102.8,12.2,102.8,12.2,102.8,12.2c0-0.1,0-0.2-0.1-0.2h0l-0.1,0.1v0c0,0,0,0,0,0c0,0,0,0.1,0,0.2
	l0,0L102.8,12.2L102.8,12.2z"/>
<path class="st29" d="M108.6,15.2c0,0,0.1,0,0.1-0.1v0l-0.1-0.1h0c0,0-0.1,0-0.1,0c0,0-0.1,0-0.1,0h0l-0.1,0.1v0
	c0,0.1,0,0.2,0.1,0.2c0,0,0,0,0,0L108.6,15.2L108.6,15.2z"/>
<path class="st29" d="M100.9,25.5C100.9,25.5,101,25.5,100.9,25.5L100.9,25.5L100.9,25.5c0.1-0.1,0.1-0.1,0.1-0.1c0,0,0-0.1,0-0.2
	c0,0,0-0.1-0.1-0.2c0,0-0.1,0-0.2,0l0,0v0c0,0,0,0,0,0l0,0v0.1h0v0c0,0,0,0-0.1,0.1v0.1c0,0.1,0.1,0.1,0.1,0.1
	C100.9,25.5,100.9,25.5,100.9,25.5z"/>
<path class="st29" d="M102.7,23.2C102.7,23.2,102.7,23.3,102.7,23.2L102.7,23.2c0,0.1,0.1,0.1,0.1,0.1c0,0,0.1,0.1,0.2,0.1
	c0.1,0,0.1,0,0.1-0.1h0v-0.1c0,0,0,0,0,0l0,0v0v0c0-0.1,0-0.1-0.1-0.1h0h0c0,0-0.1-0.1-0.2-0.1h0l0,0c0,0-0.1,0-0.1,0
	C102.7,23.1,102.6,23.1,102.7,23.2C102.7,23.2,102.7,23.2,102.7,23.2C102.7,23.2,102.7,23.2,102.7,23.2z"/>
<path class="st29" d="M106,21.7c0,0,0.1,0,0.2,0l0,0l-0.1-0.2h0c0,0-0.1,0-0.1,0c0,0-0.1,0-0.1,0.1v0L106,21.7L106,21.7L106,21.7z"
	/>
<path class="st29" d="M109,22.8c0.1-0.1,0.1-0.1,0.2-0.2c0-0.1,0-0.1,0-0.2l0,0H109h0c0,0-0.1,0-0.2,0l0,0c0,0,0,0,0,0.1s0,0,0,0.1
	c0,0,0,0.1,0,0.1v0l0.1,0.1h0c0,0,0.1,0,0.1,0H109L109,22.8z"/>
<path class="st29" d="M109.3,22.2C109.3,22.1,109.3,22.1,109.3,22.2L109.3,22.2l0.1-0.2c0-0.1,0-0.1-0.1-0.1v0c0-0.1-0.1,0-0.1,0h0
	l-0.1,0.1v0c0,0,0,0.1,0,0.1l0,0.1v0c0,0.1,0.1,0.1,0.1,0.1c0,0,0,0,0,0H109.3L109.3,22.2z"/>
<path class="st29" d="M102.7,19.1L102.7,19.1l0,0.1c0,0,0,0,0,0.1v0l0.1,0.1h0h0c0,0,0.1,0,0.1,0c0,0,0.1,0,0.1-0.1h0.1v0h0l0.1-0.1
	h0l0-0.1c0,0,0,0,0.1-0.1c0,0,0.1,0,0.1-0.1v-0.1v0c0,0,0,0,0-0.1l0-0.1h0c0,0-0.1,0-0.1,0c0,0,0,0-0.1-0.1c0,0-0.1,0-0.1,0
	c0,0-0.1,0-0.1,0.1c0,0,0,0.1,0,0.1s0,0,0,0h0H103h0c0,0,0,0,0,0C102.8,19,102.8,19.1,102.7,19.1C102.7,19.1,102.7,19.1,102.7,19.1z
	"/>
<path class="st29" d="M99.5,18.5v0.1c0,0,0,0.1,0,0.1v0.1l0,0c0.1,0,0.1,0,0.2,0c0.1,0,0.1-0.1,0.1-0.2v0l0.1-0.1v0c0,0,0,0,0,0
	c0,0,0,0,0,0c0,0,0,0,0,0c0,0,0-0.1,0-0.1c0,0,0-0.1,0-0.1c0,0,0-0.1,0-0.1l0,0h-0.1l0,0l0,0l-0.1,0h0h0h0l-0.1,0v0c0,0,0,0,0,0l0,0
	l0,0v0l0,0l0,0.1h0C99.5,18.5,99.5,18.5,99.5,18.5z"/>
<path class="st29" d="M94.5,17.1C94.5,17.1,94.5,17.1,94.5,17.1V17l-0.1-0.1h0c0,0-0.2,0-0.2,0.1v0l0,0.1h0
	C94.3,17.2,94.4,17.2,94.5,17.1C94.4,17.2,94.5,17.2,94.5,17.1z"/>
<path class="st29" d="M103.8,21.5L103.8,21.5c0,0.1,0.1,0.1,0.1,0.1s0.1,0,0.2-0.1c0,0,0-0.1,0-0.1l0,0h-0.1
	C103.9,21.4,103.8,21.4,103.8,21.5z"/>
<path class="st29" d="M105.5,23.2c0.1,0,0.1,0,0.1,0l0.1,0c0,0,0,0,0-0.1v0v0l0,0c0,0,0,0,0,0c0,0,0,0,0-0.1v0l-0.1-0.1h0
	c-0.1,0-0.2,0-0.2,0l0,0l0,0.1l0,0C105.4,23.1,105.5,23.1,105.5,23.2z"/>
<path class="st29" d="M102.4,22.7C102.5,22.7,102.5,22.7,102.4,22.7c0.1-0.1,0.1-0.2,0.1-0.2l0,0h0c0-0.1,0-0.1,0-0.2v0l-0.1-0.1h0
	c0,0-0.1,0-0.1,0c0,0-0.1,0-0.1,0h0l-0.1,0c0,0,0,0-0.1,0.1l0,0v0v0v0v0l0,0c0,0,0,0,0,0v0l0.1,0.1h0c0,0,0,0,0.1,0s0.1,0,0.1,0
	c0,0,0,0.1,0.1,0.1l0,0L102.4,22.7z"/>
<path class="st29" d="M102.4,21.5l0-0.1h0c0,0-0.1,0-0.2,0c0,0-0.1,0.1-0.1,0.1v0v0l0.1,0.1h0C102.3,21.6,102.4,21.5,102.4,21.5z"/>
<path class="st29" d="M100.3,20.4c0-0.1,0-0.1,0-0.1l0,0l-0.1,0c0,0-0.1,0-0.1,0.1v0l0,0.1h0C100.2,20.6,100.2,20.6,100.3,20.4
	C100.3,20.5,100.3,20.5,100.3,20.4z"/>
<linearGradient id="SVGID_00000011752395703007630930000004615939281277655725_" gradientUnits="userSpaceOnUse" x1="24.379" y1="145.8186" x2="24.4871" y2="145.7652" gradientTransform="matrix(33.3333 0 0 -33.3333 -808.3333 4970.0991)">
	<stop  offset="0" style="stop-color:#3C2200"/>
	<stop  offset="1" style="stop-color:#512D00"/>
</linearGradient>
<path style="fill:url(#SVGID_00000011752395703007630930000004615939281277655725_);" d="M11.2,109.3L3,112.5L11.2,109.3z"/>
<linearGradient id="SVGID_00000098222480908642633850000002163416069674826428_" gradientUnits="userSpaceOnUse" x1="24.3619" y1="145.8465" x2="24.4959" y2="145.7645" gradientTransform="matrix(33.3333 0 0 -33.3333 -808.3333 4970.0991)">
	<stop  offset="0" style="stop-color:#7A4400"/>
	<stop  offset="1" style="stop-color:#512D00"/>
</linearGradient>
<path style="fill:url(#SVGID_00000098222480908642633850000002163416069674826428_);" d="M3.4,104.6l-2.3,5.9c1,1.3,1.9,0,3.1-2.4
	C4.8,106.9,4.5,105.5,3.4,104.6z"/>
</svg>
