<?xml version="1.0" encoding="utf-8"?>
<!-- Generator: Adobe Illustrator 28.0.0, SVG Export Plug-In . SVG Version: 6.00 Build 0)  -->
<svg version="1.1" id="annotations" xmlns="http://www.w3.org/2000/svg" xmlns:xlink="http://www.w3.org/1999/xlink" x="0px"
	 y="0px" viewBox="0 0 90 90" style="enable-background:new 0 0 90 90;" xml:space="preserve">
<style type="text/css">
	.st0{fill:#F2A600;}
	.st1{fill:#FFCC32;}
	.st2{opacity:0.2;}
	.st3{fill:#424242;}
	.st4{fill:url(#SVGID_1_);}
	.st5{fill:url(#SVGID_00000119830160863690576520000006910980208470390919_);}
	.st6{fill:#FFF170;}
</style>
<path class="st0" d="M39.4,4.8L1.5,80.7c-1.4,2.9-0.2,6.5,2.7,7.9c0.8,0.4,1.7,0.6,2.5,0.6h75.8c3.2,0,5.9-2.7,5.8-5.9
	c0-0.9-0.2-1.8-0.6-2.5L49.9,4.8c-1.5-2.9-5-4-7.9-2.6C40.9,2.8,40,3.7,39.4,4.8L39.4,4.8z"/>
<path class="st1" d="M36.8,10.1l-35.6,71c-1.3,2.7-0.2,6.1,2.6,7.4c0.7,0.4,1.5,0.5,2.3,0.5h71.1c3.1,0,5.5-2.5,5.4-5.6l0,0
	c0-0.8-0.2-1.7-0.6-2.4l-35.4-71c-1.3-2.7-4.5-3.8-7.2-2.5C38.2,8.2,37.4,9.1,36.8,10.1L36.8,10.1z"/>
<g class="st2">
	<path class="st3" d="M44.7,23.5c3.4,0,6.1,2.7,5.8,5.8l-2.5,35c-0.3,1.8-2,3.1-3.9,2.9c-1.5-0.2-2.6-1.4-2.9-2.9l-2.5-35
		C38.7,26.2,41.3,23.5,44.7,23.5"/>
	<path class="st3" d="M44.7,70.2c2.4,0,4.4,2,4.4,4.4c0,2.4-2,4.4-4.4,4.4c-2.4,0-4.4-2-4.4-4.4C40.3,72.1,42.3,70.2,44.7,70.2"/>
</g>
<linearGradient id="SVGID_1_" gradientUnits="userSpaceOnUse" x1="368.4171" y1="-1493.1942" x2="368.4171" y2="-1502.3718" gradientTransform="matrix(6.25 0 0 -6.25 -2257.9375 -9310.25)">
	<stop  offset="0" style="stop-color:#424242"/>
	<stop  offset="1" style="stop-color:#212121"/>
</linearGradient>
<path class="st4" d="M44.7,23.5c3.4,0,6.1,2.7,5.8,5.8l-2.5,35c-0.3,1.8-2,3.1-3.9,2.9c-1.5-0.2-2.6-1.4-2.9-2.9l-2.5-35
	C38.7,26.2,41.3,23.5,44.7,23.5L44.7,23.5z"/>
<linearGradient id="SVGID_00000086680544808494947390000008777883652661006728_" gradientUnits="userSpaceOnUse" x1="364.7767" y1="-1489.6783" x2="364.7767" y2="-1498.8561" gradientTransform="matrix(6.25 0 0 -6.25 -2235.1875 -9285.375)">
	<stop  offset="0" style="stop-color:#424242"/>
	<stop  offset="1" style="stop-color:#212121"/>
</linearGradient>
<circle style="fill:url(#SVGID_00000086680544808494947390000008777883652661006728_);" cx="44.7" cy="74.5" r="4.4"/>
<path class="st6" d="M36.8,15.5C36,16.6,21.2,45.4,21.2,45.4s-1.3,2.2,0.5,3.4c1.7,1.2,3.2-0.2,3.9-1.3c0.7-1.1,14-26.9,14.5-28.1
	c0.4-1.3,0.1-2.8-0.8-3.9C38.3,14.5,37.4,14.7,36.8,15.5L36.8,15.5z"/>
<circle class="st6" cx="20.6" cy="53.6" r="2.4"/>
</svg>
