<?xml version="1.0" encoding="utf-8"?>
<!-- Generator: Adobe Illustrator 28.0.0, SVG Export Plug-In . SVG Version: 6.00 Build 0)  -->
<svg version="1.1" id="Layer_1" xmlns="http://www.w3.org/2000/svg" xmlns:xlink="http://www.w3.org/1999/xlink" x="0px" y="0px"
	 viewBox="0 0 800 800" style="enable-background:new 0 0 800 800;" xml:space="preserve">
<style type="text/css">
	.st0{fill:#E2574C;}
	.st1{fill:#D05046;}
	.st2{fill:#F0DDAB;}
	.st3{fill:#CCD0D2;}
	.st4{fill:#D8C69A;}
	.st5{fill:#BCC0C2;}
	.st6{fill:#AEB1B3;}
</style>
<g id="the-modern-web_x2F_clipboard">
	<g id="clipboard" transform="translate(19.000000, 17.000000)">
		<path id="Shape" class="st0" d="M131.3,48.1h499.4c22.9,0,41.6,21.7,41.6,48.1v625.6c0,26.5-18.7,48.1-41.6,48.1H131.3
			c-22.9,0-41.6-21.7-41.6-48.1V96.3C89.7,69.8,108.4,48.1,131.3,48.1z"/>
		<path id="Shape_00000100374049765814190320000013610432733563696042_" class="st1" d="M630.7,48.1H131.3
			c-22.9,0-41.6,21.7-41.6,48.1v30.1c0-26.5,18.7-48.1,41.6-48.1h499.4c22.9,0,41.6,21.7,41.6,48.1V96.2
			C672.3,69.8,653.6,48.1,630.7,48.1z"/>
		<path id="Shape_00000173139787812807581750000001237856831360192688_" class="st2" d="M183.3,132.3h395.4
			c11.4,0,20.8,10.8,20.8,24.1v505.3c0,13.2-9.4,24.1-20.8,24.1H183.3c-11.4,0-20.8-10.8-20.8-24.1V156.4
			C162.5,143.2,171.9,132.3,183.3,132.3z"/>
		<path id="Shape_00000003079278062857608540000010422237834082615701_" class="st3" d="M224.9,96.2h312.1c5.7,0,10.4,5.4,10.4,12
			v48.1c0,19.9-14,36.1-31.2,36.1H245.7c-17.2,0-31.2-16.2-31.2-36.1v-48.1C214.5,101.7,219.2,96.2,224.9,96.2z"/>
		<path id="Shape_00000095317364354390638000000004386828630854998670_" class="st4" d="M292.6,306.8h228.9c5.7,0,10.4-5.4,10.4-12
			s-4.7-12-10.4-12H292.6c-5.7,0-10.4,5.4-10.4,12S286.8,306.8,292.6,306.8z M521.5,342.9H292.6c-5.7,0-10.4,5.4-10.4,12
			c0,6.6,4.7,12,10.4,12h228.9c5.7,0,10.4-5.4,10.4-12C531.9,348.3,527.2,342.9,521.5,342.9z M521.5,403H292.6
			c-5.7,0-10.4,5.4-10.4,12c0,6.6,4.7,12,10.4,12h228.9c5.7,0,10.4-5.4,10.4-12C531.9,408.5,527.2,403,521.5,403z M250.9,282.7
			h-10.4c-5.7,0-10.4,5.4-10.4,12s4.7,12,10.4,12h10.4c5.7,0,10.4-5.4,10.4-12C261.4,288.1,256.7,282.7,250.9,282.7z M250.9,342.9
			h-10.4c-5.7,0-10.4,5.4-10.4,12c0,6.6,4.7,12,10.4,12h10.4c5.7,0,10.4-5.4,10.4-12C261.4,348.3,256.7,342.9,250.9,342.9z
			 M250.9,403h-10.4c-5.7,0-10.4,5.4-10.4,12c0,6.6,4.7,12,10.4,12h10.4c5.7,0,10.4-5.4,10.4-12C261.4,408.5,256.7,403,250.9,403z
			 M521.5,463.2H292.6c-5.7,0-10.4,5.4-10.4,12c0,6.6,4.7,12,10.4,12h228.9c5.7,0,10.4-5.4,10.4-12
			C531.9,468.6,527.2,463.2,521.5,463.2z M521.5,523.4H292.6c-5.7,0-10.4,5.4-10.4,12s4.7,12,10.4,12h228.9c5.7,0,10.4-5.4,10.4-12
			S527.2,523.4,521.5,523.4z M250.9,463.2h-10.4c-5.7,0-10.4,5.4-10.4,12c0,6.6,4.7,12,10.4,12h10.4c5.7,0,10.4-5.4,10.4-12
			C261.4,468.6,256.7,463.2,250.9,463.2z M250.9,523.4h-10.4c-5.7,0-10.4,5.4-10.4,12s4.7,12,10.4,12h10.4c5.7,0,10.4-5.4,10.4-12
			S256.7,523.4,250.9,523.4z"/>
		<path id="Shape_00000064356424790771868860000012085419488870471060_" class="st3" d="M313.4,0h135.3c17.2,0,31.2,16.2,31.2,36.1
			v60.2H282.2V36.1C282.2,16.2,296.2,0,313.4,0z"/>
		<path id="Shape_00000031919627242128248400000004323278924212636046_" class="st5" d="M214.5,108.3v24.1h332.9v-24.1
			c0-6.6-4.7-12-10.4-12H224.9C219.2,96.2,214.5,101.7,214.5,108.3z"/>
		<polygon id="Shape_00000132787143427252814900000009931564109147309217_" class="st6" points="282.2,72.2 479.8,72.2 479.8,96.3 
			282.2,96.3 		"/>
	</g>
</g>
</svg>
