<?xml version="1.0" encoding="utf-8"?>
<!-- Generator: Adobe Illustrator 28.0.0, SVG Export Plug-In . SVG Version: 6.00 Build 0)  -->
<svg version="1.1" id="_x32_" xmlns="http://www.w3.org/2000/svg" xmlns:xlink="http://www.w3.org/1999/xlink" x="0px" y="0px"
	 viewBox="0 0 800 800" style="enable-background:new 0 0 800 800;" xml:space="preserve">
<style type="text/css">
	.st0{fill:#DCFDFF;}
</style>
<g>
	<path class="st0" d="M751.1,400c0-15.8-10.5-29-24.8-33.4V250.9c14.3-4.4,24.8-17.6,24.8-33.4c0-19.4-15.7-35-35-35
		c-9.2,0-17.6,3.6-23.8,9.5l-100.1-57.8c0.6-2.5,1-5.2,1-7.9c0-19.4-15.7-35-35.1-35c-9.2,0-17.6,3.6-23.8,9.5L434.1,43
		c0.6-2.6,1-5.2,1-7.9c0-19.4-15.7-35-35.1-35c-19.4,0-35,15.7-35,35c0,2.7,0.4,5.3,0.9,7.9l-100.1,57.8c-6.3-5.9-14.6-9.5-23.8-9.5
		c-19.4,0-35.1,15.7-35.1,35c0,2.7,0.4,5.3,1,7.9L107.8,192c-6.3-5.9-14.6-9.5-23.9-9.5c-19.4,0-35,15.7-35,35
		c0,15.8,10.5,29,24.8,33.4v115.8c-14.3,4.4-24.8,17.6-24.8,33.4c0,15.8,10.5,28.9,24.8,33.4v115.7c-14.3,4.4-24.8,17.6-24.8,33.4
		c0,19.4,15.7,35,35,35c9.2,0,17.6-3.6,23.9-9.5l100.1,57.8c-0.6,2.6-1,5.2-1,7.9c0,19.3,15.7,35,35,35c9.2,0,17.6-3.6,23.9-9.5
		L365.9,757c-0.6,2.6-1,5.2-1,7.9c0,19.3,15.7,35,35,35c19.4,0,35.1-15.7,35.1-35c0-2.8-0.4-5.3-1-7.9l100.1-57.8
		c6.3,5.8,14.6,9.5,23.9,9.5c19.4,0,35.1-15.7,35.1-35c0-2.8-0.4-5.3-1-7.9L692.2,608c6.3,5.9,14.6,9.5,23.9,9.5
		c19.4,0,35-15.7,35-35c0-15.8-10.5-29-24.8-33.4V433.4C740.6,429,751.1,415.8,751.1,400z M276.1,118.4l100.1-57.8
		c6.3,5.9,14.6,9.5,23.8,9.5s17.6-3.6,23.8-9.5l100.1,57.8c-0.6,2.5-1,5.1-1,7.9c0,2.7,0.4,5.3,1,7.9L423.8,192
		c-6.3-5.9-14.6-9.5-23.8-9.5c-9.2,0-17.6,3.6-23.9,9.5l-100.1-57.8c0.6-2.5,1-5.2,1-7.9C277,123.6,276.7,120.9,276.1,118.4z
		 M231.8,640.3c-5.1,1.6-9.8,4.2-13.6,7.8L118,590.4c0.6-2.5,1-5.2,1-7.9c0-15.8-10.5-29-24.8-33.4V433.4c5.1-1.6,9.8-4.2,13.6-7.8
		l100.1,57.8c-0.6,2.5-1,5.1-1,7.9c0,15.8,10.5,29,24.8,33.4L231.8,640.3L231.8,640.3z M231.8,457.9c-5.1,1.6-9.8,4.2-13.6,7.8
		L118,407.9c0.6-2.5,1-5.2,1-7.9c0-15.8-10.5-29-24.8-33.4V250.9c5.1-1.6,9.8-4.2,13.6-7.8l100.1,57.8c-0.6,2.5-1,5.2-1,7.9
		c0,15.8,10.5,28.9,24.8,33.4L231.8,457.9L231.8,457.9z M218.1,283.2L118,225.4c0.6-2.5,1-5.1,1-7.9c0-2.7-0.4-5.3-1-7.9l100.1-57.8
		c6.3,5.9,14.6,9.5,23.9,9.5c9.2,0,17.6-3.6,23.8-9.5l100.1,57.8c-0.6,2.5-1,5.2-1,7.9c0,2.7,0.4,5.3,1,7.9l-100.1,57.8
		c-6.3-5.9-14.6-9.5-23.8-9.5C232.7,273.7,224.4,277.4,218.1,283.2z M389.8,731.6c-5.1,1.5-9.8,4.2-13.6,7.8l-100.1-57.8
		c0.6-2.5,1-5.2,1-7.8c0-15.8-10.5-29-24.8-33.4V524.6c5.1-1.6,9.8-4.2,13.6-7.8l100.1,57.8c-0.6,2.5-1,5.1-1,7.9
		c0,15.8,10.5,29,24.8,33.4L389.8,731.6L389.8,731.6z M389.8,549.1c-5.1,1.6-9.8,4.2-13.6,7.8l-100.1-57.8c0.6-2.5,1-5.2,1-7.9
		c0-15.8-10.5-29-24.8-33.4V342.1c5.1-1.6,9.8-4.2,13.6-7.8l100.1,57.8c-0.6,2.5-1,5.1-1,7.9c0,15.8,10.5,29,24.8,33.4L389.8,549.1
		L389.8,549.1z M400,365c-9.2,0-17.6,3.6-23.8,9.5l-100.1-57.8c0.6-2.5,1-5.1,1-7.9c0-2.7-0.4-5.3-1-7.9l100.1-57.8
		c6.3,5.9,14.6,9.5,23.9,9.5c9.2,0,17.6-3.6,23.8-9.5l100.1,57.8c-0.6,2.5-1,5.2-1,7.9c0,2.7,0.4,5.3,1,7.9l-100.1,57.8
		C417.6,368.6,409.2,365,400,365C400,365,400,365,400,365z M547.8,640.3c-14.3,4.4-24.8,17.6-24.8,33.4c0,2.7,0.4,5.3,1,7.8
		l-100.1,57.8c-3.8-3.6-8.5-6.2-13.6-7.8V615.9c14.3-4.4,24.8-17.6,24.8-33.4c0-2.7-0.4-5.4-1-7.9l100.1-57.8
		c3.8,3.6,8.5,6.2,13.6,7.8L547.8,640.3L547.8,640.3z M547.8,457.9c-14.3,4.4-24.8,17.6-24.8,33.4c0,2.7,0.4,5.3,1,7.9l-100.1,57.8
		c-3.8-3.6-8.5-6.2-13.6-7.8V433.4c14.3-4.4,24.8-17.6,24.8-33.4c0-2.7-0.4-5.3-1-7.9l100.1-57.8c3.8,3.6,8.5,6.2,13.6,7.8
		L547.8,457.9L547.8,457.9z M534.2,283.2l-100.1-57.8c0.6-2.5,1-5.1,1-7.9c0-2.7-0.4-5.3-1-7.9l100.1-57.8
		c6.2,5.9,14.6,9.5,23.8,9.5c9.2,0,17.6-3.6,23.9-9.5L682,209.6c-0.6,2.5-1,5.2-1,7.9c0,2.7,0.4,5.3,1,7.9l-100.1,57.8
		c-6.3-5.9-14.6-9.5-23.9-9.5C548.8,273.7,540.4,277.4,534.2,283.2z M705.8,549.1c-14.4,4.4-24.9,17.6-24.9,33.4
		c0,2.7,0.4,5.3,1,7.9l-100.1,57.8c-3.8-3.6-8.5-6.2-13.6-7.8V524.6c14.4-4.4,24.8-17.6,24.8-33.4c0-2.7-0.4-5.3-1-7.9l100.1-57.8
		c3.8,3.6,8.5,6.2,13.6,7.8L705.8,549.1L705.8,549.1z M705.8,366.6c-14.4,4.4-24.9,17.6-24.9,33.4c0,2.7,0.4,5.3,1,7.9l-100.1,57.8
		c-3.8-3.6-8.5-6.2-13.6-7.8V342.1c14.4-4.4,24.8-17.6,24.8-33.4c0-2.7-0.4-5.3-1-7.9l100.1-57.8c3.8,3.6,8.5,6.2,13.6,7.8V366.6z"
		/>
</g>
</svg>
