<?xml version="1.0" encoding="iso-8859-1"?>
<!-- Uploaded to: SVG Repo, www.svgrepo.com, Generator: SVG Repo Mixer Tools -->
<svg version="1.1" id="Layer_1" xmlns="http://www.w3.org/2000/svg" xmlns:xlink="http://www.w3.org/1999/xlink" 
	 viewBox="0 0 512 512" xml:space="preserve">
<rect x="10.199" y="77.004" style="fill:#EDEDED;" width="491.602" height="398.789"/>
<rect x="61.195" y="129.836" style="fill:#FFBC52;" width="389.61" height="294.145"/>
<rect x="139.729" y="201.434" style="fill:#D1392A;" width="77.514" height="75.474"/>
<path d="M501.801,66.805h-19.888V36.207c0-5.633-4.566-10.199-10.199-10.199s-10.199,4.566-10.199,10.199v30.598h-87.458V36.207
	c0-5.633-4.566-10.199-10.199-10.199c-5.633,0-10.199,4.566-10.199,10.199v30.598h-87.458V36.207
	c0-5.633-4.566-10.199-10.199-10.199s-10.199,4.566-10.199,10.199v30.598h-87.458V36.207c0-5.633-4.566-10.199-10.199-10.199
	s-10.199,4.566-10.199,10.199v30.598H10.199C4.566,66.805,0,71.371,0,77.004v398.789c0,5.633,4.566,10.199,10.199,10.199h491.602
	c5.633,0,10.199-4.566,10.199-10.199V77.004C512,71.371,507.434,66.805,501.801,66.805z M491.602,465.594H20.398V87.203h471.203
	V465.594z"/>
<path d="M40.287,54.566c5.633,0,10.199-4.566,10.199-10.199v-8.159c0-5.633-4.566-10.199-10.199-10.199s-10.199,4.566-10.199,10.199
	v8.159C30.088,50,34.654,54.566,40.287,54.566z"/>
<path d="M461.004,129.838c0-5.633-4.566-10.199-10.199-10.199H61.195c-5.633,0-10.199,4.566-10.199,10.199v294.141
	c0,5.633,4.566,10.199,10.199,10.199h389.61c5.633,0,10.199-4.566,10.199-10.199V129.838z M71.394,287.263h57.497v54.679H71.394
	V287.263z M149.29,287.263h57.674v54.679H149.29V287.263z M227.363,287.263h57.275v54.679h-57.275V287.263z M305.036,287.263h56.874
	v54.679h-56.874V287.263z M382.308,287.263h58.298v54.679h-58.298V287.263z M440.606,266.864h-58.298v-54.835h58.298V266.864z
	 M361.91,266.864h-56.874v-54.835h56.874V266.864z M284.637,266.864h-57.275v-54.835h57.275V266.864z M206.964,266.864H149.29
	v-54.835h57.674V266.864z M128.891,266.864H71.394v-54.835h57.497V266.864z M71.394,362.341h57.497v51.44H71.394V362.341z
	 M149.29,362.341h57.674v51.44H149.29V362.341z M227.363,362.341h57.275v51.44h-57.275V362.341z M305.036,362.341h56.874v51.44
	h-56.874V362.341z M440.606,413.78h-58.298v-51.44h58.298V413.78z M440.606,191.631h-58.298v-51.594h58.298V191.631z
	 M361.91,191.631h-56.874v-51.594h56.874V191.631z M284.637,191.631h-57.275v-51.594h57.275V191.631z M206.964,191.631H149.29
	v-51.594h57.674V191.631z M71.394,140.037h57.497v51.594H71.394V140.037z"/>
<path d="M325.355,113.721h149.928c5.633,0,10.199-4.566,10.199-10.199c0-5.633-4.566-10.199-10.199-10.199H325.355
	c-5.633,0-10.199,4.566-10.199,10.199C315.155,109.155,319.722,113.721,325.355,113.721z"/>
<path d="M266.199,113.721h14.279c5.633,0,10.199-4.566,10.199-10.199c0-5.633-4.566-10.199-10.199-10.199h-14.279
	c-5.633,0-10.199,4.566-10.199,10.199C256,109.155,260.566,113.721,266.199,113.721z"/>
<path d="M174.406,238.151h-9.179c-5.633,0-10.199-4.566-10.199-10.199c0-5.633,4.566-10.199,10.199-10.199h9.179
	c5.633,0,10.199,4.566,10.199,10.199C184.606,233.585,180.039,238.151,174.406,238.151z"/>
</svg>