<?xml version="1.0" encoding="utf-8"?>
<!-- Generator: Adobe Illustrator 28.0.0, SVG Export Plug-In . SVG Version: 6.00 Build 0)  -->
<svg version="1.1" id="Layer_1" xmlns="http://www.w3.org/2000/svg" xmlns:xlink="http://www.w3.org/1999/xlink" x="0px" y="0px"
	 viewBox="0 0 800 800" style="enable-background:new 0 0 800 800;" xml:space="preserve">
<style type="text/css">
	.st0{fill:#EFC44B;stroke:#000000;stroke-width:33.3333;stroke-linecap:round;stroke-linejoin:round;stroke-miterlimit:133.3333;}
	.st1{fill:#EFC44B;stroke:#000000;stroke-width:33.3333;stroke-miterlimit:133.3333;}
</style>
<path class="st0" d="M133.3,300v-84.3c0-10.3,2.4-20.6,7-29.8l26.3-52.6h166.7l33.3,66.7H700c18.4,0,33.3,14.9,33.3,33.3V300v300
	c0,36.8-29.8,66.7-66.7,66.7H600"/>
<path class="st1" d="M574.5,300H77c-22,0-37.9,20.9-32.2,42.1l75.1,275.4c7.9,29,34.3,49.1,64.3,49.1h472.1
	c22,0,37.9-20.9,32.2-42.1l-81.8-300C602.7,310.1,589.6,300,574.5,300z"/>
</svg>
