<?xml version="1.0" encoding="utf-8"?>
<!-- Generator: Adobe Illustrator 28.0.0, SVG Export Plug-In . SVG Version: 6.00 Build 0)  -->
<svg version="1.1" id="Layer_1" xmlns="http://www.w3.org/2000/svg" xmlns:xlink="http://www.w3.org/1999/xlink" x="0px" y="0px"
	 viewBox="0 0 800 800" style="enable-background:new 0 0 800 800;" xml:space="preserve">
<style type="text/css">
	.st0{fill:#FFFFFF;}
</style>
<g id="Layer_2_00000026162920613215240240000000267166409718488202_">
	<g id="icons_Q2">
		<path class="st0" d="M133.3,161.7c0.1-8.8,3.7-17.2,10-23.3C211.4,70.5,303.9,32.7,400,33.3c202.5,0,366.7,164.2,366.7,366.7
			S602.5,766.7,400,766.7c-96.1,0.7-188.6-37.1-256.7-105c-14.7-11-17.7-31.9-6.7-46.7c11-14.7,31.9-17.7,46.7-6.7
			c2.5,1.9,4.8,4.1,6.7,6.7c118.7,115.6,308.7,113,424.2-5.8s113-308.7-5.8-424.2C492,71.7,306.5,71.7,190,185
			c-11.8,12.9-31.9,13.7-44.7,1.9c-0.7-0.6-1.3-1.3-1.9-1.9C137.1,178.8,133.5,170.5,133.3,161.7z"/>
		<path class="st0" d="M556.7,376.7L425,243.3c-12.2-11.9-31.2-13.3-45-3.3c-14.5,9.8-18.4,29.4-8.6,43.9c1.5,2.2,3.3,4.3,5.3,6.1
			l76.7,76.7H66.7c-18.4,0-33.3,14.9-33.3,33.3l0,0c0,18.4,14.9,33.3,33.3,33.3h386.7L376.7,510c-13.1,11.6-14.3,31.6-2.7,44.7
			c1.8,2,3.8,3.8,6.1,5.3c13.8,10,32.8,8.6,45-3.3l131.7-133.3c12.9-11.8,13.7-31.9,1.9-44.7C558,377.9,557.3,377.3,556.7,376.7z"/>
	</g>
</g>
</svg>
