<?xml version="1.0" encoding="utf-8"?>
<!-- Generator: Adobe Illustrator 28.0.0, SVG Export Plug-In . SVG Version: 6.00 Build 0)  -->
<svg version="1.1" id="Layer_1" xmlns="http://www.w3.org/2000/svg" xmlns:xlink="http://www.w3.org/1999/xlink" x="0px" y="0px"
	 viewBox="0 0 800 800" style="enable-background:new 0 0 800 800;" xml:space="preserve">
<style type="text/css">
	.st0{fill:#4A5FA0;}
	.st1{fill:#B3B2B1;}
	.st2{fill:#949494;}
	.st3{fill:#FFFFFF;}
	.st4{fill:#F3FF00;stroke:#000000;stroke-width:33;stroke-linecap:round;stroke-linejoin:round;stroke-miterlimit:10;}
</style>
<path d="M750,197.4L602.3,50H67.5c-9.6,0.1-17.4,7.9-17.5,17.5v665c0,9.7,7.9,17.5,17.5,17.5h665c9.6,0,17.5-7.8,17.5-17.5V564.3
	c0-9.7-7.8-17.5-17.5-17.5s-17.5,7.8-17.5,17.5v-98.6h0.2c0,0.4-0.2,0.7-0.2,1c0,9.7,7.8,17.5,17.5,17.5s17.5-7.8,17.5-17.5
	c0-0.4-0.2-0.7-0.2-1h0.2v-75h-0.2c0-0.5,0.2-0.9,0.2-1.2c0-9.7-7.8-17.5-17.5-17.5c-9.7,0-17.5,7.8-17.5,17.5
	c0,0.4,0.2,0.8,0.2,1.2H715v-66.4h0.1l-0.1,0.3c0,9.7,7.8,17.5,17.5,17.5c9.7,0,17.5-7.8,17.5-17.5l0,0l-0.1-0.3h0.1V197.4z"/>
<path class="st0" d="M85,715V85h502.8L715,211.9v503H85z"/>
<path d="M189,50v159c0,9.6,7.9,17.5,17.5,17.5H584c9.6,0,17.5-7.9,17.5-17.5V50H189L189,50z"/>
<path class="st1" d="M224.1,85h342.5v106.6H224L224.1,85z"/>
<path d="M601.5,750V428.4c-0.1-9.7-7.9-17.4-17.5-17.5H206.5c-9.6,0.1-17.4,7.9-17.5,17.5V750H601.5z"/>
<path class="st1" d="M224.1,445.9h342.5V715H224L224.1,445.9z"/>
<path class="st2" d="M428.1,106.2h114.1v64.1H428.1V106.2z"/>
<path d="M524.2,510.3c0,9.6-7.8,17.5-17.5,17.5h-215c-9.6,0-17.5-7.9-17.5-17.5s7.9-17.5,17.5-17.5h215
	C516.3,492.8,524.2,500.7,524.2,510.3z M524.2,581.8c0,9.6-7.8,17.5-17.5,17.5h-215c-9.6,0-17.5-7.8-17.5-17.5s7.9-17.5,17.5-17.5
	h215C516.4,564.2,524.2,572.1,524.2,581.8L524.2,581.8z M524.2,653.1c0,9.6-7.8,17.5-17.5,17.5h-215c-9.6,0-17.5-7.8-17.5-17.5
	c0-9.7,7.9-17.5,17.5-17.5h215C516.4,635.6,524.2,643.5,524.2,653.1L524.2,653.1z"/>
<path class="st3" d="M131.7,670.6c0,6.9-5.6,12.5-12.5,12.5s-12.5-5.6-12.5-12.5V132.1c0-6.9,5.6-12.5,12.5-12.5s12.5,5.6,12.5,12.5
	V670.6z"/>
<polygon class="st4" points="578,392.7 641.3,520.9 782.8,541.5 680.4,641.3 704.5,782.2 578,715.6 451.5,782.2 475.6,641.3 
	373.2,541.5 514.7,520.9 "/>
</svg>
