<?xml version="1.0" encoding="iso-8859-1"?>
<!-- Uploaded to: SVG Repo, www.svgrepo.com, Generator: SVG Repo Mixer Tools -->
<svg version="1.1" id="Layer_1" xmlns="http://www.w3.org/2000/svg" xmlns:xlink="http://www.w3.org/1999/xlink" 
	 viewBox="0 0 512 512" xml:space="preserve">
<g>
	<rect x="33.526" y="8.245" style="fill:#BF9484;" width="39.87" height="175.451"/>
	<rect x="288.717" y="8.245" style="fill:#BF9484;" width="39.87" height="175.451"/>
</g>
<path d="M81.197,191.492H25.724V0.446h55.473V191.492z M41.322,175.894h24.276V16.044H41.322V175.894z"/>
<path d="M336.396,191.492h-55.473V0.446h55.473V191.492z M296.521,175.894h24.276V16.044h-24.276V175.894z"/>
<g>
	<rect x="88.391" y="24.883" style="fill:#FBB03B;" width="15.598" height="143.506"/>
	<rect x="112.309" y="24.883" style="fill:#FBB03B;" width="15.598" height="143.506"/>
	<rect x="137.266" y="24.883" style="fill:#FBB03B;" width="15.598" height="143.506"/>
	<rect x="160.144" y="24.883" style="fill:#FBB03B;" width="15.598" height="143.506"/>
	<rect x="184.062" y="24.883" style="fill:#FBB03B;" width="15.598" height="143.506"/>
	<rect x="209.019" y="24.883" style="fill:#FBB03B;" width="15.598" height="143.506"/>
	<rect x="232.937" y="24.883" style="fill:#FBB03B;" width="15.598" height="143.506"/>
	<rect x="255.814" y="24.883" style="fill:#FBB03B;" width="15.598" height="143.506"/>
</g>
<rect y="79.998" width="15.598" height="31.197"/>
<rect x="344.206" y="79.998" width="15.598" height="31.197"/>
<path style="fill:#FBB03B;" d="M348.535,511.554H41.498C19.78,511.554,0,491.263,0,468.983v-0.905
	c0-20.863,17.84-36.596,41.498-36.596h143.549c8.424,0,16.692-9.076,16.692-18.324v-0.905c0-8.986-8.384-13.008-16.692-13.008
	h-27.911c-19.652,0-37.549-18.077-37.549-37.925v-0.905c0-18.475,15.791-31.883,37.545-31.883h156.469
	c12.286,0,22.284-10.881,22.284-24.258v-0.801c0-13.578-9.99-23.817-23.24-23.817H145.173c-17.2,0-32.864-16.193-32.864-33.973
	v-0.905c0-16.596,14.436-29.595,32.864-29.595h46.78c9.57,0,17.067-7.296,17.067-16.61v-22.906h15.598v22.906
	c0,18.061-14.348,32.209-32.665,32.209h-46.78c-8.37,0-17.265,4.905-17.265,13.997v0.905c0,9.101,8.713,18.375,17.265,18.375
	h167.474c21.777,0,38.838,17.313,38.838,39.415v0.801c0,21.977-16.994,39.856-37.882,39.856H157.133
	c-10.571,0-21.947,5.095-21.947,16.285v0.905c0,11.267,10.872,22.327,21.95,22.327h27.911c18.711,0,32.291,12.031,32.291,28.606
	v0.905c0,18.07-15.089,33.922-32.291,33.922H41.498c-12.556,0-25.9,7.359-25.9,20.998v0.905c0,13.612,12.829,26.973,25.9,26.973
	h307.037c11.031,0,19.589-12.479,19.589-23.918h0.012c0.488-18.718,15.896-32.237,36.224-32.237h75.762
	c17.475,0,31.879,14.06,31.879,31.345s-14.93,31.345-31.568,31.345v-15.598c8.319,0,15.97-6.916,15.97-15.746
	c0-8.83-7.256-15.746-16.281-15.746h-75.762c-10.255,0-20.638,6.239-20.638,17.678h-0.011
	C383.255,491.796,368.936,511.554,348.535,511.554z"/>
</svg>